<svg id="Layer_1" data-name="Layer 1" xmlns="http://www.w3.org/2000/svg" xmlns:xlink="http://www.w3.org/1999/xlink" viewBox="0 0 180 252"><defs><style>.cls-1{fill:#241f21;}</style><symbol id="Club" data-name="Club" viewBox="0 0 97.82 106.75"><path class="cls-1" d="M49,83.83c0,13.23-8.84,22.92-22.07,22.92h22Z"/><path d="M49,83.83c0,13.23,8.78,22.92,22,22.92h-22Z"/><path class="cls-1" d="M48.89,83.83h0A28.68,28.68,0,1,1,21.76,35.68,29.22,29.22,0,0,1,48.93,0Z"/><path d="M48.89,83.83h0A28.69,28.69,0,1,0,76.06,35.68,29.22,29.22,0,0,0,48.93,0Z"/></symbol><symbol id="Club_medium" data-name="Club medium" viewBox="0 0 34.49 37.64"><use width="97.82" height="106.75" transform="scale(0.35)" xlink:href="#Club"/></symbol></defs><use width="97.82" height="106.75" transform="translate(5.58 29.42) scale(0.24)" xlink:href="#Club"/><use width="97.82" height="106.75" transform="translate(176.33 220.36) rotate(180) scale(0.24)" xlink:href="#Club"/><use width="34.49" height="37.64" transform="translate(74.25 46.18)" xlink:href="#Club_medium"/><use width="34.49" height="37.64" transform="translate(74.25 107.18)" xlink:href="#Club_medium"/><use width="34.49" height="37.64" transform="translate(109.75 205.82) rotate(180)" xlink:href="#Club_medium"/><path class="cls-1" d="M11.74,22.77l1.49-1.49a.44.44,0,0,1,.59,0,5.69,5.69,0,0,0,2.61,1.09,2.07,2.07,0,0,0,2.05-1.9c0-1-1.06-1.91-2.81-1.91H14.34a.47.47,0,0,1-.44-.45v-2a.44.44,0,0,1,.44-.44h1.33c1.65,0,2.53-.81,2.53-1.83a1.83,1.83,0,0,0-1.89-1.77,2.66,2.66,0,0,0-2.06.95.45.45,0,0,1-.64,0l-1.44-1.42a.41.41,0,0,1,0-.61,7,7,0,0,1,4.52-2.08c2.74,0,5.1,1.67,5.1,4.32a4.28,4.28,0,0,1-2.43,3.67V17a4.71,4.71,0,0,1,2.86,4c0,2.58-2.25,4.52-5.51,4.52a6.16,6.16,0,0,1-5-2.1A.48.48,0,0,1,11.74,22.77Z"/><path class="cls-1" d="M172.17,227l-1.49,1.49a.45.45,0,0,1-.59,0,5.69,5.69,0,0,0-2.6-1.09,2.06,2.06,0,0,0-2.06,1.89c0,1,1.06,1.92,2.81,1.92h1.33a.47.47,0,0,1,.45.45v2a.45.45,0,0,1-.45.45h-1.33c-1.65,0-2.53.8-2.53,1.82a1.83,1.83,0,0,0,1.89,1.77,2.69,2.69,0,0,0,2.06-.94.46.46,0,0,1,.64,0l1.44,1.42a.42.42,0,0,1,0,.62,7,7,0,0,1-4.51,2.08c-2.75,0-5.11-1.68-5.11-4.33a4.28,4.28,0,0,1,2.43-3.67v-.07a4.71,4.71,0,0,1-2.86-4c0-2.58,2.25-4.52,5.51-4.52a6.11,6.11,0,0,1,5,2.11A.47.47,0,0,1,172.17,227Z"/></svg>