<svg id="Layer_1" data-name="Layer 1" xmlns="http://www.w3.org/2000/svg" xmlns:xlink="http://www.w3.org/1999/xlink" viewBox="0 0 180 252"><defs><style>.cls-1{fill:#241f21;}.cls-2{fill:#e8e751;}.cls-3{fill:#e2dd24;}.cls-4{fill:#fff;}.cls-5{fill:#eee;}.cls-6{fill:none;}</style><symbol id="Club" data-name="Club" viewBox="0 0 97.82 106.75"><path class="cls-1" d="M49,83.83c0,13.23-8.84,22.92-22.07,22.92h22Z"/><path d="M49,83.83c0,13.23,8.78,22.92,22,22.92h-22Z"/><path class="cls-1" d="M48.89,83.83h0A28.68,28.68,0,1,1,21.76,35.68,29.22,29.22,0,0,1,48.93,0Z"/><path d="M48.89,83.83h0A28.69,28.69,0,1,0,76.06,35.68,29.22,29.22,0,0,0,48.93,0Z"/></symbol><symbol id="King" data-name="King" viewBox="0 0 108 104.17"><polygon class="cls-2" points="53.75 0 32.5 42.17 0 22.67 20.5 104.17 53.75 104.17 53.75 0"/><polygon class="cls-3" points="53.75 0 75 42.17 108 22.67 87 104.17 53.75 104.17 53.75 0"/><path class="cls-3" d="M3,100.67"/><path class="cls-4" d="M54,94.67a6,6,0,0,1,0-12Z"/><path class="cls-5" d="M54,94.67a6,6,0,1,0,0-12Z"/><path class="cls-4" d="M73,98.67a6,6,0,0,1,0-12Z"/><path class="cls-5" d="M73,98.67a6,6,0,0,0,0-12Z"/><path class="cls-4" d="M35,98.67a6,6,0,0,1,0-12Z"/><path class="cls-5" d="M35,98.67a6,6,0,0,0,0-12Z"/><path class="cls-6" d="M13,41.67"/></symbol></defs><use width="97.82" height="106.75" transform="translate(5.75 29.58) scale(0.24)" xlink:href="#Club"/><use width="97.82" height="106.75" transform="translate(176.5 220.52) rotate(180) scale(0.24)" xlink:href="#Club"/><path class="cls-1" d="M11.21,9.41a.56.56,0,0,1,.57-.56h2.76a.57.57,0,0,1,.57.56v6.22l5.25-6.55a.7.7,0,0,1,.45-.23h3a.55.55,0,0,1,.43.87l-5.54,6.93,6,7.85a.55.55,0,0,1-.44.88H21a.63.63,0,0,1-.42-.17l-5.47-7.42v7a.58.58,0,0,1-.57.57H11.78a.56.56,0,0,1-.57-.57Z"/><path class="cls-1" d="M171,240.69a.56.56,0,0,1-.56.57H167.7a.58.58,0,0,1-.57-.57v-6.22L161.88,241a.73.73,0,0,1-.45.23h-3a.54.54,0,0,1-.42-.87l5.53-6.93-6-7.85a.56.56,0,0,1,.45-.88h3.26a.61.61,0,0,1,.43.17l5.46,7.42v-7a.57.57,0,0,1,.57-.56h2.77a.55.55,0,0,1,.56.56Z"/><use width="108" height="104.17" transform="translate(38 73.92)" xlink:href="#King"/></svg>