<svg id="Layer_1" data-name="Layer 1" xmlns="http://www.w3.org/2000/svg" xmlns:xlink="http://www.w3.org/1999/xlink" viewBox="0 0 180 252"><defs><style>.cls-1{fill:#241f21;}.cls-2{fill:#e8e752;}.cls-3{fill:#e2dd24;}.cls-4{fill:#fff;}.cls-5{fill:#eee;}</style><symbol id="Club" data-name="Club" viewBox="0 0 97.82 106.75"><path class="cls-1" d="M49,83.83c0,13.23-8.84,22.92-22.07,22.92h22Z"/><path d="M49,83.83c0,13.23,8.78,22.92,22,22.92h-22Z"/><path class="cls-1" d="M48.89,83.83h0A28.68,28.68,0,1,1,21.76,35.68,29.22,29.22,0,0,1,48.93,0Z"/><path d="M48.89,83.83h0A28.69,28.69,0,1,0,76.06,35.68,29.22,29.22,0,0,0,48.93,0Z"/></symbol><symbol id="Queen" data-name="Queen" viewBox="0 0 98 104.5"><polygon class="cls-2" points="49 50.79 33 0 28 50 0 9 15.25 104.5 49 104.5 49 50.79"/><polygon class="cls-3" points="49 50.79 65 0 70 50 98 9 82.75 104.5 49 104.5 49 50.79"/><path class="cls-4" d="M34,99a6,6,0,0,1,0-12Z"/><path class="cls-5" d="M34,99a6,6,0,0,0,0-12Z"/><path class="cls-4" d="M65,99a6,6,0,0,1,0-12Z"/><path class="cls-5" d="M65,99a6,6,0,0,0,0-12Z"/></symbol></defs><use width="97.82" height="106.75" transform="translate(5.58 29.42) scale(0.24)" xlink:href="#Club"/><use width="97.82" height="106.75" transform="translate(176.33 220.36) rotate(180) scale(0.24)" xlink:href="#Club"/><use width="98" height="104.5" transform="translate(43 73.75)" xlink:href="#Queen"/><path class="cls-1" d="M18.33,8.44A8.5,8.5,0,0,1,26.84,17a8.86,8.86,0,0,1-4.37,7.45l3.05,4.78a.45.45,0,0,1-.38.71H22a.44.44,0,0,1-.38-.24l-2.51-4.23c-.28,0-.57,0-.73,0a8.52,8.52,0,0,1,0-17Zm0,13.25A4.73,4.73,0,1,0,13.62,17,4.74,4.74,0,0,0,18.33,21.69Z"/><path class="cls-1" d="M163.58,241.33a8.5,8.5,0,0,1-8.51-8.54,8.87,8.87,0,0,1,4.37-7.45l-3.05-4.77a.45.45,0,0,1,.38-.71H160a.45.45,0,0,1,.38.23l2.51,4.24a7,7,0,0,1,.73,0,8.52,8.52,0,0,1,0,17Zm0-13.24a4.73,4.73,0,1,0,4.71,4.7A4.74,4.74,0,0,0,163.58,228.09Z"/></svg>