<svg id="Layer_1" data-name="Layer 1" xmlns="http://www.w3.org/2000/svg" xmlns:xlink="http://www.w3.org/1999/xlink" viewBox="0 0 180 252"><defs><style>.cls-1{fill:#241f21;}</style><symbol id="Club_2" data-name="Club 2" viewBox="0 0 97.82 106.75"><path class="cls-1" d="M49,83.83c0,13.23-8.84,22.92-22.07,22.92H71C57.74,106.75,49,97.06,49,83.83Z"/><path class="cls-1" d="M89.92,43.72a28.59,28.59,0,0,0-13.86-8A29.22,29.22,0,0,0,48.93,0,29.22,29.22,0,0,0,21.76,35.68,28.56,28.56,0,0,0,7.88,43.74a28.68,28.68,0,0,0,41,40.09,28.69,28.69,0,0,0,41-40.11Z"/><path d="M49,83.83c0,13.23,8.78,22.92,22,22.92h-22Z"/><path d="M48.89,83.83h0A28.69,28.69,0,1,0,76.06,35.68,29.22,29.22,0,0,0,48.93,0Z"/></symbol></defs><use width="97.82" height="106.75" transform="translate(40.26 69.54) scale(1.06)" xlink:href="#Club_2"/><path class="cls-1" d="M8,25.73l7.4-15.91a.47.47,0,0,1,.4-.26H16a.45.45,0,0,1,.4.26l7.41,15.91a.42.42,0,0,1-.41.62H20.78c-.43,0-.62-.14-.83-.59l-.85-1.87H12.67l-.86,1.89a.87.87,0,0,1-.85.57H8.36A.42.42,0,0,1,8,25.73Zm9.72-5.06-1.8-3.9h0l-1.77,3.9Z"/><path class="cls-1" d="M172,226.27l-7.4,15.91a.47.47,0,0,1-.4.26H164a.45.45,0,0,1-.4-.26l-7.41-15.91a.42.42,0,0,1,.41-.62h2.62c.43,0,.62.14.83.59l.85,1.87h6.43l.86-1.89a.87.87,0,0,1,.85-.57h2.6A.42.42,0,0,1,172,226.27Zm-9.72,5.06,1.8,3.9h0l1.77-3.9Z"/><use width="97.82" height="106.75" transform="translate(5.54 31.53) scale(0.22)" xlink:href="#Club_2"/><use width="97.82" height="106.75" transform="translate(174.46 220.47) rotate(180) scale(0.22)" xlink:href="#Club_2"/></svg>