<svg id="Layer_1" data-name="Layer 1" xmlns="http://www.w3.org/2000/svg" xmlns:xlink="http://www.w3.org/1999/xlink" viewBox="0 0 180 252"><defs><style>.cls-1{fill:#241f21;}</style><symbol id="Club" data-name="Club" viewBox="0 0 97.82 106.75"><path class="cls-1" d="M49,83.83c0,13.23-8.84,22.92-22.07,22.92h22Z"/><path d="M49,83.83c0,13.23,8.78,22.92,22,22.92h-22Z"/><path class="cls-1" d="M48.89,83.83h0A28.68,28.68,0,1,1,21.76,35.68,29.22,29.22,0,0,1,48.93,0Z"/><path d="M48.89,83.83h0A28.69,28.69,0,1,0,76.06,35.68,29.22,29.22,0,0,0,48.93,0Z"/></symbol></defs><use width="97.82" height="106.75" transform="translate(5.75 29.58) scale(0.24)" xlink:href="#Club"/><use width="97.82" height="106.75" transform="translate(176.5 220.52) rotate(180) scale(0.24)" xlink:href="#Club"/><use width="97.82" height="106.75" transform="translate(40.26 69.54) scale(1.06)" xlink:href="#Club"/><path class="cls-1" d="M9.08,24.79l7.4-15.92a.5.5,0,0,1,.41-.26h.23a.47.47,0,0,1,.4.26l7.41,15.92a.42.42,0,0,1-.4.61H21.9c-.43,0-.61-.14-.83-.59l-.85-1.87H13.79l-.85,1.89a.88.88,0,0,1-.85.57H9.48A.42.42,0,0,1,9.08,24.79Zm9.72-5.07L17,15.82h0l-1.77,3.9Z"/><path class="cls-1" d="M175.16,225.32l-7.4,15.92a.49.49,0,0,1-.4.26h-.24a.49.49,0,0,1-.4-.26l-7.4-15.92a.41.41,0,0,1,.4-.61h2.62c.43,0,.62.14.83.59l.85,1.87h6.44l.85-1.9a.88.88,0,0,1,.85-.56h2.6A.41.41,0,0,1,175.16,225.32Zm-9.72,5.06,1.8,3.9h0l1.78-3.9Z"/></svg>