<svg id="Layer_1" data-name="Layer 1" xmlns="http://www.w3.org/2000/svg" xmlns:xlink="http://www.w3.org/1999/xlink" viewBox="0 0 180 252"><defs><style>.cls-1{fill:#241f21;}</style><symbol id="Club_2" data-name="Club 2" viewBox="0 0 97.82 106.75"><path class="cls-1" d="M49,83.83c0,13.23-8.84,22.92-22.07,22.92H71C57.74,106.75,49,97.06,49,83.83Z"/><path class="cls-1" d="M89.92,43.72a28.59,28.59,0,0,0-13.86-8A29.22,29.22,0,0,0,48.93,0,29.22,29.22,0,0,0,21.76,35.68,28.56,28.56,0,0,0,7.88,43.74a28.68,28.68,0,0,0,41,40.09,28.69,28.69,0,0,0,41-40.11Z"/><path d="M49,83.83c0,13.23,8.78,22.92,22,22.92h-22Z"/><path d="M48.89,83.83h0A28.69,28.69,0,1,0,76.06,35.68,29.22,29.22,0,0,0,48.93,0Z"/></symbol></defs><use width="97.82" height="106.75" transform="translate(73.87 45.76) scale(0.36)" xlink:href="#Club_2"/><use width="97.82" height="106.75" transform="translate(73.87 106.76) scale(0.36)" xlink:href="#Club_2"/><use width="97.82" height="106.75" transform="translate(110.13 206.24) rotate(180) scale(0.36)" xlink:href="#Club_2"/><path class="cls-1" d="M10.79,23.89l1.49-1.49a.43.43,0,0,1,.59,0,5.64,5.64,0,0,0,2.6,1.09,2.06,2.06,0,0,0,2.06-1.89c0-1-1.07-1.92-2.82-1.92H13.39a.46.46,0,0,1-.45-.45v-2a.45.45,0,0,1,.45-.45h1.32c1.66,0,2.53-.8,2.53-1.82a1.83,1.83,0,0,0-1.89-1.78,2.72,2.72,0,0,0-2.06.95.43.43,0,0,1-.63,0l-1.45-1.42a.42.42,0,0,1,0-.61A7,7,0,0,1,15.73,10c2.74,0,5.11,1.68,5.11,4.33A4.24,4.24,0,0,1,18.4,18v.07a4.73,4.73,0,0,1,2.86,4c0,2.58-2.24,4.51-5.51,4.51a6.13,6.13,0,0,1-5-2.1A.47.47,0,0,1,10.79,23.89Z"/><path class="cls-1" d="M169.21,228.11l-1.49,1.49a.43.43,0,0,1-.59.05,5.64,5.64,0,0,0-2.6-1.09,2.06,2.06,0,0,0-2.06,1.89c0,1,1.07,1.92,2.82,1.92h1.32a.46.46,0,0,1,.45.45v2a.45.45,0,0,1-.45.45h-1.32c-1.66,0-2.53.8-2.53,1.82a1.83,1.83,0,0,0,1.89,1.78,2.72,2.72,0,0,0,2.06-1,.43.43,0,0,1,.63,0l1.45,1.42a.42.42,0,0,1,0,.61,7,7,0,0,1-4.52,2.08c-2.74,0-5.11-1.68-5.11-4.33A4.24,4.24,0,0,1,161.6,234v-.07a4.73,4.73,0,0,1-2.86-4c0-2.58,2.24-4.51,5.51-4.51a6.13,6.13,0,0,1,5,2.1A.47.47,0,0,1,169.21,228.11Z"/><use width="97.82" height="106.75" transform="translate(5.54 31.53) scale(0.22)" xlink:href="#Club_2"/><use width="97.82" height="106.75" transform="translate(174.46 220.47) rotate(180) scale(0.22)" xlink:href="#Club_2"/></svg>