<svg id="Layer_1" data-name="Layer 1" xmlns="http://www.w3.org/2000/svg" xmlns:xlink="http://www.w3.org/1999/xlink" viewBox="0 0 180 252"><defs><style>.cls-1{fill:#241f21;}.cls-2{fill:#e8e753;}.cls-3{fill:#e2dd24;}.cls-4{fill:#fff;}.cls-5{fill:#eee;}</style><symbol id="Club_2" data-name="Club 2" viewBox="0 0 97.82 106.75"><path class="cls-1" d="M49,83.83c0,13.23-8.84,22.92-22.07,22.92H71C57.74,106.75,49,97.06,49,83.83Z"/><path class="cls-1" d="M89.92,43.72a28.59,28.59,0,0,0-13.86-8A29.22,29.22,0,0,0,48.93,0,29.22,29.22,0,0,0,21.76,35.68,28.56,28.56,0,0,0,7.88,43.74a28.68,28.68,0,0,0,41,40.09,28.69,28.69,0,0,0,41-40.11Z"/><path d="M49,83.83c0,13.23,8.78,22.92,22,22.92h-22Z"/><path d="M48.89,83.83h0A28.69,28.69,0,1,0,76.06,35.68,29.22,29.22,0,0,0,48.93,0Z"/></symbol><symbol id="Jack" data-name="Jack" viewBox="0 0 91.62 55.5"><path class="cls-2" d="M45.81,0C25.06,0,7.15,9.59,0,23.13L11.62,55.5H45.81Z"/><path class="cls-3" d="M45.81,0C66.55,0,84.47,9.59,91.62,23.13L80,55.5H45.81Z"/><path class="cls-4" d="M46.12,45.67a6,6,0,1,1,0-12Z"/><path class="cls-5" d="M46.12,45.67a6,6,0,0,0,0-12Z"/></symbol></defs><path class="cls-1" d="M11.27,24.27l1.61-1.59a.46.46,0,0,1,.64,0,1.49,1.49,0,0,0,1.2.5c.67,0,1.4-.62,1.4-1.8V10.24a.45.45,0,0,1,.45-.45h2.88a.45.45,0,0,1,.45.45V21.4a4.9,4.9,0,0,1-5.08,5.18,4.58,4.58,0,0,1-3.6-1.72A.51.51,0,0,1,11.27,24.27Z"/><path class="cls-1" d="M168.73,227.73l-1.61,1.59a.46.46,0,0,1-.64,0,1.49,1.49,0,0,0-1.2-.5c-.67,0-1.4.62-1.4,1.8v11.14a.45.45,0,0,1-.45.45h-2.88a.45.45,0,0,1-.45-.45V230.6a4.9,4.9,0,0,1,5.08-5.18,4.58,4.58,0,0,1,3.6,1.72A.51.51,0,0,1,168.73,227.73Z"/><use width="97.82" height="106.75" transform="translate(5.54 31.53) scale(0.22)" xlink:href="#Club_2"/><use width="97.82" height="106.75" transform="translate(174.46 220.47) rotate(180) scale(0.22)" xlink:href="#Club_2"/><use width="91.62" height="55.5" transform="translate(45.19 98.25)" xlink:href="#Jack"/></svg>