<svg id="Layer_1" data-name="Layer 1" xmlns="http://www.w3.org/2000/svg" xmlns:xlink="http://www.w3.org/1999/xlink" viewBox="0 0 180 252"><defs><style>.cls-1{fill:#241f21;}</style><symbol id="Club" data-name="Club" viewBox="0 0 97.82 106.75"><path class="cls-1" d="M49,83.83c0,13.23-8.84,22.92-22.07,22.92h22Z"/><path d="M49,83.83c0,13.23,8.78,22.92,22,22.92h-22Z"/><path class="cls-1" d="M48.89,83.83h0A28.68,28.68,0,1,1,21.76,35.68,29.22,29.22,0,0,1,48.93,0Z"/><path d="M48.89,83.83h0A28.69,28.69,0,1,0,76.06,35.68,29.22,29.22,0,0,0,48.93,0Z"/></symbol><symbol id="Club_medium" data-name="Club medium" viewBox="0 0 34.49 37.64"><use width="97.82" height="106.75" transform="scale(0.35)" xlink:href="#Club"/></symbol></defs><use width="97.82" height="106.75" transform="translate(5.58 29.42) scale(0.24)" xlink:href="#Club"/><use width="97.82" height="106.75" transform="translate(176.33 220.36) rotate(180) scale(0.24)" xlink:href="#Club"/><use width="34.49" height="37.64" transform="translate(37.4 45.87) scale(1.02)" xlink:href="#Club_medium"/><use width="34.49" height="37.64" transform="translate(111.38 45.87) scale(1.02)" xlink:href="#Club_medium"/><use width="34.49" height="37.64" transform="translate(145.41 205.43) rotate(180)" xlink:href="#Club_medium"/><use width="34.49" height="37.64" transform="translate(73.41 205.43) rotate(180)" xlink:href="#Club_medium"/><use width="34.49" height="37.64" transform="translate(37.62 108.24) scale(1.02)" xlink:href="#Club_medium"/><use width="34.49" height="37.64" transform="translate(111.14 106.68)" xlink:href="#Club_medium"/><use width="34.49" height="37.64" transform="translate(74.71 77.4) scale(1.02)" xlink:href="#Club_medium"/><use width="34.49" height="37.64" transform="translate(109.25 175.82) rotate(180)" xlink:href="#Club_medium"/><path class="cls-1" d="M14.84,17v-.07a4.51,4.51,0,0,1-2.43-3.67c0-2.65,2.36-4.32,5.25-4.32S23,10.59,23,13.24c0,1.8-1.51,3-2.43,3.65V17c1.06.59,2.88,1.94,2.88,4,0,2.58-2.27,4.52-5.81,4.52S12,23.53,12,21C12,18.87,14.39,17.24,14.84,17Zm2.89,5.58a1.89,1.89,0,0,0,1.91-1.77,2.46,2.46,0,0,0-1.94-2.18,2.49,2.49,0,0,0-1.91,2.18A1.88,1.88,0,0,0,17.73,22.56Zm1.65-9.17a1.67,1.67,0,0,0-3.33,0c0,.85.54,1.53,1.65,2A2.2,2.2,0,0,0,19.38,13.39Z"/><path class="cls-1" d="M169.07,232.79v.07a4.54,4.54,0,0,1,2.44,3.67c0,2.65-2.37,4.33-5.26,4.33s-5.36-1.68-5.36-4.33c0-1.8,1.51-3.05,2.43-3.64v-.1c-1.06-.59-2.88-1.94-2.88-4,0-2.58,2.27-4.52,5.81-4.52s5.71,1.94,5.71,4.52C172,230.9,169.52,232.53,169.07,232.79Zm-2.89-5.58a1.9,1.9,0,0,0-1.91,1.78,2.45,2.45,0,0,0,1.94,2.17,2.48,2.48,0,0,0,1.91-2.17A1.89,1.89,0,0,0,166.18,227.21Zm-1.65,9.18a1.67,1.67,0,0,0,3.33,0c0-.85-.54-1.54-1.65-2A2.19,2.19,0,0,0,164.53,236.39Z"/></svg>