<svg id="Layer_1" data-name="Layer 1" xmlns="http://www.w3.org/2000/svg" xmlns:xlink="http://www.w3.org/1999/xlink" viewBox="0 0 180 252"><defs><style>.cls-1{fill:#241f21;}</style><symbol id="Club" data-name="Club" viewBox="0 0 97.82 106.75"><path class="cls-1" d="M49,83.83c0,13.23-8.84,22.92-22.07,22.92h22Z"/><path d="M49,83.83c0,13.23,8.78,22.92,22,22.92h-22Z"/><path class="cls-1" d="M48.89,83.83h0A28.68,28.68,0,1,1,21.76,35.68,29.22,29.22,0,0,1,48.93,0Z"/><path d="M48.89,83.83h0A28.69,28.69,0,1,0,76.06,35.68,29.22,29.22,0,0,0,48.93,0Z"/></symbol><symbol id="Club_medium" data-name="Club medium" viewBox="0 0 34.49 37.64"><use width="97.82" height="106.75" transform="scale(0.35)" xlink:href="#Club"/></symbol></defs><use width="97.82" height="106.75" transform="translate(5.58 29.42) scale(0.24)" xlink:href="#Club"/><use width="97.82" height="106.75" transform="translate(176.33 220.36) rotate(180) scale(0.24)" xlink:href="#Club"/><use width="34.49" height="37.64" transform="translate(38.53 32.68)" xlink:href="#Club_medium"/><use width="34.49" height="37.64" transform="translate(110.75 32.68)" xlink:href="#Club_medium"/><use width="34.49" height="37.64" transform="translate(145.25 219.32) rotate(180)" xlink:href="#Club_medium"/><use width="34.49" height="37.64" transform="translate(73.25 219.32) rotate(180)" xlink:href="#Club_medium"/><use width="34.49" height="37.64" transform="translate(38.75 82.57)" xlink:href="#Club_medium"/><use width="34.49" height="37.64" transform="translate(110.98 82.57)" xlink:href="#Club_medium"/><use width="34.49" height="37.64" transform="translate(38.59 132.07)" xlink:href="#Club_medium"/><use width="34.49" height="37.64" transform="translate(110.59 132.07)" xlink:href="#Club_medium"/><use width="34.49" height="37.64" transform="translate(74.59 107.07)" xlink:href="#Club_medium"/><path class="cls-1" d="M13.92,22.73c1.11-.36,4.26-1.45,4.75-3.88a6.8,6.8,0,0,1-2.24.47,4.75,4.75,0,0,1-4.71-5.13,5.45,5.45,0,0,1,5.41-5.42c3.67,0,5.71,2.75,5.71,6.44,0,7-5.78,9.76-7.95,10.4a.54.54,0,0,1-.73-.38l-.69-1.82C13.38,23.13,13.45,22.87,13.92,22.73Zm5.53-8.42a2.27,2.27,0,1,0-2.27,2.29A2.28,2.28,0,0,0,19.45,14.31Z"/><path class="cls-1" d="M170,227.05c-1.11.35-4.26,1.44-4.75,3.88a6.82,6.82,0,0,1,2.24-.48,4.75,4.75,0,0,1,4.71,5.13,5.45,5.45,0,0,1-5.41,5.42c-3.67,0-5.7-2.74-5.7-6.43,0-7,5.77-9.77,7.94-10.41a.57.57,0,0,1,.74.38l.68,1.82C170.54,226.64,170.46,226.9,170,227.05Zm-5.53,8.42a2.27,2.27,0,1,0,2.27-2.3A2.28,2.28,0,0,0,164.46,235.47Z"/></svg>