<svg id="Layer_1" data-name="Layer 1" xmlns="http://www.w3.org/2000/svg" xmlns:xlink="http://www.w3.org/1999/xlink" viewBox="0 0 180 252"><defs><style>.cls-1{fill:#241f21;}</style><symbol id="Club" data-name="Club" viewBox="0 0 97.82 106.75"><path class="cls-1" d="M49,83.83c0,13.23-8.84,22.92-22.07,22.92h22Z"/><path d="M49,83.83c0,13.23,8.78,22.92,22,22.92h-22Z"/><path class="cls-1" d="M48.89,83.83h0A28.68,28.68,0,1,1,21.76,35.68,29.22,29.22,0,0,1,48.93,0Z"/><path d="M48.89,83.83h0A28.69,28.69,0,1,0,76.06,35.68,29.22,29.22,0,0,0,48.93,0Z"/></symbol><symbol id="Club_medium" data-name="Club medium" viewBox="0 0 34.49 37.64"><use width="97.82" height="106.75" transform="scale(0.35)" xlink:href="#Club"/></symbol></defs><use width="97.82" height="106.75" transform="translate(5.19 30.03) scale(0.24)" xlink:href="#Club"/><use width="97.82" height="106.75" transform="translate(175.94 220.97) rotate(180) scale(0.24)" xlink:href="#Club"/><use width="34.49" height="37.64" transform="translate(38.14 33.29)" xlink:href="#Club_medium"/><use width="34.49" height="37.64" transform="translate(110.37 33.29)" xlink:href="#Club_medium"/><use width="34.49" height="37.64" transform="translate(144.86 219.93) rotate(180)" xlink:href="#Club_medium"/><use width="34.49" height="37.64" transform="translate(72.86 219.93) rotate(180)" xlink:href="#Club_medium"/><use width="34.49" height="37.64" transform="translate(38.37 83.18)" xlink:href="#Club_medium"/><use width="34.49" height="37.64" transform="translate(110.59 83.18)" xlink:href="#Club_medium"/><use width="34.49" height="37.64" transform="translate(38.2 132.68)" xlink:href="#Club_medium"/><use width="34.49" height="37.64" transform="translate(110.2 132.68)" xlink:href="#Club_medium"/><use width="34.49" height="37.64" transform="translate(74.2 58.68)" xlink:href="#Club_medium"/><use width="34.49" height="37.64" transform="translate(108.67 194.82) rotate(180)" xlink:href="#Club_medium"/><path class="cls-1" d="M9.91,14.75H7.64a.44.44,0,0,1-.43-.45V12.81a.67.67,0,0,1,.14-.35l3.46-2.7H13a.45.45,0,0,1,.43.45V25.4a.45.45,0,0,1-.43.45H10.36a.45.45,0,0,1-.45-.45Z"/><path class="cls-1" d="M14.9,17.8c0-5.18,2.2-8.27,6.06-8.27S27,12.62,27,17.8s-2.2,8.28-6.05,8.28S14.9,23,14.9,17.8Zm8.3,0C23.2,14.71,22.4,13,21,13s-2.25,1.75-2.25,4.84.8,4.85,2.25,4.85S23.2,20.93,23.2,17.8Z"/><path class="cls-1" d="M172.22,236.24h2.28a.45.45,0,0,1,.42.45v1.49a.67.67,0,0,1-.14.36l-3.45,2.69h-2.18a.44.44,0,0,1-.43-.45V225.6a.44.44,0,0,1,.43-.45h2.63a.44.44,0,0,1,.44.45Z"/><path class="cls-1" d="M167.71,233.19c0,5.18-2.2,8.28-6.06,8.28s-6.05-3.1-6.05-8.28,2.2-8.28,6.05-8.28S167.71,228,167.71,233.19Zm-8.31,0c0,3.1.81,4.85,2.25,4.85s2.25-1.75,2.25-4.85-.81-4.85-2.25-4.85S159.4,230.07,159.4,233.19Z"/></svg>