<svg id="Layer_1" data-name="Layer 1" xmlns="http://www.w3.org/2000/svg" xmlns:xlink="http://www.w3.org/1999/xlink" viewBox="0 0 180 252"><defs><style>.cls-1{fill:#241f21;}.cls-2{fill:#e8e751;}.cls-3{fill:#e2dd24;}.cls-4{fill:#fff;}.cls-5{fill:#eee;}.cls-6{fill:none;}</style><symbol id="Club_2" data-name="Club 2" viewBox="0 0 97.82 106.75"><path class="cls-1" d="M49,83.83c0,13.23-8.84,22.92-22.07,22.92H71C57.74,106.75,49,97.06,49,83.83Z"/><path class="cls-1" d="M89.92,43.72a28.59,28.59,0,0,0-13.86-8A29.22,29.22,0,0,0,48.93,0,29.22,29.22,0,0,0,21.76,35.68,28.56,28.56,0,0,0,7.88,43.74a28.68,28.68,0,0,0,41,40.09,28.69,28.69,0,0,0,41-40.11Z"/><path d="M49,83.83c0,13.23,8.78,22.92,22,22.92h-22Z"/><path d="M48.89,83.83h0A28.69,28.69,0,1,0,76.06,35.68,29.22,29.22,0,0,0,48.93,0Z"/></symbol><symbol id="King" data-name="King" viewBox="0 0 108 104.17"><polygon class="cls-2" points="53.75 0 32.5 42.17 0 22.67 20.5 104.17 53.75 104.17 53.75 0"/><polygon class="cls-3" points="53.75 0 75 42.17 108 22.67 87 104.17 53.75 104.17 53.75 0"/><path class="cls-3" d="M3,100.67"/><path class="cls-4" d="M54,94.67a6,6,0,0,1,0-12Z"/><path class="cls-5" d="M54,94.67a6,6,0,1,0,0-12Z"/><path class="cls-4" d="M73,98.67a6,6,0,0,1,0-12Z"/><path class="cls-5" d="M73,98.67a6,6,0,0,0,0-12Z"/><path class="cls-4" d="M35,98.67a6,6,0,0,1,0-12Z"/><path class="cls-5" d="M35,98.67a6,6,0,0,0,0-12Z"/><path class="cls-6" d="M13,41.67"/></symbol></defs><path class="cls-1" d="M9.09,10.36a.56.56,0,0,1,.57-.57h2.76a.58.58,0,0,1,.57.57v6.22L18.24,10a.72.72,0,0,1,.45-.24h3a.55.55,0,0,1,.43.88L16.56,17.6l6,7.85a.55.55,0,0,1-.45.87H18.88a.66.66,0,0,1-.43-.16L13,18.73v7.05a.58.58,0,0,1-.57.57H9.66a.56.56,0,0,1-.57-.57Z"/><path class="cls-1" d="M170.91,241.64a.56.56,0,0,1-.57.57h-2.76a.58.58,0,0,1-.57-.57v-6.22L161.76,242a.72.72,0,0,1-.45.24h-3a.55.55,0,0,1-.43-.88l5.54-6.93-6-7.85a.55.55,0,0,1,.45-.87h3.26a.66.66,0,0,1,.43.16l5.46,7.43v-7.05a.58.58,0,0,1,.57-.57h2.76a.56.56,0,0,1,.57.57Z"/><use width="97.82" height="106.75" transform="translate(5.54 31.53) scale(0.22)" xlink:href="#Club_2"/><use width="97.82" height="106.75" transform="translate(174.46 220.47) rotate(180) scale(0.22)" xlink:href="#Club_2"/><use width="108" height="104.17" transform="translate(37 73.92)" xlink:href="#King"/></svg>