<svg id="Layer_1" data-name="Layer 1" xmlns="http://www.w3.org/2000/svg" xmlns:xlink="http://www.w3.org/1999/xlink" viewBox="0 0 180 252"><defs><style>.cls-1{fill:#241f21;}</style><symbol id="Club_2" data-name="Club 2" viewBox="0 0 97.82 106.75"><path class="cls-1" d="M49,83.83c0,13.23-8.84,22.92-22.07,22.92H71C57.74,106.75,49,97.06,49,83.83Z"/><path class="cls-1" d="M89.92,43.72a28.59,28.59,0,0,0-13.86-8A29.22,29.22,0,0,0,48.93,0,29.22,29.22,0,0,0,21.76,35.68,28.56,28.56,0,0,0,7.88,43.74a28.68,28.68,0,0,0,41,40.09,28.69,28.69,0,0,0,41-40.11Z"/><path d="M49,83.83c0,13.23,8.78,22.92,22,22.92h-22Z"/><path d="M48.89,83.83h0A28.69,28.69,0,1,0,76.06,35.68,29.22,29.22,0,0,0,48.93,0Z"/></symbol></defs><use width="97.82" height="106.75" transform="translate(38.93 45.98) scale(0.36)" xlink:href="#Club_2"/><use width="97.82" height="106.75" transform="translate(111.15 45.98) scale(0.36)" xlink:href="#Club_2"/><use width="97.82" height="106.75" transform="translate(146.41 206.46) rotate(180) scale(0.36)" xlink:href="#Club_2"/><use width="97.82" height="106.75" transform="translate(74.41 206.46) rotate(180) scale(0.36)" xlink:href="#Club_2"/><use width="97.82" height="106.75" transform="translate(39.15 106.87) scale(0.36)" xlink:href="#Club_2"/><use width="97.82" height="106.75" transform="translate(111.37 106.87) scale(0.36)" xlink:href="#Club_2"/><use width="97.82" height="106.75" transform="translate(75.35 76.76) scale(0.36)" xlink:href="#Club_2"/><path class="cls-1" d="M10.43,25.64l5.91-12.35H10.86a.46.46,0,0,1-.45-.45V10.71a.47.47,0,0,1,.45-.45h10a.48.48,0,0,1,.45.45v.17L14.21,25.66a1,1,0,0,1-1,.69H10.9a.45.45,0,0,1-.47-.45Z"/><path class="cls-1" d="M169.57,226.36l-5.91,12.35h5.48a.46.46,0,0,1,.45.45v2.13a.47.47,0,0,1-.45.45h-10a.48.48,0,0,1-.45-.45v-.17l7.08-14.78a1,1,0,0,1,1-.69h2.34a.45.45,0,0,1,.47.45Z"/><use width="97.82" height="106.75" transform="translate(5.54 31.53) scale(0.22)" xlink:href="#Club_2"/><use width="97.82" height="106.75" transform="translate(174.46 220.47) rotate(180) scale(0.22)" xlink:href="#Club_2"/></svg>