<svg id="Layer_1" data-name="Layer 1" xmlns="http://www.w3.org/2000/svg" xmlns:xlink="http://www.w3.org/1999/xlink" viewBox="0 0 180 252"><defs><style>.cls-1{fill:#241f21;}</style><symbol id="Club_2" data-name="Club 2" viewBox="0 0 97.82 106.75"><path class="cls-1" d="M49,83.83c0,13.23-8.84,22.92-22.07,22.92H71C57.74,106.75,49,97.06,49,83.83Z"/><path class="cls-1" d="M89.92,43.72a28.59,28.59,0,0,0-13.86-8A29.22,29.22,0,0,0,48.93,0,29.22,29.22,0,0,0,21.76,35.68,28.56,28.56,0,0,0,7.88,43.74a28.68,28.68,0,0,0,41,40.09,28.69,28.69,0,0,0,41-40.11Z"/><path d="M49,83.83c0,13.23,8.78,22.92,22,22.92h-22Z"/><path d="M48.89,83.83h0A28.69,28.69,0,1,0,76.06,35.68,29.22,29.22,0,0,0,48.93,0Z"/></symbol></defs><use width="97.82" height="106.75" transform="translate(37.76 32.87) scale(0.36)" xlink:href="#Club_2"/><use width="97.82" height="106.75" transform="translate(109.98 32.87) scale(0.36)" xlink:href="#Club_2"/><use width="97.82" height="106.75" transform="translate(145.24 220.35) rotate(180) scale(0.36)" xlink:href="#Club_2"/><use width="97.82" height="106.75" transform="translate(73.24 220.35) rotate(180) scale(0.36)" xlink:href="#Club_2"/><use width="97.82" height="106.75" transform="translate(37.98 82.76) scale(0.36)" xlink:href="#Club_2"/><use width="97.82" height="106.75" transform="translate(110.2 82.76) scale(0.36)" xlink:href="#Club_2"/><use width="97.82" height="106.75" transform="translate(37.81 132.26) scale(0.36)" xlink:href="#Club_2"/><use width="97.82" height="106.75" transform="translate(109.81 132.26) scale(0.36)" xlink:href="#Club_2"/><use width="97.82" height="106.75" transform="translate(73.81 58.26) scale(0.36)" xlink:href="#Club_2"/><use width="97.82" height="106.75" transform="translate(109.05 195.24) rotate(180) scale(0.36)" xlink:href="#Club_2"/><path class="cls-1" d="M8.84,15.25H6.57a.43.43,0,0,1-.42-.44V13.32A.67.67,0,0,1,6.29,13l3.45-2.7h2.18a.45.45,0,0,1,.42.45V25.9a.45.45,0,0,1-.42.45H9.29a.45.45,0,0,1-.45-.45Z"/><path class="cls-1" d="M13.83,18.31c0-5.18,2.2-8.28,6.06-8.28s6.05,3.1,6.05,8.28-2.2,8.27-6.05,8.27S13.83,23.49,13.83,18.31Zm8.31,0c0-3.1-.81-4.85-2.25-4.85s-2.25,1.75-2.25,4.85.81,4.84,2.25,4.84S22.14,21.43,22.14,18.31Z"/><path class="cls-1" d="M171.16,236.75h2.27a.43.43,0,0,1,.42.44v1.49a.67.67,0,0,1-.14.36l-3.45,2.7h-2.18a.45.45,0,0,1-.42-.45V226.1a.45.45,0,0,1,.42-.45h2.63a.45.45,0,0,1,.45.45Z"/><path class="cls-1" d="M166.64,233.69c0,5.18-2.2,8.28-6.06,8.28s-6.05-3.1-6.05-8.28,2.2-8.27,6.05-8.27S166.64,228.51,166.64,233.69Zm-8.3,0c0,3.1.8,4.85,2.24,4.85s2.25-1.75,2.25-4.85-.8-4.84-2.25-4.84S158.34,230.57,158.34,233.69Z"/><use width="97.82" height="106.75" transform="translate(5.54 31.53) scale(0.22)" xlink:href="#Club_2"/><use width="97.82" height="106.75" transform="translate(174.46 220.47) rotate(180) scale(0.22)" xlink:href="#Club_2"/></svg>