<svg id="Layer_1" data-name="Layer 1" xmlns="http://www.w3.org/2000/svg" xmlns:xlink="http://www.w3.org/1999/xlink" viewBox="0 0 180 252"><defs><style>.cls-1{fill:#241f21;}</style><symbol id="Club" data-name="Club" viewBox="0 0 97.82 106.75"><path class="cls-1" d="M49,83.83c0,13.23-8.84,22.92-22.07,22.92h22Z"/><path d="M49,83.83c0,13.23,8.78,22.92,22,22.92h-22Z"/><path class="cls-1" d="M48.89,83.83h0A28.68,28.68,0,1,1,21.76,35.68,29.22,29.22,0,0,1,48.93,0Z"/><path d="M48.89,83.83h0A28.69,28.69,0,1,0,76.06,35.68,29.22,29.22,0,0,0,48.93,0Z"/></symbol><symbol id="Club_medium" data-name="Club medium" viewBox="0 0 34.49 37.64"><use width="97.82" height="106.75" transform="scale(0.35)" xlink:href="#Club"/></symbol></defs><use width="97.82" height="106.75" transform="translate(5.52 29.69) scale(0.24)" xlink:href="#Club"/><use width="97.82" height="106.75" transform="translate(176.28 220.63) rotate(180) scale(0.24)" xlink:href="#Club"/><use width="34.49" height="37.64" transform="translate(38.64 46.18)" xlink:href="#Club_medium"/><use width="34.49" height="37.64" transform="translate(110.87 46.18)" xlink:href="#Club_medium"/><use width="34.49" height="37.64" transform="translate(145.36 205.82) rotate(180)" xlink:href="#Club_medium"/><use width="34.49" height="37.64" transform="translate(73.36 205.82) rotate(180)" xlink:href="#Club_medium"/><use width="34.49" height="37.64" transform="translate(74.31 109.24)" xlink:href="#Club_medium"/><path class="cls-1" d="M12.14,23l1.49-1.46a.45.45,0,0,1,.56-.08A6.82,6.82,0,0,0,17,22.58a2.19,2.19,0,0,0,2.25-2.25A2.25,2.25,0,0,0,16.82,18H13.18a.79.79,0,0,1-.74-.83V9.88a.45.45,0,0,1,.45-.45h7.62a.45.45,0,0,1,.45.45V12a.45.45,0,0,1-.45.45H15.64v2.53h1.68a5.15,5.15,0,0,1,5.39,5.39,5.61,5.61,0,0,1-5.84,5.42,6.27,6.27,0,0,1-4.69-2C11.88,23.43,11.85,23.27,12.14,23Z"/><path class="cls-1" d="M171.66,227.35l-1.49,1.46a.44.44,0,0,1-.56.07,6.85,6.85,0,0,0-2.82-1.13,2.19,2.19,0,0,0-2.25,2.25,2.25,2.25,0,0,0,2.44,2.29h3.64a.79.79,0,0,1,.74.83v7.33a.45.45,0,0,1-.45.45h-7.62a.45.45,0,0,1-.45-.45v-2.08a.45.45,0,0,1,.45-.45h4.87v-2.53h-1.68a5.15,5.15,0,0,1-5.39-5.39,5.61,5.61,0,0,1,5.84-5.42,6.27,6.27,0,0,1,4.69,2C171.92,226.9,172,227.06,171.66,227.35Z"/></svg>