<svg id="Layer_1" data-name="Layer 1" xmlns="http://www.w3.org/2000/svg" xmlns:xlink="http://www.w3.org/1999/xlink" viewBox="0 0 180 252"><defs><style>.cls-1{fill:#241f21;}</style><symbol id="Club" data-name="Club" viewBox="0 0 97.82 106.75"><path class="cls-1" d="M49,83.83c0,13.23-8.84,22.92-22.07,22.92h22Z"/><path d="M49,83.83c0,13.23,8.78,22.92,22,22.92h-22Z"/><path class="cls-1" d="M48.89,83.83h0A28.68,28.68,0,1,1,21.76,35.68,29.22,29.22,0,0,1,48.93,0Z"/><path d="M48.89,83.83h0A28.69,28.69,0,1,0,76.06,35.68,29.22,29.22,0,0,0,48.93,0Z"/></symbol><symbol id="Club_medium" data-name="Club medium" viewBox="0 0 34.49 37.64"><use width="97.82" height="106.75" transform="scale(0.35)" xlink:href="#Club"/></symbol></defs><use width="97.82" height="106.75" transform="translate(6.19 30.03) scale(0.24)" xlink:href="#Club"/><use width="97.82" height="106.75" transform="translate(176.94 220.97) rotate(180) scale(0.24)" xlink:href="#Club"/><use width="34.49" height="37.64" transform="translate(39.31 46.4)" xlink:href="#Club_medium"/><use width="34.49" height="37.64" transform="translate(111.53 46.4)" xlink:href="#Club_medium"/><use width="34.49" height="37.64" transform="translate(146.02 206.04) rotate(180)" xlink:href="#Club_medium"/><use width="34.49" height="37.64" transform="translate(74.02 206.04) rotate(180)" xlink:href="#Club_medium"/><use width="34.49" height="37.64" transform="translate(39.53 107.29)" xlink:href="#Club_medium"/><use width="34.49" height="37.64" transform="translate(111.75 107.29)" xlink:href="#Club_medium"/><use width="34.49" height="37.64" transform="translate(75.73 77.18)" xlink:href="#Club_medium"/><path class="cls-1" d="M12.5,25.14l5.91-12.35H12.92a.47.47,0,0,1-.45-.45V10.21a.48.48,0,0,1,.45-.45h10a.47.47,0,0,1,.45.45v.17L16.28,25.16a1,1,0,0,1-1,.69H13a.45.45,0,0,1-.47-.45Z"/><path class="cls-1" d="M172.64,225.86l-5.92,12.35h5.49a.46.46,0,0,1,.45.45v2.12a.46.46,0,0,1-.45.45h-10a.46.46,0,0,1-.45-.45v-.16l7.07-14.78c.29-.59.62-.69,1-.69h2.34a.46.46,0,0,1,.48.45Z"/></svg>