<svg id="Layer_1" data-name="Layer 1" xmlns="http://www.w3.org/2000/svg" xmlns:xlink="http://www.w3.org/1999/xlink" viewBox="0 0 180 252"><defs><style>.cls-1{fill:#241f21;}</style><symbol id="Club" data-name="Club" viewBox="0 0 97.82 106.75"><path class="cls-1" d="M49,83.83c0,13.23-8.84,22.92-22.07,22.92h22Z"/><path d="M49,83.83c0,13.23,8.78,22.92,22,22.92h-22Z"/><path class="cls-1" d="M48.89,83.83h0A28.68,28.68,0,1,1,21.76,35.68,29.22,29.22,0,0,1,48.93,0Z"/><path d="M48.89,83.83h0A28.69,28.69,0,1,0,76.06,35.68,29.22,29.22,0,0,0,48.93,0Z"/></symbol><symbol id="Club_medium" data-name="Club medium" viewBox="0 0 34.49 37.64"><use width="97.82" height="106.75" transform="scale(0.35)" xlink:href="#Club"/></symbol></defs><use width="97.82" height="106.75" transform="translate(5.3 29.81) scale(0.24)" xlink:href="#Club"/><use width="97.82" height="106.75" transform="translate(176.05 220.75) rotate(180) scale(0.24)" xlink:href="#Club"/><use width="34.49" height="37.64" transform="translate(38.42 46.18)" xlink:href="#Club_medium"/><use width="34.49" height="37.64" transform="translate(110.64 46.18)" xlink:href="#Club_medium"/><use width="34.49" height="37.64" transform="translate(145.13 205.82) rotate(180)" xlink:href="#Club_medium"/><use width="34.49" height="37.64" transform="translate(73.13 205.82) rotate(180)" xlink:href="#Club_medium"/><use width="34.49" height="37.64" transform="translate(38.64 107.07)" xlink:href="#Club_medium"/><use width="34.49" height="37.64" transform="translate(110.87 107.07)" xlink:href="#Club_medium"/><path class="cls-1" d="M19.55,9a.55.55,0,0,1,.74.38L21,11.22c.1.28,0,.54-.45.69-1.11.35-4.25,1.44-4.75,3.87A6.81,6.81,0,0,1,18,15.31a4.75,4.75,0,0,1,4.7,5.13,5.45,5.45,0,0,1-5.41,5.42c-3.67,0-5.7-2.74-5.7-6.43C11.61,12.47,17.52,9.66,19.55,9ZM17.26,22.6A2.29,2.29,0,1,0,15,20.33,2.29,2.29,0,0,0,17.26,22.6Z"/><path class="cls-1" d="M163.8,241.53a.54.54,0,0,1-.73-.38l-.69-1.82c-.09-.28,0-.54.45-.68,1.11-.36,4.26-1.45,4.76-3.88a6.86,6.86,0,0,1-2.25.47,4.75,4.75,0,0,1-4.71-5.13,5.45,5.45,0,0,1,5.42-5.42c3.66,0,5.7,2.75,5.7,6.43C171.75,238.08,165.84,240.89,163.8,241.53ZM166.1,228a2.28,2.28,0,1,0,2.27,2.27A2.28,2.28,0,0,0,166.1,228Z"/></svg>