<svg id="Layer_1" data-name="Layer 1" xmlns="http://www.w3.org/2000/svg" xmlns:xlink="http://www.w3.org/1999/xlink" viewBox="0 0 180 252"><defs><style>.cls-1{fill:#241f21;}</style><symbol id="Club_2" data-name="Club 2" viewBox="0 0 97.82 106.75"><path class="cls-1" d="M49,83.83c0,13.23-8.84,22.92-22.07,22.92H71C57.74,106.75,49,97.06,49,83.83Z"/><path class="cls-1" d="M89.92,43.72a28.59,28.59,0,0,0-13.86-8A29.22,29.22,0,0,0,48.93,0,29.22,29.22,0,0,0,21.76,35.68,28.56,28.56,0,0,0,7.88,43.74a28.68,28.68,0,0,0,41,40.09,28.69,28.69,0,0,0,41-40.11Z"/><path d="M49,83.83c0,13.23,8.78,22.92,22,22.92h-22Z"/><path d="M48.89,83.83h0A28.69,28.69,0,1,0,76.06,35.68,29.22,29.22,0,0,0,48.93,0Z"/></symbol></defs><use width="97.82" height="106.75" transform="translate(38.31 45.37) scale(0.36)" xlink:href="#Club_2"/><use width="97.82" height="106.75" transform="translate(110.54 45.37) scale(0.36)" xlink:href="#Club_2"/><use width="97.82" height="106.75" transform="translate(145.8 205.85) rotate(180) scale(0.36)" xlink:href="#Club_2"/><use width="97.82" height="106.75" transform="translate(73.8 205.85) rotate(180) scale(0.36)" xlink:href="#Club_2"/><use width="97.82" height="106.75" transform="translate(38.54 106.26) scale(0.36)" xlink:href="#Club_2"/><use width="97.82" height="106.75" transform="translate(110.76 106.26) scale(0.36)" xlink:href="#Club_2"/><use width="97.82" height="106.75" transform="translate(74.73 76.15) scale(0.36)" xlink:href="#Club_2"/><use width="97.82" height="106.75" transform="translate(109.63 176.24) rotate(180) scale(0.36)" xlink:href="#Club_2"/><path class="cls-1" d="M12.89,18.09V18a4.5,4.5,0,0,1-2.44-3.66c0-2.65,2.37-4.33,5.25-4.33s5.37,1.68,5.37,4.33c0,1.79-1.51,3.05-2.44,3.64v.09c1.07.59,2.89,1.94,2.89,4,0,2.57-2.27,4.51-5.82,4.51S10,24.64,10,22.07C10,20,12.44,18.35,12.89,18.09Zm2.88,5.59a1.9,1.9,0,0,0,1.92-1.78,2.47,2.47,0,0,0-1.94-2.18,2.52,2.52,0,0,0-1.92,2.18A1.89,1.89,0,0,0,15.77,23.68Zm1.66-9.18a1.68,1.68,0,0,0-3.34,0c0,.85.55,1.54,1.66,2A2.2,2.2,0,0,0,17.43,14.5Z"/><path class="cls-1" d="M167.11,233.91V234a4.5,4.5,0,0,1,2.44,3.66c0,2.65-2.36,4.33-5.25,4.33s-5.37-1.68-5.37-4.33c0-1.79,1.52-3,2.44-3.64v-.09c-1.07-.59-2.89-1.94-2.89-4,0-2.57,2.27-4.51,5.82-4.51s5.7,1.94,5.7,4.51C170,232,167.56,233.65,167.11,233.91Zm-2.88-5.59a1.9,1.9,0,0,0-1.92,1.78,2.49,2.49,0,0,0,1.94,2.18,2.52,2.52,0,0,0,1.92-2.18A1.89,1.89,0,0,0,164.23,228.32Zm-1.66,9.18a1.68,1.68,0,0,0,3.34,0c0-.85-.55-1.54-1.66-2A2.2,2.2,0,0,0,162.57,237.5Z"/><use width="97.82" height="106.75" transform="translate(5.54 31.53) scale(0.22)" xlink:href="#Club_2"/><use width="97.82" height="106.75" transform="translate(174.46 220.47) rotate(180) scale(0.22)" xlink:href="#Club_2"/></svg>