<svg id="Layer_1" data-name="Layer 1" xmlns="http://www.w3.org/2000/svg" xmlns:xlink="http://www.w3.org/1999/xlink" viewBox="0 0 180 252"><defs><style>.cls-1{fill:#241f21;}</style><symbol id="Club_2" data-name="Club 2" viewBox="0 0 97.82 106.75"><path class="cls-1" d="M49,83.83c0,13.23-8.84,22.92-22.07,22.92H71C57.74,106.75,49,97.06,49,83.83Z"/><path class="cls-1" d="M89.92,43.72a28.59,28.59,0,0,0-13.86-8A29.22,29.22,0,0,0,48.93,0,29.22,29.22,0,0,0,21.76,35.68,28.56,28.56,0,0,0,7.88,43.74a28.68,28.68,0,0,0,41,40.09,28.69,28.69,0,0,0,41-40.11Z"/><path d="M49,83.83c0,13.23,8.78,22.92,22,22.92h-22Z"/><path d="M48.89,83.83h0A28.69,28.69,0,1,0,76.06,35.68,29.22,29.22,0,0,0,48.93,0Z"/></symbol></defs><use width="97.82" height="106.75" transform="translate(38.15 32.26) scale(0.36)" xlink:href="#Club_2"/><use width="97.82" height="106.75" transform="translate(110.37 32.26) scale(0.36)" xlink:href="#Club_2"/><use width="97.82" height="106.75" transform="translate(145.63 219.74) rotate(180) scale(0.36)" xlink:href="#Club_2"/><use width="97.82" height="106.75" transform="translate(73.63 219.74) rotate(180) scale(0.36)" xlink:href="#Club_2"/><use width="97.82" height="106.75" transform="translate(38.37 82.15) scale(0.36)" xlink:href="#Club_2"/><use width="97.82" height="106.75" transform="translate(110.59 82.15) scale(0.36)" xlink:href="#Club_2"/><use width="97.82" height="106.75" transform="translate(38.2 131.65) scale(0.36)" xlink:href="#Club_2"/><use width="97.82" height="106.75" transform="translate(110.2 131.65) scale(0.36)" xlink:href="#Club_2"/><use width="97.82" height="106.75" transform="translate(74.2 106.65) scale(0.36)" xlink:href="#Club_2"/><path class="cls-1" d="M13,23.84c1.12-.35,4.26-1.44,4.76-3.88a6.86,6.86,0,0,1-2.25.47,4.75,4.75,0,0,1-4.71-5.13,5.44,5.44,0,0,1,5.42-5.41c3.67,0,5.7,2.74,5.7,6.43,0,7-5.77,9.77-7.95,10.41a.56.56,0,0,1-.73-.38l-.69-1.82C12.42,24.24,12.49,24,13,23.84Zm5.54-8.42a2.27,2.27,0,1,0-2.27,2.29A2.29,2.29,0,0,0,18.5,15.42Z"/><path class="cls-1" d="M167,228.16c-1.11.35-4.26,1.44-4.76,3.88a6.86,6.86,0,0,1,2.25-.47,4.75,4.75,0,0,1,4.71,5.13,5.44,5.44,0,0,1-5.42,5.41c-3.67,0-5.7-2.74-5.7-6.43,0-7,5.77-9.77,7.95-10.41a.56.56,0,0,1,.73.38l.69,1.82C167.58,227.76,167.51,228,167,228.16Zm-5.54,8.42a2.27,2.27,0,1,0,2.27-2.29A2.29,2.29,0,0,0,161.5,236.58Z"/><use width="97.82" height="106.75" transform="translate(4.62 30.53) scale(0.24)" xlink:href="#Club_2"/><use width="97.82" height="106.75" transform="translate(175.38 221.47) rotate(180) scale(0.24)" xlink:href="#Club_2"/></svg>