<svg id="Layer_1" data-name="Layer 1" xmlns="http://www.w3.org/2000/svg" xmlns:xlink="http://www.w3.org/1999/xlink" viewBox="0 0 180 252"><defs><style>.cls-1{fill:#241f21;}.cls-2{fill:#e8e752;}.cls-3{fill:#e2dd24;}.cls-4{fill:#fff;}.cls-5{fill:#eee;}</style><symbol id="Club_2" data-name="Club 2" viewBox="0 0 97.82 106.75"><path class="cls-1" d="M49,83.83c0,13.23-8.84,22.92-22.07,22.92H71C57.74,106.75,49,97.06,49,83.83Z"/><path class="cls-1" d="M89.92,43.72a28.59,28.59,0,0,0-13.86-8A29.22,29.22,0,0,0,48.93,0,29.22,29.22,0,0,0,21.76,35.68,28.56,28.56,0,0,0,7.88,43.74a28.68,28.68,0,0,0,41,40.09,28.69,28.69,0,0,0,41-40.11Z"/><path d="M49,83.83c0,13.23,8.78,22.92,22,22.92h-22Z"/><path d="M48.89,83.83h0A28.69,28.69,0,1,0,76.06,35.68,29.22,29.22,0,0,0,48.93,0Z"/></symbol><symbol id="Queen" data-name="Queen" viewBox="0 0 98 104.5"><polygon class="cls-2" points="49 50.79 33 0 28 50 0 9 15.25 104.5 49 104.5 49 50.79"/><polygon class="cls-3" points="49 50.79 65 0 70 50 98 9 82.75 104.5 49 104.5 49 50.79"/><path class="cls-4" d="M34,99a6,6,0,0,1,0-12Z"/><path class="cls-5" d="M34,99a6,6,0,0,0,0-12Z"/><path class="cls-4" d="M65,99a6,6,0,0,1,0-12Z"/><path class="cls-5" d="M65,99a6,6,0,0,0,0-12Z"/></symbol></defs><path class="cls-1" d="M16.37,9.05a8.51,8.51,0,0,1,8.52,8.54A8.86,8.86,0,0,1,20.51,25l3,4.78a.45.45,0,0,1-.38.71H20a.44.44,0,0,1-.38-.24l-2.5-4.23c-.29,0-.57,0-.74,0a8.52,8.52,0,0,1,0-17Zm0,13.25a4.73,4.73,0,1,0-4.7-4.71A4.74,4.74,0,0,0,16.37,22.3Z"/><path class="cls-1" d="M163.63,243a8.51,8.51,0,0,1-8.52-8.54,8.86,8.86,0,0,1,4.38-7.45l-3.05-4.78a.45.45,0,0,1,.38-.71H160a.44.44,0,0,1,.38.24l2.5,4.23c.29,0,.57,0,.74,0a8.52,8.52,0,0,1,0,17Zm0-13.25a4.73,4.73,0,1,0,4.7,4.71A4.74,4.74,0,0,0,163.63,229.7Z"/><use width="97.82" height="106.75" transform="translate(5.54 31.53) scale(0.22)" xlink:href="#Club_2"/><use width="97.82" height="106.75" transform="translate(174.46 220.47) rotate(180) scale(0.22)" xlink:href="#Club_2"/><use width="98" height="104.5" transform="translate(42 73.75)" xlink:href="#Queen"/></svg>