<svg id="Layer_1" data-name="Layer 1" xmlns="http://www.w3.org/2000/svg" xmlns:xlink="http://www.w3.org/1999/xlink" viewBox="0 0 180 252"><defs><style>.cls-1{fill:#241f21;}.cls-2{fill:#e8e753;}.cls-3{fill:#e2dd24;}.cls-4{fill:#fff;}.cls-5{fill:#eee;}</style><symbol id="Club" data-name="Club" viewBox="0 0 97.82 106.75"><path class="cls-1" d="M49,83.83c0,13.23-8.84,22.92-22.07,22.92h22Z"/><path d="M49,83.83c0,13.23,8.78,22.92,22,22.92h-22Z"/><path class="cls-1" d="M48.89,83.83h0A28.68,28.68,0,1,1,21.76,35.68,29.22,29.22,0,0,1,48.93,0Z"/><path d="M48.89,83.83h0A28.69,28.69,0,1,0,76.06,35.68,29.22,29.22,0,0,0,48.93,0Z"/></symbol><symbol id="Jack" data-name="Jack" viewBox="0 0 91.62 55.5"><path class="cls-2" d="M45.81,0C25.06,0,7.15,9.59,0,23.13L11.62,55.5H45.81Z"/><path class="cls-3" d="M45.81,0C66.55,0,84.47,9.59,91.62,23.13L80,55.5H45.81Z"/><path class="cls-4" d="M46.12,45.67a6,6,0,1,1,0-12Z"/><path class="cls-5" d="M46.12,45.67a6,6,0,0,0,0-12Z"/></symbol></defs><use width="97.82" height="106.75" transform="translate(5.97 30.03) scale(0.24)" xlink:href="#Club"/><use width="97.82" height="106.75" transform="translate(176.72 220.97) rotate(180) scale(0.24)" xlink:href="#Club"/><use width="91.62" height="55.5" transform="translate(46.19 98.25)" xlink:href="#Jack"/><path class="cls-1" d="M11.12,23.76l1.6-1.58a.45.45,0,0,1,.64,0,1.51,1.51,0,0,0,1.21.5c.66,0,1.39-.62,1.39-1.8V9.74a.45.45,0,0,1,.45-.45H19.3a.45.45,0,0,1,.45.45V20.9a4.9,4.9,0,0,1-5.09,5.18,4.5,4.5,0,0,1-3.59-1.73A.48.48,0,0,1,11.12,23.76Z"/><path class="cls-1" d="M173.57,227.23,172,228.82a.44.44,0,0,1-.63,0,1.48,1.48,0,0,0-1.21-.5c-.66,0-1.4.62-1.4,1.8v11.14a.45.45,0,0,1-.44.45h-2.89a.45.45,0,0,1-.45-.45V230.09a4.91,4.91,0,0,1,5.09-5.18,4.52,4.52,0,0,1,3.59,1.73A.5.5,0,0,1,173.57,227.23Z"/></svg>