<svg id="Layer_1" data-name="Layer 1" xmlns="http://www.w3.org/2000/svg" xmlns:xlink="http://www.w3.org/1999/xlink" viewBox="0 0 180 252"><defs><style>.cls-1{fill:#241f21;}</style><symbol id="Club_2" data-name="Club 2" viewBox="0 0 97.82 106.75"><path class="cls-1" d="M49,83.83c0,13.23-8.84,22.92-22.07,22.92H71C57.74,106.75,49,97.06,49,83.83Z"/><path class="cls-1" d="M89.92,43.72a28.59,28.59,0,0,0-13.86-8A29.22,29.22,0,0,0,48.93,0,29.22,29.22,0,0,0,21.76,35.68,28.56,28.56,0,0,0,7.88,43.74a28.68,28.68,0,0,0,41,40.09,28.69,28.69,0,0,0,41-40.11Z"/><path d="M49,83.83c0,13.23,8.78,22.92,22,22.92h-22Z"/><path d="M48.89,83.83h0A28.69,28.69,0,1,0,76.06,35.68,29.22,29.22,0,0,0,48.93,0Z"/></symbol></defs><use width="97.82" height="106.75" transform="translate(38.26 45.76) scale(0.36)" xlink:href="#Club_2"/><use width="97.82" height="106.75" transform="translate(110.48 45.76) scale(0.36)" xlink:href="#Club_2"/><use width="97.82" height="106.75" transform="translate(145.74 206.24) rotate(180) scale(0.36)" xlink:href="#Club_2"/><use width="97.82" height="106.75" transform="translate(73.74 206.24) rotate(180) scale(0.36)" xlink:href="#Club_2"/><use width="97.82" height="106.75" transform="translate(73.93 108.82) scale(0.36)" xlink:href="#Club_2"/><path class="cls-1" d="M10.74,23.82l1.49-1.47a.45.45,0,0,1,.56-.07,6.82,6.82,0,0,0,2.82,1.14,2.19,2.19,0,0,0,2.25-2.25,2.25,2.25,0,0,0-2.44-2.3H11.78a.79.79,0,0,1-.74-.82V10.71a.45.45,0,0,1,.45-.44h7.62a.45.45,0,0,1,.45.44V12.8a.45.45,0,0,1-.45.45H14.24v2.53h1.68a5.15,5.15,0,0,1,5.39,5.39,5.61,5.61,0,0,1-5.84,5.41,6.27,6.27,0,0,1-4.69-2C10.48,24.27,10.45,24.1,10.74,23.82Z"/><path class="cls-1" d="M169.26,228.18l-1.49,1.47a.45.45,0,0,1-.56.07,6.82,6.82,0,0,0-2.82-1.14,2.19,2.19,0,0,0-2.25,2.25,2.25,2.25,0,0,0,2.44,2.3h3.64a.79.79,0,0,1,.74.82v7.34a.45.45,0,0,1-.45.44h-7.62a.45.45,0,0,1-.45-.44V239.2a.45.45,0,0,1,.45-.45h4.87v-2.53h-1.68a5.15,5.15,0,0,1-5.39-5.39,5.61,5.61,0,0,1,5.84-5.41,6.27,6.27,0,0,1,4.69,2C169.52,227.73,169.55,227.9,169.26,228.18Z"/><use width="97.82" height="106.75" transform="translate(5.54 31.53) scale(0.22)" xlink:href="#Club_2"/><use width="97.82" height="106.75" transform="translate(174.46 220.47) rotate(180) scale(0.22)" xlink:href="#Club_2"/></svg>