<svg id="Layer_1" data-name="Layer 1" xmlns="http://www.w3.org/2000/svg" xmlns:xlink="http://www.w3.org/1999/xlink" viewBox="0 0 180 252"><defs><style>.cls-1{fill:#241f21;}</style><symbol id="Club_2" data-name="Club 2" viewBox="0 0 97.82 106.75"><path class="cls-1" d="M49,83.83c0,13.23-8.84,22.92-22.07,22.92H71C57.74,106.75,49,97.06,49,83.83Z"/><path class="cls-1" d="M89.92,43.72a28.59,28.59,0,0,0-13.86-8A29.22,29.22,0,0,0,48.93,0,29.22,29.22,0,0,0,21.76,35.68,28.56,28.56,0,0,0,7.88,43.74a28.68,28.68,0,0,0,41,40.09,28.69,28.69,0,0,0,41-40.11Z"/><path d="M49,83.83c0,13.23,8.78,22.92,22,22.92h-22Z"/><path d="M48.89,83.83h0A28.69,28.69,0,1,0,76.06,35.68,29.22,29.22,0,0,0,48.93,0Z"/></symbol></defs><use width="97.82" height="106.75" transform="translate(38.04 45.76) scale(0.36)" xlink:href="#Club_2"/><use width="97.82" height="106.75" transform="translate(110.26 45.76) scale(0.36)" xlink:href="#Club_2"/><use width="97.82" height="106.75" transform="translate(145.52 206.24) rotate(180) scale(0.36)" xlink:href="#Club_2"/><use width="97.82" height="106.75" transform="translate(73.52 206.24) rotate(180) scale(0.36)" xlink:href="#Club_2"/><use width="97.82" height="106.75" transform="translate(38.26 106.65) scale(0.36)" xlink:href="#Club_2"/><use width="97.82" height="106.75" transform="translate(110.48 106.65) scale(0.36)" xlink:href="#Club_2"/><path class="cls-1" d="M18.38,9.74a.55.55,0,0,1,.73.38l.68,1.82c.1.29,0,.55-.44.69-1.12.35-4.26,1.44-4.76,3.88A6.86,6.86,0,0,1,16.84,16a4.75,4.75,0,0,1,4.71,5.13,5.44,5.44,0,0,1-5.42,5.41c-3.67,0-5.7-2.74-5.7-6.43C10.43,13.2,16.34,10.38,18.38,9.74Zm-2.3,13.58a2.28,2.28,0,1,0-2.27-2.27A2.28,2.28,0,0,0,16.08,23.32Z"/><path class="cls-1" d="M161.62,242.26a.55.55,0,0,1-.73-.38l-.68-1.82c-.1-.29,0-.55.44-.69,1.12-.35,4.26-1.44,4.76-3.88a6.86,6.86,0,0,1-2.25.47,4.75,4.75,0,0,1-4.71-5.13,5.44,5.44,0,0,1,5.42-5.41c3.67,0,5.7,2.74,5.7,6.43C169.57,238.8,163.66,241.62,161.62,242.26Zm2.3-13.58a2.28,2.28,0,1,0,2.27,2.27A2.28,2.28,0,0,0,163.92,228.68Z"/><use width="97.82" height="106.75" transform="translate(5.54 31.53) scale(0.22)" xlink:href="#Club_2"/><use width="97.82" height="106.75" transform="translate(174.46 220.47) rotate(180) scale(0.22)" xlink:href="#Club_2"/></svg>