<svg id="Layer_1" data-name="Layer 1" xmlns="http://www.w3.org/2000/svg" xmlns:xlink="http://www.w3.org/1999/xlink" viewBox="0 0 180 252"><defs><style>.cls-1{fill:#241f21;}</style><symbol id="Club_2" data-name="Club 2" viewBox="0 0 97.82 106.75"><path class="cls-1" d="M49,83.83c0,13.23-8.84,22.92-22.07,22.92H71C57.74,106.75,49,97.06,49,83.83Z"/><path class="cls-1" d="M89.92,43.72a28.59,28.59,0,0,0-13.86-8A29.22,29.22,0,0,0,48.93,0,29.22,29.22,0,0,0,21.76,35.68,28.56,28.56,0,0,0,7.88,43.74a28.68,28.68,0,0,0,41,40.09,28.69,28.69,0,0,0,41-40.11Z"/><path d="M49,83.83c0,13.23,8.78,22.92,22,22.92h-22Z"/><path d="M48.89,83.83h0A28.69,28.69,0,1,0,76.06,35.68,29.22,29.22,0,0,0,48.93,0Z"/></symbol></defs><use width="97.82" height="106.75" transform="translate(74.37 61.64) scale(0.36)" xlink:href="#Club_2"/><use width="97.82" height="106.75" transform="translate(109.4 190.36) rotate(180) scale(0.36 0.36)" xlink:href="#Club_2"/><path class="cls-1" d="M10.6,25.43c1.37-1.8,4.87-6.56,6.27-8.68a3.58,3.58,0,0,0,.61-1.8c0-.9-.76-1.7-2.08-1.7a3.38,3.38,0,0,0-2.3,1.18.45.45,0,0,1-.66,0L11,13a.43.43,0,0,1,0-.61A6.78,6.78,0,0,1,15.71,10c3.38,0,5.37,2.15,5.37,4.78a6,6,0,0,1-.93,3.07c-.75,1.35-2.69,3.88-3.81,5.44h4.17a.47.47,0,0,1,.45.45V25.9a.47.47,0,0,1-.45.45H11.05a.45.45,0,0,1-.45-.45Z"/><path class="cls-1" d="M169.4,226.57c-1.37,1.8-4.87,6.56-6.27,8.68a3.58,3.58,0,0,0-.61,1.8c0,.9.76,1.7,2.08,1.7a3.38,3.38,0,0,0,2.3-1.18.45.45,0,0,1,.66,0L169,239a.43.43,0,0,1,0,.61,6.78,6.78,0,0,1-4.73,2.32c-3.38,0-5.37-2.15-5.37-4.78a6,6,0,0,1,.93-3.07c.75-1.35,2.69-3.88,3.81-5.44h-4.17a.47.47,0,0,1-.45-.45V226.1a.47.47,0,0,1,.45-.45H169a.45.45,0,0,1,.45.45Z"/><use width="97.82" height="106.75" transform="translate(5.54 31.53) scale(0.22)" xlink:href="#Club_2"/><use width="97.82" height="106.75" transform="translate(174.46 220.47) rotate(180) scale(0.22)" xlink:href="#Club_2"/></svg>