<svg id="Layer_1" data-name="Layer 1" xmlns="http://www.w3.org/2000/svg" xmlns:xlink="http://www.w3.org/1999/xlink" viewBox="0 0 180 252"><defs><style>.cls-1{fill:#241f21;}</style><symbol id="Club_2" data-name="Club 2" viewBox="0 0 97.82 106.75"><path class="cls-1" d="M49,83.83c0,13.23-8.84,22.92-22.07,22.92H71C57.74,106.75,49,97.06,49,83.83Z"/><path class="cls-1" d="M89.92,43.72a28.59,28.59,0,0,0-13.86-8A29.22,29.22,0,0,0,48.93,0,29.22,29.22,0,0,0,21.76,35.68,28.56,28.56,0,0,0,7.88,43.74a28.68,28.68,0,0,0,41,40.09,28.69,28.69,0,0,0,41-40.11Z"/><path d="M49,83.83c0,13.23,8.78,22.92,22,22.92h-22Z"/><path d="M48.89,83.83h0A28.69,28.69,0,1,0,76.06,35.68,29.22,29.22,0,0,0,48.93,0Z"/></symbol></defs><use width="97.82" height="106.75" transform="translate(38.26 71.26) scale(0.36)" xlink:href="#Club_2"/><use width="97.82" height="106.75" transform="translate(110.48 71.26) scale(0.36)" xlink:href="#Club_2"/><use width="97.82" height="106.75" transform="translate(145.74 180.74) rotate(180) scale(0.36)" xlink:href="#Club_2"/><use width="97.82" height="106.75" transform="translate(73.74 180.74) rotate(180) scale(0.36)" xlink:href="#Club_2"/><path class="cls-1" d="M9.39,22.56v-2.5l8.25-9.91A.41.41,0,0,1,18,10H19.7a.45.45,0,0,1,.45.45l0,9.7H22a.43.43,0,0,1,.45.43v2A.45.45,0,0,1,22,23H20.17l0,2.91a.47.47,0,0,1-.45.45H17.21a.48.48,0,0,1-.45-.45V23H9.83A.44.44,0,0,1,9.39,22.56Zm7.47-2.48v-4.4l-3.76,4.4Z"/><path class="cls-1" d="M170.61,229.44v2.5l-8.25,9.91a.41.41,0,0,1-.35.15H160.3a.45.45,0,0,1-.45-.45l0-9.7H158a.43.43,0,0,1-.45-.43v-2A.45.45,0,0,1,158,229h1.87l0-2.91a.47.47,0,0,1,.45-.45h2.53a.48.48,0,0,1,.45.45V229h6.93A.44.44,0,0,1,170.61,229.44Zm-7.47,2.48v4.4l3.76-4.4Z"/><use width="97.82" height="106.75" transform="translate(5.54 31.53) scale(0.22)" xlink:href="#Club_2"/><use width="97.82" height="106.75" transform="translate(174.46 220.47) rotate(180) scale(0.22)" xlink:href="#Club_2"/></svg>