<svg id="Layer_1" data-name="Layer 1" xmlns="http://www.w3.org/2000/svg" xmlns:xlink="http://www.w3.org/1999/xlink" viewBox="0 0 180 252"><defs><style>.cls-1{fill:#241f21;}</style><symbol id="Club" data-name="Club" viewBox="0 0 97.82 106.75"><path class="cls-1" d="M49,83.83c0,13.23-8.84,22.92-22.07,22.92h22Z"/><path d="M49,83.83c0,13.23,8.78,22.92,22,22.92h-22Z"/><path class="cls-1" d="M48.89,83.83h0A28.68,28.68,0,1,1,21.76,35.68,29.22,29.22,0,0,1,48.93,0Z"/><path d="M48.89,83.83h0A28.69,28.69,0,1,0,76.06,35.68,29.22,29.22,0,0,0,48.93,0Z"/></symbol><symbol id="Club_medium" data-name="Club medium" viewBox="0 0 34.49 37.64"><use width="97.82" height="106.75" transform="scale(0.35)" xlink:href="#Club"/></symbol></defs><use width="97.82" height="106.75" transform="translate(5.52 29.03) scale(0.24)" xlink:href="#Club"/><use width="97.82" height="106.75" transform="translate(176.28 219.97) rotate(180) scale(0.24)" xlink:href="#Club"/><use width="34.49" height="37.64" transform="translate(38.64 71.68)" xlink:href="#Club_medium"/><use width="34.49" height="37.64" transform="translate(110.87 71.68)" xlink:href="#Club_medium"/><use width="34.49" height="37.64" transform="translate(145.36 180.32) rotate(180)" xlink:href="#Club_medium"/><use width="34.49" height="37.64" transform="translate(73.36 180.32) rotate(180)" xlink:href="#Club_medium"/><path class="cls-1" d="M11.29,21.06V18.55l8.25-9.91a.41.41,0,0,1,.35-.14H21.6a.45.45,0,0,1,.45.45l0,9.7h1.87a.43.43,0,0,1,.45.42v2a.45.45,0,0,1-.45.45H22.07l0,2.91a.47.47,0,0,1-.45.45H19.11a.48.48,0,0,1-.45-.45V21.51H11.73A.44.44,0,0,1,11.29,21.06Zm7.47-2.48v-4.4L15,18.58Z"/><path class="cls-1" d="M172.52,227.93v2.51l-8.26,9.91a.41.41,0,0,1-.35.14H162.2a.45.45,0,0,1-.45-.45l0-9.69h-1.87a.43.43,0,0,1-.45-.43v-2a.45.45,0,0,1,.45-.45h1.87l0-2.91a.46.46,0,0,1,.45-.45h2.53a.47.47,0,0,1,.45.45v2.88h6.93A.45.45,0,0,1,172.52,227.93ZM165,230.42v4.4l3.76-4.4Z"/></svg>