<svg id="Layer_1" data-name="Layer 1" xmlns="http://www.w3.org/2000/svg" xmlns:xlink="http://www.w3.org/1999/xlink" viewBox="0 0 180 252"><defs><style>.cls-1{fill:#e51e26;}.cls-2{fill:#ed2025;}.cls-3{fill:#ec2327;}</style><symbol id="Diamond" data-name="Diamond" viewBox="0 0 83.59 107"><polygon class="cls-1" points="41.8 0 41.8 107 83.59 53.5 41.8 0"/><polygon class="cls-2" points="41.8 0 41.8 107 0 53.5 41.8 0"/></symbol><symbol id="Diamond_medium" data-name="Diamond medium" viewBox="0 0 34.28 43.88"><use width="83.59" height="107" transform="scale(0.41)" xlink:href="#Diamond"/></symbol></defs><use width="83.59" height="107" transform="translate(7.59 29.39) scale(0.24)" xlink:href="#Diamond"/><use width="83.59" height="107" transform="translate(174.99 220.39) rotate(180) scale(0.24)" xlink:href="#Diamond"/><use width="34.28" height="43.88" transform="translate(74.86 58.94)" xlink:href="#Diamond_medium"/><use width="34.28" height="43.88" transform="translate(108.92 193.06) rotate(180) scale(0.99 1)" xlink:href="#Diamond_medium"/><path class="cls-3" d="M11.89,24.31c1.37-1.8,4.87-6.55,6.26-8.68a3.44,3.44,0,0,0,.62-1.8,1.85,1.85,0,0,0-2.08-1.7,3.42,3.42,0,0,0-2.3,1.18.45.45,0,0,1-.66,0l-1.44-1.46a.44.44,0,0,1,0-.62A6.79,6.79,0,0,1,17,8.92c3.38,0,5.36,2.15,5.36,4.77a6,6,0,0,1-.92,3.08c-.75,1.35-2.69,3.88-3.81,5.44H21.8a.47.47,0,0,1,.45.45v2.13a.47.47,0,0,1-.45.44H12.34a.45.45,0,0,1-.45-.44Z"/><path class="cls-3" d="M172.69,225.46c-1.37,1.8-4.87,6.55-6.27,8.68a3.55,3.55,0,0,0-.61,1.8c0,.9.76,1.7,2.08,1.7a3.35,3.35,0,0,0,2.29-1.18.47.47,0,0,1,.67,0l1.44,1.47a.44.44,0,0,1,0,.61,6.78,6.78,0,0,1-4.73,2.32c-3.38,0-5.37-2.15-5.37-4.78a6,6,0,0,1,.93-3.07c.75-1.35,2.69-3.88,3.8-5.44h-4.16a.47.47,0,0,1-.45-.45V225a.46.46,0,0,1,.45-.45h9.46a.45.45,0,0,1,.45.45Z"/></svg>