<svg id="Layer_1" data-name="Layer 1" xmlns="http://www.w3.org/2000/svg" xmlns:xlink="http://www.w3.org/1999/xlink" viewBox="0 0 180 252"><defs><style>.cls-1{fill:#ed2025;}.cls-2{fill:#d62037;}.cls-3{fill:#ec2327;}</style><symbol id="Diamond-2" data-name="Diamond-2" viewBox="0 0 83.59 107"><polygon class="cls-1" points="41.8 0 0 53.5 41.8 107 83.59 53.5 41.8 0"/><polygon class="cls-2" points="41.8 0 41.8 107 83.59 53.5 41.8 0"/></symbol></defs><use width="83.59" height="107" transform="translate(39.04 30.07) scale(0.4)" xlink:href="#Diamond-2"/><use width="83.59" height="107" transform="translate(111.26 30.07) scale(0.4)" xlink:href="#Diamond-2"/><use width="83.59" height="107" transform="translate(144.74 221.93) rotate(180) scale(0.4)" xlink:href="#Diamond-2"/><use width="83.59" height="107" transform="translate(72.74 221.93) rotate(180) scale(0.4)" xlink:href="#Diamond-2"/><use width="83.59" height="107" transform="translate(39.26 79.96) scale(0.4)" xlink:href="#Diamond-2"/><use width="83.59" height="107" transform="translate(111.48 79.96) scale(0.4)" xlink:href="#Diamond-2"/><use width="83.59" height="107" transform="translate(39.09 129.46) scale(0.4)" xlink:href="#Diamond-2"/><use width="83.59" height="107" transform="translate(111.09 129.46) scale(0.4)" xlink:href="#Diamond-2"/><use width="83.59" height="107" transform="translate(75.09 104.46) scale(0.4)" xlink:href="#Diamond-2"/><path class="cls-3" d="M13,23.84c1.12-.35,4.26-1.44,4.76-3.88a6.86,6.86,0,0,1-2.25.47,4.75,4.75,0,0,1-4.71-5.13,5.44,5.44,0,0,1,5.42-5.41c3.67,0,5.7,2.74,5.7,6.43,0,7-5.77,9.77-7.95,10.41a.56.56,0,0,1-.73-.38l-.69-1.82C12.42,24.24,12.49,24,13,23.84Zm5.54-8.42a2.27,2.27,0,1,0-2.27,2.29A2.29,2.29,0,0,0,18.5,15.42Z"/><path class="cls-3" d="M167,228.16c-1.11.35-4.26,1.44-4.76,3.88a6.86,6.86,0,0,1,2.25-.47,4.75,4.75,0,0,1,4.71,5.13,5.44,5.44,0,0,1-5.42,5.41c-3.67,0-5.7-2.74-5.7-6.43,0-7,5.77-9.77,7.95-10.41a.56.56,0,0,1,.73.38l.69,1.82C167.58,227.76,167.51,228,167,228.16Zm-5.54,8.42a2.27,2.27,0,1,0,2.27-2.29A2.29,2.29,0,0,0,161.5,236.58Z"/><use width="83.59" height="107" transform="translate(6.3 30.5) scale(0.24)" xlink:href="#Diamond-2"/><use width="83.59" height="107" transform="translate(173.7 221.5) rotate(180) scale(0.24)" xlink:href="#Diamond-2"/></svg>