<svg id="Layer_1" data-name="Layer 1" xmlns="http://www.w3.org/2000/svg" xmlns:xlink="http://www.w3.org/1999/xlink" viewBox="0 0 180 252"><defs><style>.cls-1{fill:#ed2025;}.cls-2{fill:#d62037;}.cls-3{fill:#ec2327;}</style><symbol id="Diamond-2" data-name="Diamond-2" viewBox="0 0 83.59 107"><polygon class="cls-1" points="41.8 0 0 53.5 41.8 107 83.59 53.5 41.8 0"/><polygon class="cls-2" points="41.8 0 41.8 107 83.59 53.5 41.8 0"/></symbol></defs><use width="83.59" height="107" transform="translate(38.93 43.57) scale(0.4)" xlink:href="#Diamond-2"/><use width="83.59" height="107" transform="translate(111.15 43.57) scale(0.4)" xlink:href="#Diamond-2"/><use width="83.59" height="107" transform="translate(144.63 208.43) rotate(180) scale(0.4)" xlink:href="#Diamond-2"/><use width="83.59" height="107" transform="translate(72.63 208.43) rotate(180) scale(0.4)" xlink:href="#Diamond-2"/><use width="83.59" height="107" transform="translate(39.15 104.46) scale(0.4)" xlink:href="#Diamond-2"/><use width="83.59" height="107" transform="translate(111.37 104.46) scale(0.4)" xlink:href="#Diamond-2"/><path class="cls-3" d="M18.38,9.74a.55.55,0,0,1,.73.38l.68,1.82c.1.29,0,.55-.44.69-1.12.35-4.26,1.44-4.76,3.88A6.86,6.86,0,0,1,16.84,16a4.75,4.75,0,0,1,4.71,5.13,5.44,5.44,0,0,1-5.42,5.41c-3.67,0-5.7-2.74-5.7-6.43C10.43,13.2,16.34,10.38,18.38,9.74Zm-2.3,13.58a2.28,2.28,0,1,0-2.27-2.27A2.28,2.28,0,0,0,16.08,23.32Z"/><path class="cls-3" d="M161.62,242.26a.55.55,0,0,1-.73-.38l-.68-1.82c-.1-.29,0-.55.44-.69,1.12-.35,4.26-1.44,4.76-3.88a6.86,6.86,0,0,1-2.25.47,4.75,4.75,0,0,1-4.71-5.13,5.44,5.44,0,0,1,5.42-5.41c3.67,0,5.7,2.74,5.7,6.43C169.57,238.8,163.66,241.62,161.62,242.26Zm2.3-13.58a2.28,2.28,0,1,0,2.27,2.27A2.28,2.28,0,0,0,163.92,228.68Z"/><use width="83.59" height="107" transform="translate(6.3 30.5) scale(0.24)" xlink:href="#Diamond-2"/><use width="83.59" height="107" transform="translate(173.7 221.5) rotate(180) scale(0.24)" xlink:href="#Diamond-2"/></svg>