<svg id="Layer_1" data-name="Layer 1" xmlns="http://www.w3.org/2000/svg" xmlns:xlink="http://www.w3.org/1999/xlink" viewBox="0 0 180 252"><defs><style>.cls-1{fill:#ed2025;}.cls-2{fill:#d62037;}.cls-3{fill:#ec2327;}</style><symbol id="Diamond-2" data-name="Diamond-2" viewBox="0 0 83.59 107"><polygon class="cls-1" points="41.8 0 0 53.5 41.8 107 83.59 53.5 41.8 0"/><polygon class="cls-2" points="41.8 0 41.8 107 83.59 53.5 41.8 0"/></symbol></defs><use width="83.59" height="107" transform="translate(47.79 69.41) scale(1.06)" xlink:href="#Diamond-2"/><path class="cls-3" d="M8,25.73l7.4-15.91a.47.47,0,0,1,.4-.26H16a.45.45,0,0,1,.4.26l7.41,15.91a.42.42,0,0,1-.41.62H20.78c-.43,0-.62-.14-.83-.59l-.85-1.87H12.67l-.86,1.89a.87.87,0,0,1-.85.57H8.36A.42.42,0,0,1,8,25.73Zm9.72-5.06-1.8-3.9h0l-1.77,3.9Z"/><path class="cls-3" d="M172,226.27l-7.4,15.91a.47.47,0,0,1-.4.26H164a.45.45,0,0,1-.4-.26l-7.41-15.91a.42.42,0,0,1,.41-.62h2.62c.43,0,.62.14.83.59l.85,1.87h6.43l.86-1.89a.87.87,0,0,1,.85-.57h2.6A.42.42,0,0,1,172,226.27Zm-9.72,5.06,1.8,3.9h0l1.77-3.9Z"/><use width="83.59" height="107" transform="translate(6.3 30.5) scale(0.24)" xlink:href="#Diamond-2"/><use width="83.59" height="107" transform="translate(173.7 221.5) rotate(180) scale(0.24)" xlink:href="#Diamond-2"/></svg>