<svg id="Layer_1" data-name="Layer 1" xmlns="http://www.w3.org/2000/svg" xmlns:xlink="http://www.w3.org/1999/xlink" viewBox="0 0 180 252"><defs><style>.cls-1{fill:#e51e26;}.cls-2{fill:#ed2025;}.cls-3{fill:#ec2327;}</style><symbol id="Diamond" data-name="Diamond" viewBox="0 0 83.59 107"><polygon class="cls-1" points="41.8 0 41.8 107 83.59 53.5 41.8 0"/><polygon class="cls-2" points="41.8 0 41.8 107 0 53.5 41.8 0"/></symbol><symbol id="Diamond_medium" data-name="Diamond medium" viewBox="0 0 34.28 43.88"><use width="83.59" height="107" transform="scale(0.41)" xlink:href="#Diamond"/></symbol></defs><use width="83.59" height="107" transform="translate(6.97 29.78) scale(0.24)" xlink:href="#Diamond"/><use width="83.59" height="107" transform="translate(174.38 220.77) rotate(180) scale(0.24)" xlink:href="#Diamond"/><use width="34.28" height="43.88" transform="translate(38.53 43.06)" xlink:href="#Diamond_medium"/><use width="34.28" height="43.88" transform="translate(110.75 43.06)" xlink:href="#Diamond_medium"/><use width="34.28" height="43.88" transform="translate(145.03 208.94) rotate(180)" xlink:href="#Diamond_medium"/><use width="34.28" height="43.88" transform="translate(73.03 208.94) rotate(180)" xlink:href="#Diamond_medium"/><use width="34.28" height="43.88" transform="translate(38.75 103.95)" xlink:href="#Diamond_medium"/><use width="34.28" height="43.88" transform="translate(110.97 103.95)" xlink:href="#Diamond_medium"/><path class="cls-3" d="M19.55,9a.55.55,0,0,1,.74.38L21,11.22c.1.28,0,.54-.45.69-1.11.35-4.25,1.44-4.75,3.87A6.81,6.81,0,0,1,18,15.31a4.75,4.75,0,0,1,4.7,5.13,5.45,5.45,0,0,1-5.41,5.42c-3.67,0-5.7-2.74-5.7-6.43C11.61,12.47,17.52,9.66,19.55,9ZM17.26,22.6A2.29,2.29,0,1,0,15,20.33,2.29,2.29,0,0,0,17.26,22.6Z"/><path class="cls-3" d="M163.8,241.53a.54.54,0,0,1-.73-.38l-.69-1.82c-.09-.28,0-.54.45-.68,1.11-.36,4.26-1.45,4.76-3.88a6.86,6.86,0,0,1-2.25.47,4.75,4.75,0,0,1-4.71-5.13,5.45,5.45,0,0,1,5.42-5.42c3.66,0,5.7,2.75,5.7,6.43C171.75,238.08,165.84,240.89,163.8,241.53ZM166.1,228a2.28,2.28,0,1,0,2.27,2.27A2.28,2.28,0,0,0,166.1,228Z"/></svg>