<svg id="Layer_1" data-name="Layer 1" xmlns="http://www.w3.org/2000/svg" xmlns:xlink="http://www.w3.org/1999/xlink" viewBox="0 0 180 252"><defs><style>.cls-1{fill:#ed2025;}.cls-2{fill:#d62037;}.cls-3{fill:#ec2327;}</style><symbol id="Diamond-2" data-name="Diamond-2" viewBox="0 0 83.59 107"><polygon class="cls-1" points="41.8 0 0 53.5 41.8 107 83.59 53.5 41.8 0"/><polygon class="cls-2" points="41.8 0 41.8 107 83.59 53.5 41.8 0"/></symbol></defs><use width="83.59" height="107" transform="translate(39.15 69.07) scale(0.4)" xlink:href="#Diamond-2"/><use width="83.59" height="107" transform="translate(111.37 69.07) scale(0.4)" xlink:href="#Diamond-2"/><use width="83.59" height="107" transform="translate(144.85 182.93) rotate(180) scale(0.4)" xlink:href="#Diamond-2"/><use width="83.59" height="107" transform="translate(72.85 182.93) rotate(180) scale(0.4)" xlink:href="#Diamond-2"/><path class="cls-3" d="M9.39,22.56v-2.5l8.25-9.91A.41.41,0,0,1,18,10H19.7a.45.45,0,0,1,.45.45l0,9.7H22a.43.43,0,0,1,.45.43v2A.45.45,0,0,1,22,23H20.17l0,2.91a.47.47,0,0,1-.45.45H17.21a.48.48,0,0,1-.45-.45V23H9.83A.44.44,0,0,1,9.39,22.56Zm7.47-2.48v-4.4l-3.76,4.4Z"/><path class="cls-3" d="M170.61,229.44v2.5l-8.25,9.91a.41.41,0,0,1-.35.15H160.3a.45.45,0,0,1-.45-.45l0-9.7H158a.43.43,0,0,1-.45-.43v-2A.45.45,0,0,1,158,229h1.87l0-2.91a.47.47,0,0,1,.45-.45h2.53a.48.48,0,0,1,.45.45V229h6.93A.44.44,0,0,1,170.61,229.44Zm-7.47,2.48v4.4l3.76-4.4Z"/><use width="83.59" height="107" transform="translate(6.3 30.5) scale(0.24)" xlink:href="#Diamond-2"/><use width="83.59" height="107" transform="translate(173.7 221.5) rotate(180) scale(0.24)" xlink:href="#Diamond-2"/></svg>