<svg id="Layer_1" data-name="Layer 1" xmlns="http://www.w3.org/2000/svg" xmlns:xlink="http://www.w3.org/1999/xlink" viewBox="0 0 180 252"><defs><style>.cls-1{fill:#ed2025;}.cls-2{fill:#d62037;}.cls-3{fill:#ec2327;}</style><symbol id="Diamond-2" data-name="Diamond-2" viewBox="0 0 83.59 107"><polygon class="cls-1" points="41.8 0 0 53.5 41.8 107 83.59 53.5 41.8 0"/><polygon class="cls-2" points="41.8 0 41.8 107 83.59 53.5 41.8 0"/></symbol></defs><use width="83.59" height="107" transform="translate(39.15 43.57) scale(0.4)" xlink:href="#Diamond-2"/><use width="83.59" height="107" transform="translate(111.37 43.57) scale(0.4)" xlink:href="#Diamond-2"/><use width="83.59" height="107" transform="translate(144.85 208.43) rotate(180) scale(0.4)" xlink:href="#Diamond-2"/><use width="83.59" height="107" transform="translate(72.85 208.43) rotate(180) scale(0.4)" xlink:href="#Diamond-2"/><use width="83.59" height="107" transform="translate(74.82 106.63) scale(0.4)" xlink:href="#Diamond-2"/><path class="cls-3" d="M10.74,23.82l1.49-1.47a.45.45,0,0,1,.56-.07,6.82,6.82,0,0,0,2.82,1.14,2.19,2.19,0,0,0,2.25-2.25,2.25,2.25,0,0,0-2.44-2.3H11.78a.79.79,0,0,1-.74-.82V10.71a.45.45,0,0,1,.45-.44h7.62a.45.45,0,0,1,.45.44V12.8a.45.45,0,0,1-.45.45H14.24v2.53h1.68a5.15,5.15,0,0,1,5.39,5.39,5.61,5.61,0,0,1-5.84,5.41,6.27,6.27,0,0,1-4.69-2C10.48,24.27,10.45,24.1,10.74,23.82Z"/><path class="cls-3" d="M169.26,228.18l-1.49,1.47a.45.45,0,0,1-.56.07,6.82,6.82,0,0,0-2.82-1.14,2.19,2.19,0,0,0-2.25,2.25,2.25,2.25,0,0,0,2.44,2.3h3.64a.79.79,0,0,1,.74.82v7.34a.45.45,0,0,1-.45.44h-7.62a.45.45,0,0,1-.45-.44V239.2a.45.45,0,0,1,.45-.45h4.87v-2.53h-1.68a5.15,5.15,0,0,1-5.39-5.39,5.61,5.61,0,0,1,5.84-5.41,6.27,6.27,0,0,1,4.69,2C169.52,227.73,169.55,227.9,169.26,228.18Z"/><use width="83.59" height="107" transform="translate(6.3 30.5) scale(0.24)" xlink:href="#Diamond-2"/><use width="83.59" height="107" transform="translate(173.7 221.5) rotate(180) scale(0.24)" xlink:href="#Diamond-2"/></svg>