<svg id="Layer_1" data-name="Layer 1" xmlns="http://www.w3.org/2000/svg" xmlns:xlink="http://www.w3.org/1999/xlink" viewBox="0 0 180 252"><defs><style>.cls-1{fill:#ed2025;}.cls-2{fill:#d62037;}.cls-3{fill:#ec2327;}</style><symbol id="Diamond-2" data-name="Diamond-2" viewBox="0 0 83.59 107"><polygon class="cls-1" points="41.8 0 0 53.5 41.8 107 83.59 53.5 41.8 0"/><polygon class="cls-2" points="41.8 0 41.8 107 83.59 53.5 41.8 0"/></symbol></defs><use width="83.59" height="107" transform="translate(38.65 30.68) scale(0.4)" xlink:href="#Diamond-2"/><use width="83.59" height="107" transform="translate(110.87 30.68) scale(0.4)" xlink:href="#Diamond-2"/><use width="83.59" height="107" transform="translate(144.35 222.54) rotate(180) scale(0.4)" xlink:href="#Diamond-2"/><use width="83.59" height="107" transform="translate(72.35 222.54) rotate(180) scale(0.4)" xlink:href="#Diamond-2"/><use width="83.59" height="107" transform="translate(38.87 80.57) scale(0.4)" xlink:href="#Diamond-2"/><use width="83.59" height="107" transform="translate(111.09 80.57) scale(0.4)" xlink:href="#Diamond-2"/><use width="83.59" height="107" transform="translate(38.7 130.07) scale(0.4)" xlink:href="#Diamond-2"/><use width="83.59" height="107" transform="translate(110.7 130.07) scale(0.4)" xlink:href="#Diamond-2"/><use width="83.59" height="107" transform="translate(74.7 56.07) scale(0.4)" xlink:href="#Diamond-2"/><use width="83.59" height="107" transform="translate(108.16 197.43) rotate(180) scale(0.4)" xlink:href="#Diamond-2"/><path class="cls-3" d="M8.84,15.25H6.57a.43.43,0,0,1-.42-.44V13.32A.67.67,0,0,1,6.29,13l3.45-2.7h2.18a.45.45,0,0,1,.42.45V25.9a.45.45,0,0,1-.42.45H9.29a.45.45,0,0,1-.45-.45Z"/><path class="cls-3" d="M13.83,18.31c0-5.18,2.2-8.28,6.06-8.28s6.05,3.1,6.05,8.28-2.2,8.27-6.05,8.27S13.83,23.49,13.83,18.31Zm8.31,0c0-3.1-.81-4.85-2.25-4.85s-2.25,1.75-2.25,4.85.81,4.84,2.25,4.84S22.14,21.43,22.14,18.31Z"/><path class="cls-3" d="M171.16,236.75h2.27a.43.43,0,0,1,.42.44v1.49a.67.67,0,0,1-.14.36l-3.45,2.7h-2.18a.45.45,0,0,1-.42-.45V226.1a.45.45,0,0,1,.42-.45h2.63a.45.45,0,0,1,.45.45Z"/><path class="cls-3" d="M166.64,233.69c0,5.18-2.2,8.28-6.06,8.28s-6.05-3.1-6.05-8.28,2.2-8.27,6.05-8.27S166.64,228.51,166.64,233.69Zm-8.3,0c0,3.1.8,4.85,2.24,4.85s2.25-1.75,2.25-4.85-.8-4.84-2.25-4.84S158.34,230.57,158.34,233.69Z"/><use width="83.59" height="107" transform="translate(6.3 30.5) scale(0.24)" xlink:href="#Diamond-2"/><use width="83.59" height="107" transform="translate(173.7 221.5) rotate(180) scale(0.24)" xlink:href="#Diamond-2"/></svg>