<svg id="Layer_1" data-name="Layer 1" xmlns="http://www.w3.org/2000/svg" xmlns:xlink="http://www.w3.org/1999/xlink" viewBox="0 0 180 252"><defs><style>.cls-1{fill:#e51e26;}.cls-2{fill:#ed2025;}.cls-3{fill:#ec2327;}</style><symbol id="Diamond" data-name="Diamond" viewBox="0 0 83.59 107"><polygon class="cls-1" points="41.8 0 41.8 107 83.59 53.5 41.8 0"/><polygon class="cls-2" points="41.8 0 41.8 107 0 53.5 41.8 0"/></symbol><symbol id="Diamond_medium" data-name="Diamond medium" viewBox="0 0 34.28 43.88"><use width="83.59" height="107" transform="scale(0.41)" xlink:href="#Diamond"/></symbol></defs><use width="83.59" height="107" transform="translate(7.25 29.39) scale(0.24)" xlink:href="#Diamond"/><use width="83.59" height="107" transform="translate(174.66 220.39) rotate(180) scale(0.24)" xlink:href="#Diamond"/><use width="34.28" height="43.88" transform="translate(38.64 29.56)" xlink:href="#Diamond_medium"/><use width="34.28" height="43.88" transform="translate(110.86 29.56)" xlink:href="#Diamond_medium"/><use width="34.28" height="43.88" transform="translate(145.14 222.44) rotate(180)" xlink:href="#Diamond_medium"/><use width="34.28" height="43.88" transform="translate(73.14 222.44) rotate(180)" xlink:href="#Diamond_medium"/><use width="34.28" height="43.88" transform="translate(38.86 79.45)" xlink:href="#Diamond_medium"/><use width="34.28" height="43.88" transform="translate(111.08 79.45)" xlink:href="#Diamond_medium"/><use width="34.28" height="43.88" transform="translate(38.69 128.95)" xlink:href="#Diamond_medium"/><use width="34.28" height="43.88" transform="translate(110.69 128.95)" xlink:href="#Diamond_medium"/><use width="34.28" height="43.88" transform="translate(74.69 103.95)" xlink:href="#Diamond_medium"/><path class="cls-3" d="M13.92,22.73c1.11-.36,4.26-1.45,4.75-3.88a6.8,6.8,0,0,1-2.24.47,4.75,4.75,0,0,1-4.71-5.13,5.45,5.45,0,0,1,5.41-5.42c3.67,0,5.71,2.75,5.71,6.44,0,7-5.78,9.76-7.95,10.4a.54.54,0,0,1-.73-.38l-.69-1.82C13.38,23.13,13.45,22.87,13.92,22.73Zm5.53-8.42a2.27,2.27,0,1,0-2.27,2.29A2.28,2.28,0,0,0,19.45,14.31Z"/><path class="cls-3" d="M170,227.05c-1.11.35-4.26,1.44-4.75,3.88a6.82,6.82,0,0,1,2.24-.48,4.75,4.75,0,0,1,4.71,5.13,5.45,5.45,0,0,1-5.41,5.42c-3.67,0-5.7-2.74-5.7-6.43,0-7,5.77-9.77,7.94-10.41a.57.57,0,0,1,.74.38l.68,1.82C170.54,226.64,170.46,226.9,170,227.05Zm-5.53,8.42a2.27,2.27,0,1,0,2.27-2.3A2.28,2.28,0,0,0,164.46,235.47Z"/></svg>