<svg id="Layer_1" data-name="Layer 1" xmlns="http://www.w3.org/2000/svg" xmlns:xlink="http://www.w3.org/1999/xlink" viewBox="0 0 180 252"><defs><style>.cls-1{fill:#e51e26;}.cls-2{fill:#ed2025;}.cls-3{fill:#e8e751;}.cls-4{fill:#e2dd24;}.cls-5{fill:#fff;}.cls-6{fill:#eee;}.cls-7{fill:none;}.cls-8{fill:#ec2327;}</style><symbol id="Diamond" data-name="Diamond" viewBox="0 0 83.59 107"><polygon class="cls-1" points="41.8 0 41.8 107 83.59 53.5 41.8 0"/><polygon class="cls-2" points="41.8 0 41.8 107 0 53.5 41.8 0"/></symbol><symbol id="King" data-name="King" viewBox="0 0 108 104.17"><polygon class="cls-3" points="53.75 0 32.5 42.17 0 22.67 20.5 104.17 53.75 104.17 53.75 0"/><polygon class="cls-4" points="53.75 0 75 42.17 108 22.67 87 104.17 53.75 104.17 53.75 0"/><path class="cls-4" d="M3,100.67"/><path class="cls-5" d="M54,94.67a6,6,0,0,1,0-12Z"/><path class="cls-6" d="M54,94.67a6,6,0,1,0,0-12Z"/><path class="cls-5" d="M73,98.67a6,6,0,0,1,0-12Z"/><path class="cls-6" d="M73,98.67a6,6,0,0,0,0-12Z"/><path class="cls-5" d="M35,98.67a6,6,0,0,1,0-12Z"/><path class="cls-6" d="M35,98.67a6,6,0,0,0,0-12Z"/><path class="cls-7" d="M13,41.67"/></symbol></defs><use width="83.59" height="107" transform="translate(7.42 29.55) scale(0.24)" xlink:href="#Diamond"/><use width="83.59" height="107" transform="translate(174.83 220.55) rotate(180) scale(0.24)" xlink:href="#Diamond"/><path class="cls-8" d="M11.21,9.41a.56.56,0,0,1,.57-.56h2.76a.57.57,0,0,1,.57.56v6.22l5.25-6.55a.7.7,0,0,1,.45-.23h3a.55.55,0,0,1,.43.87l-5.54,6.93,6,7.85a.55.55,0,0,1-.44.88H21a.63.63,0,0,1-.42-.17l-5.47-7.42v7a.58.58,0,0,1-.57.57H11.78a.56.56,0,0,1-.57-.57Z"/><path class="cls-8" d="M171,240.69a.56.56,0,0,1-.56.57H167.7a.58.58,0,0,1-.57-.57v-6.22L161.88,241a.73.73,0,0,1-.45.23h-3a.54.54,0,0,1-.42-.87l5.53-6.93-6-7.85a.56.56,0,0,1,.45-.88h3.26a.61.61,0,0,1,.43.17l5.46,7.42v-7a.57.57,0,0,1,.57-.56h2.77a.55.55,0,0,1,.56.56Z"/><use width="108" height="104.17" transform="translate(38 73.92)" xlink:href="#King"/></svg>