<svg id="Layer_1" data-name="Layer 1" xmlns="http://www.w3.org/2000/svg" xmlns:xlink="http://www.w3.org/1999/xlink" viewBox="0 0 180 252"><defs><style>.cls-1{fill:#ed2025;}.cls-2{fill:#d62037;}.cls-3{fill:#ec2327;}</style><symbol id="Diamond-2" data-name="Diamond-2" viewBox="0 0 83.59 107"><polygon class="cls-1" points="41.8 0 0 53.5 41.8 107 83.59 53.5 41.8 0"/><polygon class="cls-2" points="41.8 0 41.8 107 83.59 53.5 41.8 0"/></symbol></defs><use width="83.59" height="107" transform="translate(39.82 43.8) scale(0.4)" xlink:href="#Diamond-2"/><use width="83.59" height="107" transform="translate(112.04 43.8) scale(0.4)" xlink:href="#Diamond-2"/><use width="83.59" height="107" transform="translate(145.52 208.65) rotate(180) scale(0.4)" xlink:href="#Diamond-2"/><use width="83.59" height="107" transform="translate(73.52 208.65) rotate(180) scale(0.4)" xlink:href="#Diamond-2"/><use width="83.59" height="107" transform="translate(40.04 104.68) scale(0.4)" xlink:href="#Diamond-2"/><use width="83.59" height="107" transform="translate(112.26 104.68) scale(0.4)" xlink:href="#Diamond-2"/><use width="83.59" height="107" transform="translate(76.24 74.57) scale(0.4)" xlink:href="#Diamond-2"/><path class="cls-3" d="M10.43,25.64l5.91-12.35H10.86a.46.46,0,0,1-.45-.45V10.71a.47.47,0,0,1,.45-.45h10a.48.48,0,0,1,.45.45v.17L14.21,25.66a1,1,0,0,1-1,.69H10.9a.45.45,0,0,1-.47-.45Z"/><path class="cls-3" d="M169.57,226.36l-5.91,12.35h5.48a.46.46,0,0,1,.45.45v2.13a.47.47,0,0,1-.45.45h-10a.48.48,0,0,1-.45-.45v-.17l7.08-14.78a1,1,0,0,1,1-.69h2.34a.45.45,0,0,1,.47.45Z"/><use width="83.59" height="107" transform="translate(6.3 30.5) scale(0.24)" xlink:href="#Diamond-2"/><use width="83.59" height="107" transform="translate(173.7 221.5) rotate(180) scale(0.24)" xlink:href="#Diamond-2"/></svg>