<svg id="Layer_1" data-name="Layer 1" xmlns="http://www.w3.org/2000/svg" xmlns:xlink="http://www.w3.org/1999/xlink" viewBox="0 0 180 252"><defs><style>.cls-1{fill:#e51e26;}.cls-2{fill:#ed2025;}.cls-3{fill:#ec2327;}</style><symbol id="Diamond" data-name="Diamond" viewBox="0 0 83.59 107"><polygon class="cls-1" points="41.8 0 41.8 107 83.59 53.5 41.8 0"/><polygon class="cls-2" points="41.8 0 41.8 107 0 53.5 41.8 0"/></symbol><symbol id="Diamond_medium" data-name="Diamond medium" viewBox="0 0 34.28 43.88"><use width="83.59" height="107" transform="scale(0.41)" xlink:href="#Diamond"/></symbol></defs><use width="83.59" height="107" transform="translate(7.86 30) scale(0.24)" xlink:href="#Diamond"/><use width="83.59" height="107" transform="translate(175.27 221) rotate(180) scale(0.24)" xlink:href="#Diamond"/><use width="34.28" height="43.88" transform="translate(39.41 43.28)" xlink:href="#Diamond_medium"/><use width="34.28" height="43.88" transform="translate(111.64 43.28)" xlink:href="#Diamond_medium"/><use width="34.28" height="43.88" transform="translate(145.92 209.16) rotate(180)" xlink:href="#Diamond_medium"/><use width="34.28" height="43.88" transform="translate(73.92 209.16) rotate(180)" xlink:href="#Diamond_medium"/><use width="34.28" height="43.88" transform="translate(39.64 104.17)" xlink:href="#Diamond_medium"/><use width="34.28" height="43.88" transform="translate(111.86 104.17)" xlink:href="#Diamond_medium"/><use width="34.28" height="43.88" transform="translate(75.83 74.06)" xlink:href="#Diamond_medium"/><path class="cls-3" d="M12.5,25.14l5.91-12.35H12.92a.47.47,0,0,1-.45-.45V10.21a.48.48,0,0,1,.45-.45h10a.47.47,0,0,1,.45.45v.17L16.28,25.16a1,1,0,0,1-1,.69H13a.45.45,0,0,1-.47-.45Z"/><path class="cls-3" d="M172.64,225.86l-5.92,12.35h5.49a.46.46,0,0,1,.45.45v2.12a.46.46,0,0,1-.45.45h-10a.46.46,0,0,1-.45-.45v-.16l7.07-14.78c.29-.59.62-.69,1-.69h2.34a.46.46,0,0,1,.48.45Z"/></svg>