<svg id="Layer_1" data-name="Layer 1" xmlns="http://www.w3.org/2000/svg" xmlns:xlink="http://www.w3.org/1999/xlink" viewBox="0 0 180 252"><defs><style>.cls-1{fill:#ed2025;}.cls-2{fill:#d62037;}.cls-3{fill:#ec2327;}</style><symbol id="Diamond-2" data-name="Diamond-2" viewBox="0 0 83.59 107"><polygon class="cls-1" points="41.8 0 0 53.5 41.8 107 83.59 53.5 41.8 0"/><polygon class="cls-2" points="41.8 0 41.8 107 83.59 53.5 41.8 0"/></symbol></defs><use width="83.59" height="107" transform="translate(75.26 59.45) scale(0.4)" xlink:href="#Diamond-2"/><use width="83.59" height="107" transform="translate(108.52 192.55) rotate(180) scale(0.4 0.4)" xlink:href="#Diamond-2"/><path class="cls-3" d="M10.6,25.43c1.37-1.8,4.87-6.56,6.27-8.68a3.58,3.58,0,0,0,.61-1.8c0-.9-.76-1.7-2.08-1.7a3.38,3.38,0,0,0-2.3,1.18.45.45,0,0,1-.66,0L11,13a.43.43,0,0,1,0-.61A6.78,6.78,0,0,1,15.71,10c3.38,0,5.37,2.15,5.37,4.78a6,6,0,0,1-.93,3.07c-.75,1.35-2.69,3.88-3.81,5.44h4.17a.47.47,0,0,1,.45.45V25.9a.47.47,0,0,1-.45.45H11.05a.45.45,0,0,1-.45-.45Z"/><path class="cls-3" d="M169.4,226.57c-1.37,1.8-4.87,6.56-6.27,8.68a3.58,3.58,0,0,0-.61,1.8c0,.9.76,1.7,2.08,1.7a3.38,3.38,0,0,0,2.3-1.18.45.45,0,0,1,.66,0L169,239a.43.43,0,0,1,0,.61,6.78,6.78,0,0,1-4.73,2.32c-3.38,0-5.37-2.15-5.37-4.78a6,6,0,0,1,.93-3.07c.75-1.35,2.69-3.88,3.81-5.44h-4.17a.47.47,0,0,1-.45-.45V226.1a.47.47,0,0,1,.45-.45H169a.45.45,0,0,1,.45.45Z"/><use width="83.59" height="107" transform="translate(6.3 30.5) scale(0.24)" xlink:href="#Diamond-2"/><use width="83.59" height="107" transform="translate(173.7 221.5) rotate(180) scale(0.24)" xlink:href="#Diamond-2"/></svg>