<svg id="Layer_1" data-name="Layer 1" xmlns="http://www.w3.org/2000/svg" xmlns:xlink="http://www.w3.org/1999/xlink" viewBox="0 0 180 252"><defs><style>.cls-1{fill:#e51e26;}.cls-2{fill:#ed2025;}.cls-3{fill:#ec2327;}</style><symbol id="Diamond" data-name="Diamond" viewBox="0 0 83.59 107"><polygon class="cls-1" points="41.8 0 41.8 107 83.59 53.5 41.8 0"/><polygon class="cls-2" points="41.8 0 41.8 107 0 53.5 41.8 0"/></symbol><symbol id="Diamond_medium" data-name="Diamond medium" viewBox="0 0 34.28 43.88"><use width="83.59" height="107" transform="scale(0.41)" xlink:href="#Diamond"/></symbol></defs><use width="83.59" height="107" transform="translate(7.25 29.39) scale(0.24)" xlink:href="#Diamond"/><use width="83.59" height="107" transform="translate(174.66 220.39) rotate(180) scale(0.24)" xlink:href="#Diamond"/><use width="34.28" height="43.88" transform="translate(38.8 42.67)" xlink:href="#Diamond_medium"/><use width="34.28" height="43.88" transform="translate(111.03 42.67)" xlink:href="#Diamond_medium"/><use width="34.28" height="43.88" transform="translate(145.31 208.55) rotate(180)" xlink:href="#Diamond_medium"/><use width="34.28" height="43.88" transform="translate(73.31 208.55) rotate(180)" xlink:href="#Diamond_medium"/><use width="34.28" height="43.88" transform="translate(39.03 103.56)" xlink:href="#Diamond_medium"/><use width="34.28" height="43.88" transform="translate(111.25 103.56)" xlink:href="#Diamond_medium"/><use width="34.28" height="43.88" transform="translate(75.22 73.45)" xlink:href="#Diamond_medium"/><use width="34.28" height="43.88" transform="translate(109.14 178.94) rotate(180)" xlink:href="#Diamond_medium"/><path class="cls-3" d="M14.84,17v-.07a4.51,4.51,0,0,1-2.43-3.67c0-2.65,2.36-4.32,5.25-4.32S23,10.59,23,13.24c0,1.8-1.51,3-2.43,3.65V17c1.06.59,2.88,1.94,2.88,4,0,2.58-2.27,4.52-5.81,4.52S12,23.53,12,21C12,18.87,14.39,17.24,14.84,17Zm2.89,5.58a1.89,1.89,0,0,0,1.91-1.77,2.46,2.46,0,0,0-1.94-2.18,2.49,2.49,0,0,0-1.91,2.18A1.88,1.88,0,0,0,17.73,22.56Zm1.65-9.17a1.67,1.67,0,0,0-3.33,0c0,.85.54,1.53,1.65,2A2.2,2.2,0,0,0,19.38,13.39Z"/><path class="cls-3" d="M169.07,232.79v.07a4.54,4.54,0,0,1,2.44,3.67c0,2.65-2.37,4.33-5.26,4.33s-5.36-1.68-5.36-4.33c0-1.8,1.51-3.05,2.43-3.64v-.1c-1.06-.59-2.88-1.94-2.88-4,0-2.58,2.27-4.52,5.81-4.52s5.71,1.94,5.71,4.52C172,230.9,169.52,232.53,169.07,232.79Zm-2.89-5.58a1.9,1.9,0,0,0-1.91,1.78,2.45,2.45,0,0,0,1.94,2.17,2.48,2.48,0,0,0,1.91-2.17A1.89,1.89,0,0,0,166.18,227.21Zm-1.65,9.18a1.67,1.67,0,0,0,3.33,0c0-.85-.54-1.54-1.65-2A2.19,2.19,0,0,0,164.53,236.39Z"/></svg>