<svg id="Layer_1" data-name="Layer 1" xmlns="http://www.w3.org/2000/svg" xmlns:xlink="http://www.w3.org/1999/xlink" viewBox="0 0 180 252"><defs><style>.cls-1{fill:#e51e26;}.cls-2{fill:#ed2025;}.cls-3{fill:#ec2327;}</style><symbol id="Diamond" data-name="Diamond" viewBox="0 0 83.59 107"><polygon class="cls-1" points="41.8 0 41.8 107 83.59 53.5 41.8 0"/><polygon class="cls-2" points="41.8 0 41.8 107 0 53.5 41.8 0"/></symbol><symbol id="Diamond_medium" data-name="Diamond medium" viewBox="0 0 34.28 43.88"><use width="83.59" height="107" transform="scale(0.41)" xlink:href="#Diamond"/></symbol></defs><use width="83.59" height="107" transform="translate(7.2 29) scale(0.24)" xlink:href="#Diamond"/><use width="83.59" height="107" transform="translate(174.6 220) rotate(180) scale(0.24)" xlink:href="#Diamond"/><use width="34.28" height="43.88" transform="translate(38.75 68.56)" xlink:href="#Diamond_medium"/><use width="34.28" height="43.88" transform="translate(110.97 68.56)" xlink:href="#Diamond_medium"/><use width="34.28" height="43.88" transform="translate(145.25 183.44) rotate(180)" xlink:href="#Diamond_medium"/><use width="34.28" height="43.88" transform="translate(73.25 183.44) rotate(180)" xlink:href="#Diamond_medium"/><path class="cls-3" d="M11.29,21.06V18.55l8.25-9.91a.41.41,0,0,1,.35-.14H21.6a.45.45,0,0,1,.45.45l0,9.7h1.87a.43.43,0,0,1,.45.42v2a.45.45,0,0,1-.45.45H22.07l0,2.91a.47.47,0,0,1-.45.45H19.11a.48.48,0,0,1-.45-.45V21.51H11.73A.44.44,0,0,1,11.29,21.06Zm7.47-2.48v-4.4L15,18.58Z"/><path class="cls-3" d="M172.52,227.93v2.51l-8.26,9.91a.41.41,0,0,1-.35.14H162.2a.45.45,0,0,1-.45-.45l0-9.69h-1.87a.43.43,0,0,1-.45-.43v-2a.45.45,0,0,1,.45-.45h1.87l0-2.91a.46.46,0,0,1,.45-.45h2.53a.47.47,0,0,1,.45.45v2.88h6.93A.45.45,0,0,1,172.52,227.93ZM165,230.42v4.4l3.76-4.4Z"/></svg>