<svg id="Layer_1" data-name="Layer 1" xmlns="http://www.w3.org/2000/svg" xmlns:xlink="http://www.w3.org/1999/xlink" viewBox="0 0 180 252"><defs><style>.cls-1{fill:#ed2025;}.cls-2{fill:#d62037;}.cls-3{fill:#e8e753;}.cls-4{fill:#e2dd24;}.cls-5{fill:#fff;}.cls-6{fill:#eee;}.cls-7{fill:#ec2327;}</style><symbol id="Diamond-2" data-name="Diamond-2" viewBox="0 0 83.59 107"><polygon class="cls-1" points="41.8 0 0 53.5 41.8 107 83.59 53.5 41.8 0"/><polygon class="cls-2" points="41.8 0 41.8 107 83.59 53.5 41.8 0"/></symbol><symbol id="Jack" data-name="Jack" viewBox="0 0 91.62 55.5"><path class="cls-3" d="M45.81,0C25.06,0,7.15,9.59,0,23.13L11.62,55.5H45.81Z"/><path class="cls-4" d="M45.81,0C66.55,0,84.47,9.59,91.62,23.13L80,55.5H45.81Z"/><path class="cls-5" d="M46.12,45.67a6,6,0,1,1,0-12Z"/><path class="cls-6" d="M46.12,45.67a6,6,0,0,0,0-12Z"/></symbol></defs><path class="cls-7" d="M11.27,24.27l1.61-1.59a.46.46,0,0,1,.64,0,1.49,1.49,0,0,0,1.2.5c.67,0,1.4-.62,1.4-1.8V10.24a.45.45,0,0,1,.45-.45h2.88a.45.45,0,0,1,.45.45V21.4a4.9,4.9,0,0,1-5.08,5.18,4.58,4.58,0,0,1-3.6-1.72A.51.51,0,0,1,11.27,24.27Z"/><path class="cls-7" d="M168.73,227.73l-1.61,1.59a.46.46,0,0,1-.64,0,1.49,1.49,0,0,0-1.2-.5c-.67,0-1.4.62-1.4,1.8v11.14a.45.45,0,0,1-.45.45h-2.88a.45.45,0,0,1-.45-.45V230.6a4.9,4.9,0,0,1,5.08-5.18,4.58,4.58,0,0,1,3.6,1.72A.51.51,0,0,1,168.73,227.73Z"/><use width="83.59" height="107" transform="translate(6.3 30.5) scale(0.24)" xlink:href="#Diamond-2"/><use width="83.59" height="107" transform="translate(173.7 221.5) rotate(180) scale(0.24)" xlink:href="#Diamond-2"/><use width="91.62" height="55.5" transform="translate(45.19 98.25)" xlink:href="#Jack"/></svg>