<svg id="Layer_1" data-name="Layer 1" xmlns="http://www.w3.org/2000/svg" xmlns:xlink="http://www.w3.org/1999/xlink" viewBox="0 0 180 252"><defs><style>.cls-1{fill:#ed2025;}.cls-2{fill:#d62037;}.cls-3{fill:#ec2327;}</style><symbol id="Diamond-2" data-name="Diamond-2" viewBox="0 0 83.59 107"><polygon class="cls-1" points="41.8 0 0 53.5 41.8 107 83.59 53.5 41.8 0"/><polygon class="cls-2" points="41.8 0 41.8 107 83.59 53.5 41.8 0"/></symbol></defs><use width="83.59" height="107" transform="translate(39.2 43.18) scale(0.4)" xlink:href="#Diamond-2"/><use width="83.59" height="107" transform="translate(111.43 43.18) scale(0.4)" xlink:href="#Diamond-2"/><use width="83.59" height="107" transform="translate(144.91 208.04) rotate(180) scale(0.4)" xlink:href="#Diamond-2"/><use width="83.59" height="107" transform="translate(72.91 208.04) rotate(180) scale(0.4)" xlink:href="#Diamond-2"/><use width="83.59" height="107" transform="translate(39.43 104.07) scale(0.4)" xlink:href="#Diamond-2"/><use width="83.59" height="107" transform="translate(111.65 104.07) scale(0.4)" xlink:href="#Diamond-2"/><use width="83.59" height="107" transform="translate(75.62 73.96) scale(0.4)" xlink:href="#Diamond-2"/><use width="83.59" height="107" transform="translate(108.74 178.43) rotate(180) scale(0.4)" xlink:href="#Diamond-2"/><path class="cls-3" d="M12.89,18.09V18a4.5,4.5,0,0,1-2.44-3.66c0-2.65,2.37-4.33,5.25-4.33s5.37,1.68,5.37,4.33c0,1.79-1.51,3.05-2.44,3.64v.09c1.07.59,2.89,1.94,2.89,4,0,2.57-2.27,4.51-5.82,4.51S10,24.64,10,22.07C10,20,12.44,18.35,12.89,18.09Zm2.88,5.59a1.9,1.9,0,0,0,1.92-1.78,2.47,2.47,0,0,0-1.94-2.18,2.52,2.52,0,0,0-1.92,2.18A1.89,1.89,0,0,0,15.77,23.68Zm1.66-9.18a1.68,1.68,0,0,0-3.34,0c0,.85.55,1.54,1.66,2A2.2,2.2,0,0,0,17.43,14.5Z"/><path class="cls-3" d="M167.11,233.91V234a4.5,4.5,0,0,1,2.44,3.66c0,2.65-2.36,4.33-5.25,4.33s-5.37-1.68-5.37-4.33c0-1.79,1.52-3,2.44-3.64v-.09c-1.07-.59-2.89-1.94-2.89-4,0-2.57,2.27-4.51,5.82-4.51s5.7,1.94,5.7,4.51C170,232,167.56,233.65,167.11,233.91Zm-2.88-5.59a1.9,1.9,0,0,0-1.92,1.78,2.49,2.49,0,0,0,1.94,2.18,2.52,2.52,0,0,0,1.92-2.18A1.89,1.89,0,0,0,164.23,228.32Zm-1.66,9.18a1.68,1.68,0,0,0,3.34,0c0-.85-.55-1.54-1.66-2A2.2,2.2,0,0,0,162.57,237.5Z"/><use width="83.59" height="107" transform="translate(6.3 30.5) scale(0.24)" xlink:href="#Diamond-2"/><use width="83.59" height="107" transform="translate(173.7 221.5) rotate(180) scale(0.24)" xlink:href="#Diamond-2"/></svg>