<svg id="Layer_1" data-name="Layer 1" xmlns="http://www.w3.org/2000/svg" xmlns:xlink="http://www.w3.org/1999/xlink" viewBox="0 0 180 252"><defs><style>.cls-1{fill:#e51e26;}.cls-2{fill:#ed2025;}.cls-3{fill:#ec2327;}</style><symbol id="Diamond" data-name="Diamond" viewBox="0 0 83.59 107"><polygon class="cls-1" points="41.8 0 41.8 107 83.59 53.5 41.8 0"/><polygon class="cls-2" points="41.8 0 41.8 107 0 53.5 41.8 0"/></symbol><symbol id="Diamond_medium" data-name="Diamond medium" viewBox="0 0 34.28 43.88"><use width="83.59" height="107" transform="scale(0.41)" xlink:href="#Diamond"/></symbol></defs><use width="83.59" height="107" transform="translate(6.86 30) scale(0.24)" xlink:href="#Diamond"/><use width="83.59" height="107" transform="translate(174.27 221) rotate(180) scale(0.24)" xlink:href="#Diamond"/><use width="34.28" height="43.88" transform="translate(38.25 30.17)" xlink:href="#Diamond_medium"/><use width="34.28" height="43.88" transform="translate(110.47 30.17)" xlink:href="#Diamond_medium"/><use width="34.28" height="43.88" transform="translate(144.75 223.05) rotate(180)" xlink:href="#Diamond_medium"/><use width="34.28" height="43.88" transform="translate(72.75 223.05) rotate(180)" xlink:href="#Diamond_medium"/><use width="34.28" height="43.88" transform="translate(38.47 80.06)" xlink:href="#Diamond_medium"/><use width="34.28" height="43.88" transform="translate(110.69 80.06)" xlink:href="#Diamond_medium"/><use width="34.28" height="43.88" transform="translate(38.3 129.56)" xlink:href="#Diamond_medium"/><use width="34.28" height="43.88" transform="translate(110.3 129.56)" xlink:href="#Diamond_medium"/><use width="34.28" height="43.88" transform="translate(74.3 55.56)" xlink:href="#Diamond_medium"/><use width="34.28" height="43.88" transform="translate(108.56 197.94) rotate(180)" xlink:href="#Diamond_medium"/><path class="cls-3" d="M9.91,14.75H7.64a.44.44,0,0,1-.43-.45V12.81a.67.67,0,0,1,.14-.35l3.46-2.7H13a.45.45,0,0,1,.43.45V25.4a.45.45,0,0,1-.43.45H10.36a.45.45,0,0,1-.45-.45Z"/><path class="cls-3" d="M14.9,17.8c0-5.18,2.2-8.27,6.06-8.27S27,12.62,27,17.8s-2.2,8.28-6.05,8.28S14.9,23,14.9,17.8Zm8.3,0C23.2,14.71,22.4,13,21,13s-2.25,1.75-2.25,4.84.8,4.85,2.25,4.85S23.2,20.93,23.2,17.8Z"/><path class="cls-3" d="M172.22,236.24h2.28a.45.45,0,0,1,.42.45v1.49a.67.67,0,0,1-.14.36l-3.45,2.69h-2.18a.44.44,0,0,1-.43-.45V225.6a.44.44,0,0,1,.43-.45h2.63a.44.44,0,0,1,.44.45Z"/><path class="cls-3" d="M167.71,233.19c0,5.18-2.2,8.28-6.06,8.28s-6.05-3.1-6.05-8.28,2.2-8.28,6.05-8.28S167.71,228,167.71,233.19Zm-8.31,0c0,3.1.81,4.85,2.25,4.85s2.25-1.75,2.25-4.85-.81-4.85-2.25-4.85S159.4,230.07,159.4,233.19Z"/></svg>