<svg id="Layer_1" data-name="Layer 1" xmlns="http://www.w3.org/2000/svg" xmlns:xlink="http://www.w3.org/1999/xlink" viewBox="0 0 180 252"><defs><style>.cls-1{fill:#e51e26;}.cls-2{fill:#ed2025;}.cls-3{fill:#ec2327;}</style><symbol id="Diamond" data-name="Diamond" viewBox="0 0 83.59 107"><polygon class="cls-1" points="41.8 0 41.8 107 83.59 53.5 41.8 0"/><polygon class="cls-2" points="41.8 0 41.8 107 0 53.5 41.8 0"/></symbol></defs><use width="83.59" height="107" transform="translate(7.42 29.55) scale(0.24)" xlink:href="#Diamond"/><use width="83.59" height="107" transform="translate(174.83 220.55) rotate(180) scale(0.24)" xlink:href="#Diamond"/><use width="83.59" height="107" transform="translate(47.79 69.41) scale(1.06)" xlink:href="#Diamond"/><path class="cls-3" d="M9.08,24.79l7.4-15.92a.5.5,0,0,1,.41-.26h.23a.47.47,0,0,1,.4.26l7.41,15.92a.42.42,0,0,1-.4.61H21.9c-.43,0-.61-.14-.83-.59l-.85-1.87H13.79l-.85,1.89a.88.88,0,0,1-.85.57H9.48A.42.42,0,0,1,9.08,24.79Zm9.72-5.07L17,15.82h0l-1.77,3.9Z"/><path class="cls-3" d="M175.16,225.32l-7.4,15.92a.49.49,0,0,1-.4.26h-.24a.49.49,0,0,1-.4-.26l-7.4-15.92a.41.41,0,0,1,.4-.61h2.62c.43,0,.62.14.83.59l.85,1.87h6.44l.85-1.9a.88.88,0,0,1,.85-.56h2.6A.41.41,0,0,1,175.16,225.32Zm-9.72,5.06,1.8,3.9h0l1.78-3.9Z"/></svg>