<svg id="Layer_1" data-name="Layer 1" xmlns="http://www.w3.org/2000/svg" xmlns:xlink="http://www.w3.org/1999/xlink" viewBox="0 0 180 252"><defs><style>.cls-1{fill:#ed2025;}.cls-2{fill:#d62037;}.cls-3{fill:#e8e751;}.cls-4{fill:#e2dd24;}.cls-5{fill:#fff;}.cls-6{fill:#eee;}.cls-7{fill:none;}.cls-8{fill:#ec2327;}</style><symbol id="Diamond-2" data-name="Diamond-2" viewBox="0 0 83.59 107"><polygon class="cls-1" points="41.8 0 0 53.5 41.8 107 83.59 53.5 41.8 0"/><polygon class="cls-2" points="41.8 0 41.8 107 83.59 53.5 41.8 0"/></symbol><symbol id="King" data-name="King" viewBox="0 0 108 104.17"><polygon class="cls-3" points="53.75 0 32.5 42.17 0 22.67 20.5 104.17 53.75 104.17 53.75 0"/><polygon class="cls-4" points="53.75 0 75 42.17 108 22.67 87 104.17 53.75 104.17 53.75 0"/><path class="cls-4" d="M3,100.67"/><path class="cls-5" d="M54,94.67a6,6,0,0,1,0-12Z"/><path class="cls-6" d="M54,94.67a6,6,0,1,0,0-12Z"/><path class="cls-5" d="M73,98.67a6,6,0,0,1,0-12Z"/><path class="cls-6" d="M73,98.67a6,6,0,0,0,0-12Z"/><path class="cls-5" d="M35,98.67a6,6,0,0,1,0-12Z"/><path class="cls-6" d="M35,98.67a6,6,0,0,0,0-12Z"/><path class="cls-7" d="M13,41.67"/></symbol></defs><path class="cls-8" d="M9.09,10.36a.56.56,0,0,1,.57-.57h2.76a.58.58,0,0,1,.57.57v6.22L18.24,10a.72.72,0,0,1,.45-.24h3a.55.55,0,0,1,.43.88L16.56,17.6l6,7.85a.55.55,0,0,1-.45.87H18.88a.66.66,0,0,1-.43-.16L13,18.73v7.05a.58.58,0,0,1-.57.57H9.66a.56.56,0,0,1-.57-.57Z"/><path class="cls-8" d="M170.91,241.64a.56.56,0,0,1-.57.57h-2.76a.58.58,0,0,1-.57-.57v-6.22L161.76,242a.72.72,0,0,1-.45.24h-3a.55.55,0,0,1-.43-.88l5.54-6.93-6-7.85a.55.55,0,0,1,.45-.87h3.26a.66.66,0,0,1,.43.16l5.46,7.43v-7.05a.58.58,0,0,1,.57-.57h2.76a.56.56,0,0,1,.57.57Z"/><use width="83.59" height="107" transform="translate(6.3 30.5) scale(0.24)" xlink:href="#Diamond-2"/><use width="83.59" height="107" transform="translate(173.7 221.5) rotate(180) scale(0.24)" xlink:href="#Diamond-2"/><use width="108" height="104.17" transform="translate(37 73.92)" xlink:href="#King"/></svg>