<svg id="Layer_1" data-name="Layer 1" xmlns="http://www.w3.org/2000/svg" xmlns:xlink="http://www.w3.org/1999/xlink" viewBox="0 0 180 252"><defs><style>.cls-1{fill:#e42128;}.cls-2{fill:#ec2327;}</style><symbol id="Heart" data-name="Heart" viewBox="0 0 104.5 105.9"><path class="cls-1" d="M52.25,10.08h0C64.28-3.29,83.58-3.4,95.61,10s11.75,34.88-.28,48.25c0,0,0,0,0,0L52.25,105.9Z"/><path class="cls-2" d="M52.25,10.08h0C40.21-3.29,20.92-3.4,8.89,10s-11.76,34.88.28,48.25c0,0,0,0,0,0L52.25,105.9Z"/></symbol><symbol id="Heart_medium" data-name="Heart medium" viewBox="0 0 36.84 37.34"><use width="104.5" height="105.9" transform="scale(0.35)" xlink:href="#Heart"/></symbol></defs><use width="104.5" height="105.9" transform="translate(5.74 30.13) scale(0.24)" xlink:href="#Heart"/><use width="104.5" height="105.9" transform="translate(178.06 220.87) rotate(180) scale(0.24)" xlink:href="#Heart"/><use width="36.84" height="37.34" transform="translate(38.47 72.83)" xlink:href="#Heart_medium"/><use width="36.84" height="37.34" transform="translate(110.69 72.83)" xlink:href="#Heart_medium"/><use width="36.84" height="37.34" transform="translate(147.53 181.17) rotate(180)" xlink:href="#Heart_medium"/><use width="36.84" height="37.34" transform="translate(75.53 181.17) rotate(180)" xlink:href="#Heart_medium"/><path class="cls-2" d="M12.29,22.06V19.55l8.25-9.91a.41.41,0,0,1,.35-.14H22.6a.45.45,0,0,1,.45.45l0,9.7h1.87a.43.43,0,0,1,.45.42v2a.45.45,0,0,1-.45.45H23.07l0,2.91a.47.47,0,0,1-.45.45H20.11a.48.48,0,0,1-.45-.45V22.51H12.73A.44.44,0,0,1,12.29,22.06Zm7.47-2.48v-4.4L16,19.58Z"/><path class="cls-2" d="M173.52,228.93v2.51l-8.26,9.91a.41.41,0,0,1-.35.14H163.2a.45.45,0,0,1-.45-.45l0-9.69h-1.87a.43.43,0,0,1-.45-.43v-2a.45.45,0,0,1,.45-.45h1.87l0-2.91a.46.46,0,0,1,.45-.45h2.53a.47.47,0,0,1,.45.45v2.88h6.93A.45.45,0,0,1,173.52,228.93ZM166,231.42v4.4l3.76-4.4Z"/></svg>