<svg id="Layer_1" data-name="Layer 1" xmlns="http://www.w3.org/2000/svg" xmlns:xlink="http://www.w3.org/1999/xlink" viewBox="0 0 180 252"><defs><style>.cls-1{fill:#ea2629;}.cls-2{fill:#d61f37;}.cls-3{fill:#ec2327;}</style><symbol id="Heart-2" data-name="Heart-2" viewBox="0 0 104.5 105.9"><path class="cls-1" d="M95.61,10c-12-13.37-31.33-13.26-43.36.11h0s0,0,0,0h0C40.21-3.29,20.92-3.4,8.89,10s-11.76,34.88.28,48.25L52.25,105.9,95.33,58.22C107.36,44.85,107.65,23.35,95.61,10Z"/><path class="cls-2" d="M52.25,10.08h0C64.28-3.29,83.58-3.4,95.61,10s11.75,34.88-.28,48.25c0,0,0,0,0,0L52.25,105.9Z"/></symbol></defs><use width="104.5" height="105.9" transform="translate(37.89 46.76) scale(0.34)" xlink:href="#Heart-2"/><use width="104.5" height="105.9" transform="translate(110.12 46.76) scale(0.34)" xlink:href="#Heart-2"/><use width="104.5" height="105.9" transform="translate(146.11 205.24) rotate(180) scale(0.34)" xlink:href="#Heart-2"/><use width="104.5" height="105.9" transform="translate(74.11 205.24) rotate(180) scale(0.34)" xlink:href="#Heart-2"/><use width="104.5" height="105.9" transform="translate(73.56 109.82) scale(0.34)" xlink:href="#Heart-2"/><path class="cls-3" d="M10.74,23.82l1.49-1.47a.45.45,0,0,1,.56-.07,6.82,6.82,0,0,0,2.82,1.14,2.19,2.19,0,0,0,2.25-2.25,2.25,2.25,0,0,0-2.44-2.3H11.78a.79.79,0,0,1-.74-.82V10.71a.45.45,0,0,1,.45-.44h7.62a.45.45,0,0,1,.45.44V12.8a.45.45,0,0,1-.45.45H14.24v2.53h1.68a5.15,5.15,0,0,1,5.39,5.39,5.61,5.61,0,0,1-5.84,5.41,6.27,6.27,0,0,1-4.69-2C10.48,24.27,10.45,24.1,10.74,23.82Z"/><path class="cls-3" d="M169.26,228.18l-1.49,1.47a.45.45,0,0,1-.56.07,6.82,6.82,0,0,0-2.82-1.14,2.19,2.19,0,0,0-2.25,2.25,2.25,2.25,0,0,0,2.44,2.3h3.64a.79.79,0,0,1,.74.82v7.34a.45.45,0,0,1-.45.44h-7.62a.45.45,0,0,1-.45-.44V239.2a.45.45,0,0,1,.45-.45h4.87v-2.53h-1.68a5.15,5.15,0,0,1-5.39-5.39,5.61,5.61,0,0,1,5.84-5.41,6.27,6.27,0,0,1,4.69,2C169.52,227.73,169.55,227.9,169.26,228.18Z"/><use width="104.5" height="105.9" transform="translate(5.95 32.77) scale(0.19)" xlink:href="#Heart-2"/><use width="104.5" height="105.9" transform="translate(174.05 219.23) rotate(180) scale(0.19)" xlink:href="#Heart-2"/></svg>