<svg id="Layer_1" data-name="Layer 1" xmlns="http://www.w3.org/2000/svg" xmlns:xlink="http://www.w3.org/1999/xlink" viewBox="0 0 180 252"><defs><style>.cls-1{fill:#ea2629;}.cls-2{fill:#d61f37;}.cls-3{fill:#e8e752;}.cls-4{fill:#e2dd24;}.cls-5{fill:#fff;}.cls-6{fill:#eee;}.cls-7{fill:#ec2327;}</style><symbol id="Heart-2" data-name="Heart-2" viewBox="0 0 104.5 105.9"><path class="cls-1" d="M95.61,10c-12-13.37-31.33-13.26-43.36.11h0s0,0,0,0h0C40.21-3.29,20.92-3.4,8.89,10s-11.76,34.88.28,48.25L52.25,105.9,95.33,58.22C107.36,44.85,107.65,23.35,95.61,10Z"/><path class="cls-2" d="M52.25,10.08h0C64.28-3.29,83.58-3.4,95.61,10s11.75,34.88-.28,48.25c0,0,0,0,0,0L52.25,105.9Z"/></symbol><symbol id="Queen" data-name="Queen" viewBox="0 0 98 104.5"><polygon class="cls-3" points="49 50.79 33 0 28 50 0 9 15.25 104.5 49 104.5 49 50.79"/><polygon class="cls-4" points="49 50.79 65 0 70 50 98 9 82.75 104.5 49 104.5 49 50.79"/><path class="cls-5" d="M34,99a6,6,0,0,1,0-12Z"/><path class="cls-6" d="M34,99a6,6,0,0,0,0-12Z"/><path class="cls-5" d="M65,99a6,6,0,0,1,0-12Z"/><path class="cls-6" d="M65,99a6,6,0,0,0,0-12Z"/></symbol></defs><path class="cls-7" d="M16.37,9.05a8.51,8.51,0,0,1,8.52,8.54A8.86,8.86,0,0,1,20.51,25l3,4.78a.45.45,0,0,1-.38.71H20a.44.44,0,0,1-.38-.24l-2.5-4.23c-.29,0-.57,0-.74,0a8.52,8.52,0,0,1,0-17Zm0,13.25a4.73,4.73,0,1,0-4.7-4.71A4.74,4.74,0,0,0,16.37,22.3Z"/><path class="cls-7" d="M163.63,243a8.51,8.51,0,0,1-8.52-8.54,8.86,8.86,0,0,1,4.38-7.45l-3.05-4.78a.45.45,0,0,1,.38-.71H160a.44.44,0,0,1,.38.24l2.5,4.23c.29,0,.57,0,.74,0a8.52,8.52,0,0,1,0,17Zm0-13.25a4.73,4.73,0,1,0,4.7,4.71A4.74,4.74,0,0,0,163.63,229.7Z"/><use width="104.5" height="105.9" transform="translate(5.95 32.77) scale(0.19)" xlink:href="#Heart-2"/><use width="104.5" height="105.9" transform="translate(174.05 219.23) rotate(180) scale(0.19)" xlink:href="#Heart-2"/><use width="98" height="104.5" transform="translate(42 73.75)" xlink:href="#Queen"/></svg>