<svg id="Layer_1" data-name="Layer 1" xmlns="http://www.w3.org/2000/svg" xmlns:xlink="http://www.w3.org/1999/xlink" viewBox="0 0 180 252"><defs><style>.cls-1{fill:#e42128;}.cls-2{fill:#ec2327;}</style><symbol id="Heart" data-name="Heart" viewBox="0 0 104.5 105.9"><path class="cls-1" d="M52.25,10.08h0C64.28-3.29,83.58-3.4,95.61,10s11.75,34.88-.28,48.25c0,0,0,0,0,0L52.25,105.9Z"/><path class="cls-2" d="M52.25,10.08h0C40.21-3.29,20.92-3.4,8.89,10s-11.76,34.88.28,48.25c0,0,0,0,0,0L52.25,105.9Z"/></symbol><symbol id="Heart_medium" data-name="Heart medium" viewBox="0 0 36.84 37.34"><use width="104.5" height="105.9" transform="scale(0.35)" xlink:href="#Heart"/></symbol></defs><use width="104.5" height="105.9" transform="translate(5.8 30.52) scale(0.24)" xlink:href="#Heart"/><use width="104.5" height="105.9" transform="translate(178.12 221.26) rotate(180) scale(0.24)" xlink:href="#Heart"/><use width="36.84" height="37.34" transform="translate(38.36 33.83)" xlink:href="#Heart_medium"/><use width="36.84" height="37.34" transform="translate(110.58 33.83)" xlink:href="#Heart_medium"/><use width="36.84" height="37.34" transform="translate(147.42 220.17) rotate(180)" xlink:href="#Heart_medium"/><use width="36.84" height="37.34" transform="translate(75.42 220.17) rotate(180)" xlink:href="#Heart_medium"/><use width="36.84" height="37.34" transform="translate(38.58 83.72)" xlink:href="#Heart_medium"/><use width="36.84" height="37.34" transform="translate(110.8 83.72)" xlink:href="#Heart_medium"/><use width="36.84" height="37.34" transform="translate(38.41 133.22)" xlink:href="#Heart_medium"/><use width="36.84" height="37.34" transform="translate(110.41 133.22)" xlink:href="#Heart_medium"/><use width="36.84" height="37.34" transform="translate(74.41 108.22)" xlink:href="#Heart_medium"/><path class="cls-2" d="M14.92,23.73c1.11-.36,4.26-1.45,4.75-3.88a6.8,6.8,0,0,1-2.24.47,4.75,4.75,0,0,1-4.71-5.13,5.45,5.45,0,0,1,5.41-5.42c3.67,0,5.71,2.75,5.71,6.44,0,7-5.78,9.76-7.95,10.4a.54.54,0,0,1-.73-.38l-.69-1.82C14.38,24.13,14.45,23.87,14.92,23.73Zm5.53-8.42a2.27,2.27,0,1,0-2.27,2.29A2.28,2.28,0,0,0,20.45,15.31Z"/><path class="cls-2" d="M171,228.05c-1.11.35-4.26,1.44-4.75,3.88a6.82,6.82,0,0,1,2.24-.48,4.75,4.75,0,0,1,4.71,5.13,5.45,5.45,0,0,1-5.41,5.42c-3.67,0-5.7-2.74-5.7-6.43,0-7,5.77-9.77,7.94-10.41a.57.57,0,0,1,.74.38l.68,1.82C171.54,227.64,171.46,227.9,171,228.05Zm-5.53,8.42a2.27,2.27,0,1,0,2.27-2.3A2.28,2.28,0,0,0,165.46,236.47Z"/></svg>