<svg id="Layer_1" data-name="Layer 1" xmlns="http://www.w3.org/2000/svg" xmlns:xlink="http://www.w3.org/1999/xlink" viewBox="0 0 180 252"><defs><style>.cls-1{fill:#ea2629;}.cls-2{fill:#d61f37;}.cls-3{fill:#ec2327;}</style><symbol id="Heart-2" data-name="Heart-2" viewBox="0 0 104.5 105.9"><path class="cls-1" d="M95.61,10c-12-13.37-31.33-13.26-43.36.11h0s0,0,0,0h0C40.21-3.29,20.92-3.4,8.89,10s-11.76,34.88.28,48.25L52.25,105.9,95.33,58.22C107.36,44.85,107.65,23.35,95.61,10Z"/><path class="cls-2" d="M52.25,10.08h0C64.28-3.29,83.58-3.4,95.61,10s11.75,34.88-.28,48.25c0,0,0,0,0,0L52.25,105.9Z"/></symbol></defs><use width="104.5" height="105.9" transform="translate(37.78 33.26) scale(0.34)" xlink:href="#Heart-2"/><use width="104.5" height="105.9" transform="translate(110 33.26) scale(0.34)" xlink:href="#Heart-2"/><use width="104.5" height="105.9" transform="translate(146 218.74) rotate(180) scale(0.34)" xlink:href="#Heart-2"/><use width="104.5" height="105.9" transform="translate(74 218.74) rotate(180) scale(0.34)" xlink:href="#Heart-2"/><use width="104.5" height="105.9" transform="translate(38 83.15) scale(0.34)" xlink:href="#Heart-2"/><use width="104.5" height="105.9" transform="translate(110.23 83.15) scale(0.34)" xlink:href="#Heart-2"/><use width="104.5" height="105.9" transform="translate(37.84 132.65) scale(0.34)" xlink:href="#Heart-2"/><use width="104.5" height="105.9" transform="translate(109.84 132.65) scale(0.34)" xlink:href="#Heart-2"/><use width="104.5" height="105.9" transform="translate(73.84 107.65) scale(0.34)" xlink:href="#Heart-2"/><path class="cls-3" d="M13,23.84c1.12-.35,4.26-1.44,4.76-3.88a6.86,6.86,0,0,1-2.25.47,4.75,4.75,0,0,1-4.71-5.13,5.44,5.44,0,0,1,5.42-5.41c3.67,0,5.7,2.74,5.7,6.43,0,7-5.77,9.77-7.95,10.41a.56.56,0,0,1-.73-.38l-.69-1.82C12.42,24.24,12.49,24,13,23.84Zm5.54-8.42a2.27,2.27,0,1,0-2.27,2.29A2.29,2.29,0,0,0,18.5,15.42Z"/><path class="cls-3" d="M167,228.16c-1.11.35-4.26,1.44-4.76,3.88a6.86,6.86,0,0,1,2.25-.47,4.75,4.75,0,0,1,4.71,5.13,5.44,5.44,0,0,1-5.42,5.41c-3.67,0-5.7-2.74-5.7-6.43,0-7,5.77-9.77,7.95-10.41a.56.56,0,0,1,.73.38l.69,1.82C167.58,227.76,167.51,228,167,228.16Zm-5.54,8.42a2.27,2.27,0,1,0,2.27-2.29A2.29,2.29,0,0,0,161.5,236.58Z"/><use width="104.5" height="105.9" transform="translate(5.95 32.77) scale(0.19)" xlink:href="#Heart-2"/><use width="104.5" height="105.9" transform="translate(174.05 219.23) rotate(180) scale(0.19)" xlink:href="#Heart-2"/></svg>