<svg id="Layer_1" data-name="Layer 1" xmlns="http://www.w3.org/2000/svg" xmlns:xlink="http://www.w3.org/1999/xlink" viewBox="0 0 180 252"><defs><style>.cls-1{fill:#e42128;}.cls-2{fill:#ec2327;}</style><symbol id="Heart" data-name="Heart" viewBox="0 0 104.5 105.9"><path class="cls-1" d="M52.25,10.08h0C64.28-3.29,83.58-3.4,95.61,10s11.75,34.88-.28,48.25c0,0,0,0,0,0L52.25,105.9Z"/><path class="cls-2" d="M52.25,10.08h0C40.21-3.29,20.92-3.4,8.89,10s-11.76,34.88.28,48.25c0,0,0,0,0,0L52.25,105.9Z"/></symbol><symbol id="Heart_medium" data-name="Heart medium" viewBox="0 0 36.84 37.34"><use width="104.5" height="105.9" transform="scale(0.35)" xlink:href="#Heart"/></symbol></defs><use width="104.5" height="105.9" transform="translate(6.13 30.52) scale(0.24)" xlink:href="#Heart"/><use width="104.5" height="105.9" transform="translate(178.45 221.26) rotate(180) scale(0.24)" xlink:href="#Heart"/><use width="36.84" height="37.34" transform="translate(74.58 63.21)" xlink:href="#Heart_medium"/><use width="36.84" height="37.34" transform="translate(111.19 190.79) rotate(180) scale(0.99 1)" xlink:href="#Heart_medium"/><path class="cls-2" d="M12.89,25.31c1.37-1.8,4.87-6.55,6.26-8.68a3.44,3.44,0,0,0,.62-1.8,1.85,1.85,0,0,0-2.08-1.7,3.42,3.42,0,0,0-2.3,1.18.45.45,0,0,1-.66,0l-1.44-1.46a.44.44,0,0,1,0-.62A6.79,6.79,0,0,1,18,9.92c3.38,0,5.36,2.15,5.36,4.77a6,6,0,0,1-.92,3.08c-.75,1.35-2.69,3.88-3.81,5.44H22.8a.47.47,0,0,1,.45.45v2.13a.47.47,0,0,1-.45.44H13.34a.45.45,0,0,1-.45-.44Z"/><path class="cls-2" d="M173.69,226.46c-1.37,1.8-4.87,6.55-6.27,8.68a3.55,3.55,0,0,0-.61,1.8c0,.9.76,1.7,2.08,1.7a3.35,3.35,0,0,0,2.29-1.18.47.47,0,0,1,.67,0l1.44,1.47a.44.44,0,0,1,0,.61,6.78,6.78,0,0,1-4.73,2.32c-3.38,0-5.37-2.15-5.37-4.78a6,6,0,0,1,.93-3.07c.75-1.35,2.69-3.88,3.8-5.44h-4.16a.47.47,0,0,1-.45-.45V226a.46.46,0,0,1,.45-.45h9.46a.45.45,0,0,1,.45.45Z"/></svg>