<svg id="Layer_1" data-name="Layer 1" xmlns="http://www.w3.org/2000/svg" xmlns:xlink="http://www.w3.org/1999/xlink" viewBox="0 0 180 252"><defs><style>.cls-1{fill:#ea2629;}.cls-2{fill:#d61f37;}.cls-3{fill:#e8e753;}.cls-4{fill:#e2dd24;}.cls-5{fill:#fff;}.cls-6{fill:#eee;}.cls-7{fill:#ec2327;}</style><symbol id="Heart-2" data-name="Heart-2" viewBox="0 0 104.5 105.9"><path class="cls-1" d="M95.61,10c-12-13.37-31.33-13.26-43.36.11h0s0,0,0,0h0C40.21-3.29,20.92-3.4,8.89,10s-11.76,34.88.28,48.25L52.25,105.9,95.33,58.22C107.36,44.85,107.65,23.35,95.61,10Z"/><path class="cls-2" d="M52.25,10.08h0C64.28-3.29,83.58-3.4,95.61,10s11.75,34.88-.28,48.25c0,0,0,0,0,0L52.25,105.9Z"/></symbol><symbol id="Jack" data-name="Jack" viewBox="0 0 91.62 55.5"><path class="cls-3" d="M45.81,0C25.06,0,7.15,9.59,0,23.13L11.62,55.5H45.81Z"/><path class="cls-4" d="M45.81,0C66.55,0,84.47,9.59,91.62,23.13L80,55.5H45.81Z"/><path class="cls-5" d="M46.12,45.67a6,6,0,1,1,0-12Z"/><path class="cls-6" d="M46.12,45.67a6,6,0,0,0,0-12Z"/></symbol></defs><path class="cls-7" d="M11.27,24.27l1.61-1.59a.46.46,0,0,1,.64,0,1.49,1.49,0,0,0,1.2.5c.67,0,1.4-.62,1.4-1.8V10.24a.45.45,0,0,1,.45-.45h2.88a.45.45,0,0,1,.45.45V21.4a4.9,4.9,0,0,1-5.08,5.18,4.58,4.58,0,0,1-3.6-1.72A.51.51,0,0,1,11.27,24.27Z"/><path class="cls-7" d="M168.73,227.73l-1.61,1.59a.46.46,0,0,1-.64,0,1.49,1.49,0,0,0-1.2-.5c-.67,0-1.4.62-1.4,1.8v11.14a.45.45,0,0,1-.45.45h-2.88a.45.45,0,0,1-.45-.45V230.6a4.9,4.9,0,0,1,5.08-5.18,4.58,4.58,0,0,1,3.6,1.72A.51.51,0,0,1,168.73,227.73Z"/><use width="104.5" height="105.9" transform="translate(5.95 32.77) scale(0.19)" xlink:href="#Heart-2"/><use width="104.5" height="105.9" transform="translate(174.05 219.23) rotate(180) scale(0.19)" xlink:href="#Heart-2"/><use width="91.62" height="55.5" transform="translate(45.19 98.25)" xlink:href="#Jack"/></svg>