<svg id="Layer_1" data-name="Layer 1" xmlns="http://www.w3.org/2000/svg" xmlns:xlink="http://www.w3.org/1999/xlink" viewBox="0 0 180 252"><defs><style>.cls-1{fill:#e42128;}.cls-2{fill:#ec2327;}.cls-3{fill:#e8e752;}.cls-4{fill:#e2dd24;}.cls-5{fill:#fff;}.cls-6{fill:#eee;}</style><symbol id="Heart" data-name="Heart" viewBox="0 0 104.5 105.9"><path class="cls-1" d="M52.25,10.08h0C64.28-3.29,83.58-3.4,95.61,10s11.75,34.88-.28,48.25c0,0,0,0,0,0L52.25,105.9Z"/><path class="cls-2" d="M52.25,10.08h0C40.21-3.29,20.92-3.4,8.89,10s-11.76,34.88.28,48.25c0,0,0,0,0,0L52.25,105.9Z"/></symbol><symbol id="Queen" data-name="Queen" viewBox="0 0 98 104.5"><polygon class="cls-3" points="49 50.79 33 0 28 50 0 9 15.25 104.5 49 104.5 49 50.79"/><polygon class="cls-4" points="49 50.79 65 0 70 50 98 9 82.75 104.5 49 104.5 49 50.79"/><path class="cls-5" d="M34,99a6,6,0,0,1,0-12Z"/><path class="cls-6" d="M34,99a6,6,0,0,0,0-12Z"/><path class="cls-5" d="M65,99a6,6,0,0,1,0-12Z"/><path class="cls-6" d="M65,99a6,6,0,0,0,0-12Z"/></symbol></defs><use width="104.5" height="105.9" transform="translate(5.8 30.52) scale(0.24)" xlink:href="#Heart"/><use width="104.5" height="105.9" transform="translate(178.12 221.26) rotate(180) scale(0.24)" xlink:href="#Heart"/><use width="98" height="104.5" transform="translate(44 74.75)" xlink:href="#Queen"/><path class="cls-2" d="M18.33,9.44A8.5,8.5,0,0,1,26.84,18a8.86,8.86,0,0,1-4.37,7.45l3.05,4.78a.45.45,0,0,1-.38.71H22a.44.44,0,0,1-.38-.24l-2.51-4.23c-.28,0-.57,0-.73,0a8.52,8.52,0,0,1,0-17Zm0,13.25A4.73,4.73,0,1,0,13.62,18,4.74,4.74,0,0,0,18.33,22.69Z"/><path class="cls-2" d="M164.58,242.33a8.5,8.5,0,0,1-8.51-8.54,8.87,8.87,0,0,1,4.37-7.45l-3.05-4.77a.45.45,0,0,1,.38-.71H161a.43.43,0,0,1,.38.23l2.51,4.24a7,7,0,0,1,.73,0,8.52,8.52,0,0,1,0,17Zm0-13.24a4.73,4.73,0,1,0,4.71,4.7A4.74,4.74,0,0,0,164.58,229.09Z"/></svg>