<svg id="Layer_1" data-name="Layer 1" xmlns="http://www.w3.org/2000/svg" xmlns:xlink="http://www.w3.org/1999/xlink" viewBox="0 0 180 252"><defs><style>.cls-1{fill:#ea2629;}.cls-2{fill:#d61f37;}.cls-3{fill:#e8e751;}.cls-4{fill:#e2dd24;}.cls-5{fill:#fff;}.cls-6{fill:#eee;}.cls-7{fill:none;}.cls-8{fill:#ec2327;}</style><symbol id="Heart-2" data-name="Heart-2" viewBox="0 0 104.5 105.9"><path class="cls-1" d="M95.61,10c-12-13.37-31.33-13.26-43.36.11h0s0,0,0,0h0C40.21-3.29,20.92-3.4,8.89,10s-11.76,34.88.28,48.25L52.25,105.9,95.33,58.22C107.36,44.85,107.65,23.35,95.61,10Z"/><path class="cls-2" d="M52.25,10.08h0C64.28-3.29,83.58-3.4,95.61,10s11.75,34.88-.28,48.25c0,0,0,0,0,0L52.25,105.9Z"/></symbol><symbol id="King" data-name="King" viewBox="0 0 108 104.17"><polygon class="cls-3" points="53.75 0 32.5 42.17 0 22.67 20.5 104.17 53.75 104.17 53.75 0"/><polygon class="cls-4" points="53.75 0 75 42.17 108 22.67 87 104.17 53.75 104.17 53.75 0"/><path class="cls-4" d="M3,100.67"/><path class="cls-5" d="M54,94.67a6,6,0,0,1,0-12Z"/><path class="cls-6" d="M54,94.67a6,6,0,1,0,0-12Z"/><path class="cls-5" d="M73,98.67a6,6,0,0,1,0-12Z"/><path class="cls-6" d="M73,98.67a6,6,0,0,0,0-12Z"/><path class="cls-5" d="M35,98.67a6,6,0,0,1,0-12Z"/><path class="cls-6" d="M35,98.67a6,6,0,0,0,0-12Z"/><path class="cls-7" d="M13,41.67"/></symbol></defs><path class="cls-8" d="M9.09,10.36a.56.56,0,0,1,.57-.57h2.76a.58.58,0,0,1,.57.57v6.22L18.24,10a.72.72,0,0,1,.45-.24h3a.55.55,0,0,1,.43.88L16.56,17.6l6,7.85a.55.55,0,0,1-.45.87H18.88a.66.66,0,0,1-.43-.16L13,18.73v7.05a.58.58,0,0,1-.57.57H9.66a.56.56,0,0,1-.57-.57Z"/><path class="cls-8" d="M170.91,241.64a.56.56,0,0,1-.57.57h-2.76a.58.58,0,0,1-.57-.57v-6.22L161.76,242a.72.72,0,0,1-.45.24h-3a.55.55,0,0,1-.43-.88l5.54-6.93-6-7.85a.55.55,0,0,1,.45-.87h3.26a.66.66,0,0,1,.43.16l5.46,7.43v-7.05a.58.58,0,0,1,.57-.57h2.76a.56.56,0,0,1,.57.57Z"/><use width="104.5" height="105.9" transform="translate(5.95 32.77) scale(0.19)" xlink:href="#Heart-2"/><use width="104.5" height="105.9" transform="translate(174.05 219.23) rotate(180) scale(0.19)" xlink:href="#Heart-2"/><use width="108" height="104.17" transform="translate(37 73.92)" xlink:href="#King"/></svg>