<svg id="Layer_1" data-name="Layer 1" xmlns="http://www.w3.org/2000/svg" xmlns:xlink="http://www.w3.org/1999/xlink" viewBox="0 0 180 252"><defs><style>.cls-1{fill:#ea2629;}.cls-2{fill:#d61f37;}.cls-3{fill:#ec2327;}</style><symbol id="Heart-2" data-name="Heart-2" viewBox="0 0 104.5 105.9"><path class="cls-1" d="M95.61,10c-12-13.37-31.33-13.26-43.36.11h0s0,0,0,0h0C40.21-3.29,20.92-3.4,8.89,10s-11.76,34.88.28,48.25L52.25,105.9,95.33,58.22C107.36,44.85,107.65,23.35,95.61,10Z"/><path class="cls-2" d="M52.25,10.08h0C64.28-3.29,83.58-3.4,95.61,10s11.75,34.88-.28,48.25c0,0,0,0,0,0L52.25,105.9Z"/></symbol></defs><use width="104.5" height="105.9" transform="translate(73.5 46.76) scale(0.34)" xlink:href="#Heart-2"/><use width="104.5" height="105.9" transform="translate(73.5 107.76) scale(0.34)" xlink:href="#Heart-2"/><use width="104.5" height="105.9" transform="translate(110.5 205.24) rotate(180) scale(0.34)" xlink:href="#Heart-2"/><path class="cls-3" d="M10.79,23.89l1.49-1.49a.43.43,0,0,1,.59,0,5.64,5.64,0,0,0,2.6,1.09,2.06,2.06,0,0,0,2.06-1.89c0-1-1.07-1.92-2.82-1.92H13.39a.46.46,0,0,1-.45-.45v-2a.45.45,0,0,1,.45-.45h1.32c1.66,0,2.53-.8,2.53-1.82a1.83,1.83,0,0,0-1.89-1.78,2.72,2.72,0,0,0-2.06.95.43.43,0,0,1-.63,0l-1.45-1.42a.42.42,0,0,1,0-.61A7,7,0,0,1,15.73,10c2.74,0,5.11,1.68,5.11,4.33A4.24,4.24,0,0,1,18.4,18v.07a4.73,4.73,0,0,1,2.86,4c0,2.58-2.24,4.51-5.51,4.51a6.13,6.13,0,0,1-5-2.1A.47.47,0,0,1,10.79,23.89Z"/><path class="cls-3" d="M169.21,228.11l-1.49,1.49a.43.43,0,0,1-.59.05,5.64,5.64,0,0,0-2.6-1.09,2.06,2.06,0,0,0-2.06,1.89c0,1,1.07,1.92,2.82,1.92h1.32a.46.46,0,0,1,.45.45v2a.45.45,0,0,1-.45.45h-1.32c-1.66,0-2.53.8-2.53,1.82a1.83,1.83,0,0,0,1.89,1.78,2.72,2.72,0,0,0,2.06-1,.43.43,0,0,1,.63,0l1.45,1.42a.42.42,0,0,1,0,.61,7,7,0,0,1-4.52,2.08c-2.74,0-5.11-1.68-5.11-4.33A4.24,4.24,0,0,1,161.6,234v-.07a4.73,4.73,0,0,1-2.86-4c0-2.58,2.24-4.51,5.51-4.51a6.13,6.13,0,0,1,5,2.1A.47.47,0,0,1,169.21,228.11Z"/><use width="104.5" height="105.9" transform="translate(5.95 32.77) scale(0.19)" xlink:href="#Heart-2"/><use width="104.5" height="105.9" transform="translate(174.05 219.23) rotate(180) scale(0.19)" xlink:href="#Heart-2"/></svg>