<svg id="Layer_1" data-name="Layer 1" xmlns="http://www.w3.org/2000/svg" xmlns:xlink="http://www.w3.org/1999/xlink" viewBox="0 0 180 252"><defs><style>.cls-1{fill:#e42128;}.cls-2{fill:#ec2327;}</style><symbol id="Heart" data-name="Heart" viewBox="0 0 104.5 105.9"><path class="cls-1" d="M52.25,10.08h0C64.28-3.29,83.58-3.4,95.61,10s11.75,34.88-.28,48.25c0,0,0,0,0,0L52.25,105.9Z"/><path class="cls-2" d="M52.25,10.08h0C40.21-3.29,20.92-3.4,8.89,10s-11.76,34.88.28,48.25c0,0,0,0,0,0L52.25,105.9Z"/></symbol><symbol id="Heart_medium" data-name="Heart medium" viewBox="0 0 36.84 37.34"><use width="104.5" height="105.9" transform="scale(0.35)" xlink:href="#Heart"/></symbol></defs><use width="104.5" height="105.9" transform="translate(6.41 31.13) scale(0.24)" xlink:href="#Heart"/><use width="104.5" height="105.9" transform="translate(178.73 221.87) rotate(180) scale(0.24)" xlink:href="#Heart"/><use width="36.84" height="37.34" transform="translate(39.13 47.55)" xlink:href="#Heart_medium"/><use width="36.84" height="37.34" transform="translate(111.36 47.55)" xlink:href="#Heart_medium"/><use width="36.84" height="37.34" transform="translate(148.2 206.89) rotate(180)" xlink:href="#Heart_medium"/><use width="36.84" height="37.34" transform="translate(76.2 206.89) rotate(180)" xlink:href="#Heart_medium"/><use width="36.84" height="37.34" transform="translate(39.36 108.44)" xlink:href="#Heart_medium"/><use width="36.84" height="37.34" transform="translate(111.58 108.44)" xlink:href="#Heart_medium"/><use width="36.84" height="37.34" transform="translate(75.55 78.33)" xlink:href="#Heart_medium"/><path class="cls-2" d="M13.5,26.14l5.91-12.35H13.92a.47.47,0,0,1-.45-.45V11.21a.48.48,0,0,1,.45-.45h10a.47.47,0,0,1,.45.45v.17L17.28,26.16a1,1,0,0,1-1,.69H14a.45.45,0,0,1-.47-.45Z"/><path class="cls-2" d="M173.64,226.86l-5.92,12.35h5.49a.46.46,0,0,1,.45.45v2.12a.46.46,0,0,1-.45.45h-10a.46.46,0,0,1-.45-.45v-.16l7.07-14.78c.29-.59.62-.69,1-.69h2.34a.46.46,0,0,1,.48.45Z"/></svg>