<svg id="Layer_1" data-name="Layer 1" xmlns="http://www.w3.org/2000/svg" xmlns:xlink="http://www.w3.org/1999/xlink" viewBox="0 0 180 252"><defs><style>.cls-1{fill:#e42128;}.cls-2{fill:#ec2327;}</style><symbol id="Heart" data-name="Heart" viewBox="0 0 104.5 105.9"><path class="cls-1" d="M52.25,10.08h0C64.28-3.29,83.58-3.4,95.61,10s11.75,34.88-.28,48.25c0,0,0,0,0,0L52.25,105.9Z"/><path class="cls-2" d="M52.25,10.08h0C40.21-3.29,20.92-3.4,8.89,10s-11.76,34.88.28,48.25c0,0,0,0,0,0L52.25,105.9Z"/></symbol></defs><use width="104.5" height="105.9" transform="translate(5.96 30.68) scale(0.24)" xlink:href="#Heart"/><use width="104.5" height="105.9" transform="translate(178.28 221.42) rotate(180) scale(0.24)" xlink:href="#Heart"/><use width="104.5" height="105.9" transform="translate(37.73 70.99) scale(1.06)" xlink:href="#Heart"/><path class="cls-2" d="M10.08,25.79l7.4-15.92a.5.5,0,0,1,.41-.26h.23a.47.47,0,0,1,.4.26l7.41,15.92a.42.42,0,0,1-.4.61H22.9c-.43,0-.61-.14-.83-.59l-.85-1.87H14.79l-.85,1.89a.88.88,0,0,1-.85.57H10.48A.42.42,0,0,1,10.08,25.79Zm9.72-5.07L18,16.82h0l-1.77,3.9Z"/><path class="cls-2" d="M176.16,226.32l-7.4,15.92a.49.49,0,0,1-.4.26h-.24a.49.49,0,0,1-.4-.26l-7.4-15.92a.41.41,0,0,1,.4-.61h2.62c.43,0,.62.14.83.59l.85,1.87h6.44l.85-1.9a.88.88,0,0,1,.85-.56h2.6A.41.41,0,0,1,176.16,226.32Zm-9.72,5.06,1.8,3.9h0l1.78-3.9Z"/></svg>