<svg id="Layer_1" data-name="Layer 1" xmlns="http://www.w3.org/2000/svg" xmlns:xlink="http://www.w3.org/1999/xlink" viewBox="0 0 180 252"><defs><style>.cls-1{fill:#ea2629;}.cls-2{fill:#d61f37;}.cls-3{fill:#ec2327;}</style><symbol id="Heart-2" data-name="Heart-2" viewBox="0 0 104.5 105.9"><path class="cls-1" d="M95.61,10c-12-13.37-31.33-13.26-43.36.11h0s0,0,0,0h0C40.21-3.29,20.92-3.4,8.89,10s-11.76,34.88.28,48.25L52.25,105.9,95.33,58.22C107.36,44.85,107.65,23.35,95.61,10Z"/><path class="cls-2" d="M52.25,10.08h0C64.28-3.29,83.58-3.4,95.61,10s11.75,34.88-.28,48.25c0,0,0,0,0,0L52.25,105.9Z"/></symbol></defs><use width="104.5" height="105.9" transform="translate(36.73 69.99) scale(1.06)" xlink:href="#Heart-2"/><path class="cls-3" d="M8,25.73l7.4-15.91a.47.47,0,0,1,.4-.26H16a.45.45,0,0,1,.4.26l7.41,15.91a.42.42,0,0,1-.41.62H20.78c-.43,0-.62-.14-.83-.59l-.85-1.87H12.67l-.86,1.89a.87.87,0,0,1-.85.57H8.36A.42.42,0,0,1,8,25.73Zm9.72-5.06-1.8-3.9h0l-1.77,3.9Z"/><path class="cls-3" d="M172,226.27l-7.4,15.91a.47.47,0,0,1-.4.26H164a.45.45,0,0,1-.4-.26l-7.41-15.91a.42.42,0,0,1,.41-.62h2.62c.43,0,.62.14.83.59l.85,1.87h6.43l.86-1.89a.87.87,0,0,1,.85-.57h2.6A.42.42,0,0,1,172,226.27Zm-9.72,5.06,1.8,3.9h0l1.77-3.9Z"/><use width="104.5" height="105.9" transform="translate(5.95 32.77) scale(0.19)" xlink:href="#Heart-2"/><use width="104.5" height="105.9" transform="translate(174.05 219.23) rotate(180) scale(0.19)" xlink:href="#Heart-2"/></svg>