<svg id="Layer_1" data-name="Layer 1" xmlns="http://www.w3.org/2000/svg" xmlns:xlink="http://www.w3.org/1999/xlink" viewBox="0 0 180 252"><defs><style>.cls-1{fill:#ea2629;}.cls-2{fill:#d61f37;}.cls-3{fill:#ec2327;}</style><symbol id="Heart-2" data-name="Heart-2" viewBox="0 0 104.5 105.9"><path class="cls-1" d="M95.61,10c-12-13.37-31.33-13.26-43.36.11h0s0,0,0,0h0C40.21-3.29,20.92-3.4,8.89,10s-11.76,34.88.28,48.25L52.25,105.9,95.33,58.22C107.36,44.85,107.65,23.35,95.61,10Z"/><path class="cls-2" d="M52.25,10.08h0C64.28-3.29,83.58-3.4,95.61,10s11.75,34.88-.28,48.25c0,0,0,0,0,0L52.25,105.9Z"/></symbol></defs><use width="104.5" height="105.9" transform="translate(38.56 46.98) scale(0.34)" xlink:href="#Heart-2"/><use width="104.5" height="105.9" transform="translate(110.78 46.98) scale(0.34)" xlink:href="#Heart-2"/><use width="104.5" height="105.9" transform="translate(146.77 205.46) rotate(180) scale(0.34)" xlink:href="#Heart-2"/><use width="104.5" height="105.9" transform="translate(74.77 205.46) rotate(180) scale(0.34)" xlink:href="#Heart-2"/><use width="104.5" height="105.9" transform="translate(38.78 107.87) scale(0.34)" xlink:href="#Heart-2"/><use width="104.5" height="105.9" transform="translate(111 107.87) scale(0.34)" xlink:href="#Heart-2"/><use width="104.5" height="105.9" transform="translate(74.98 77.76) scale(0.34)" xlink:href="#Heart-2"/><path class="cls-3" d="M10.43,25.64l5.91-12.35H10.86a.46.46,0,0,1-.45-.45V10.71a.47.47,0,0,1,.45-.45h10a.48.48,0,0,1,.45.45v.17L14.21,25.66a1,1,0,0,1-1,.69H10.9a.45.45,0,0,1-.47-.45Z"/><path class="cls-3" d="M169.57,226.36l-5.91,12.35h5.48a.46.46,0,0,1,.45.45v2.13a.47.47,0,0,1-.45.45h-10a.48.48,0,0,1-.45-.45v-.17l7.08-14.78a1,1,0,0,1,1-.69h2.34a.45.45,0,0,1,.47.45Z"/><use width="104.5" height="105.9" transform="translate(5.95 32.77) scale(0.19)" xlink:href="#Heart-2"/><use width="104.5" height="105.9" transform="translate(174.05 219.23) rotate(180) scale(0.19)" xlink:href="#Heart-2"/></svg>