<svg id="Layer_1" data-name="Layer 1" xmlns="http://www.w3.org/2000/svg" xmlns:xlink="http://www.w3.org/1999/xlink" viewBox="0 0 180 252"><defs><style>.cls-1{fill:#e42128;}.cls-2{fill:#ec2327;}.cls-3{fill:#e8e753;}.cls-4{fill:#e2dd24;}.cls-5{fill:#fff;}.cls-6{fill:#eee;}</style><symbol id="Heart" data-name="Heart" viewBox="0 0 104.5 105.9"><path class="cls-1" d="M52.25,10.08h0C64.28-3.29,83.58-3.4,95.61,10s11.75,34.88-.28,48.25c0,0,0,0,0,0L52.25,105.9Z"/><path class="cls-2" d="M52.25,10.08h0C40.21-3.29,20.92-3.4,8.89,10s-11.76,34.88.28,48.25c0,0,0,0,0,0L52.25,105.9Z"/></symbol><symbol id="Jack" data-name="Jack" viewBox="0 0 91.62 55.5"><path class="cls-3" d="M45.81,0C25.06,0,7.15,9.59,0,23.13L11.62,55.5H45.81Z"/><path class="cls-4" d="M45.81,0C66.55,0,84.47,9.59,91.62,23.13L80,55.5H45.81Z"/><path class="cls-5" d="M46.12,45.67a6,6,0,1,1,0-12Z"/><path class="cls-6" d="M46.12,45.67a6,6,0,0,0,0-12Z"/></symbol></defs><use width="104.5" height="105.9" transform="translate(6.18 31.13) scale(0.24)" xlink:href="#Heart"/><use width="104.5" height="105.9" transform="translate(178.5 221.87) rotate(180) scale(0.24)" xlink:href="#Heart"/><use width="91.62" height="55.5" transform="translate(47.19 99.25)" xlink:href="#Jack"/><path class="cls-2" d="M12.12,24.76l1.6-1.58a.45.45,0,0,1,.64,0,1.51,1.51,0,0,0,1.21.5c.66,0,1.39-.62,1.39-1.8V10.74a.45.45,0,0,1,.45-.45H20.3a.45.45,0,0,1,.45.45V21.9a4.9,4.9,0,0,1-5.09,5.18,4.53,4.53,0,0,1-3.59-1.72A.5.5,0,0,1,12.12,24.76Z"/><path class="cls-2" d="M174.57,228.23,173,229.82a.44.44,0,0,1-.63,0,1.48,1.48,0,0,0-1.21-.5c-.66,0-1.4.62-1.4,1.8v11.14a.45.45,0,0,1-.44.45h-2.89a.45.45,0,0,1-.45-.45V231.09a4.91,4.91,0,0,1,5.09-5.18,4.52,4.52,0,0,1,3.59,1.73A.5.5,0,0,1,174.57,228.23Z"/></svg>