<svg id="Layer_1" data-name="Layer 1" xmlns="http://www.w3.org/2000/svg" xmlns:xlink="http://www.w3.org/1999/xlink" viewBox="0 0 180 252"><defs><style>.cls-1{fill:#ea2629;}.cls-2{fill:#d61f37;}.cls-3{fill:#ec2327;}</style><symbol id="Heart-2" data-name="Heart-2" viewBox="0 0 104.5 105.9"><path class="cls-1" d="M95.61,10c-12-13.37-31.33-13.26-43.36.11h0s0,0,0,0h0C40.21-3.29,20.92-3.4,8.89,10s-11.76,34.88.28,48.25L52.25,105.9,95.33,58.22C107.36,44.85,107.65,23.35,95.61,10Z"/><path class="cls-2" d="M52.25,10.08h0C64.28-3.29,83.58-3.4,95.61,10s11.75,34.88-.28,48.25c0,0,0,0,0,0L52.25,105.9Z"/></symbol></defs><use width="104.5" height="105.9" transform="translate(74 62.64) scale(0.34)" xlink:href="#Heart-2"/><use width="104.5" height="105.9" transform="translate(109.76 189.35) rotate(180) scale(0.34 0.35)" xlink:href="#Heart-2"/><path class="cls-3" d="M10.6,25.43c1.37-1.8,4.87-6.56,6.27-8.68a3.58,3.58,0,0,0,.61-1.8c0-.9-.76-1.7-2.08-1.7a3.38,3.38,0,0,0-2.3,1.18.45.45,0,0,1-.66,0L11,13a.43.43,0,0,1,0-.61A6.78,6.78,0,0,1,15.71,10c3.38,0,5.37,2.15,5.37,4.78a6,6,0,0,1-.93,3.07c-.75,1.35-2.69,3.88-3.81,5.44h4.17a.47.47,0,0,1,.45.45V25.9a.47.47,0,0,1-.45.45H11.05a.45.45,0,0,1-.45-.45Z"/><path class="cls-3" d="M169.4,226.57c-1.37,1.8-4.87,6.56-6.27,8.68a3.58,3.58,0,0,0-.61,1.8c0,.9.76,1.7,2.08,1.7a3.38,3.38,0,0,0,2.3-1.18.45.45,0,0,1,.66,0L169,239a.43.43,0,0,1,0,.61,6.78,6.78,0,0,1-4.73,2.32c-3.38,0-5.37-2.15-5.37-4.78a6,6,0,0,1,.93-3.07c.75-1.35,2.69-3.88,3.81-5.44h-4.17a.47.47,0,0,1-.45-.45V226.1a.47.47,0,0,1,.45-.45H169a.45.45,0,0,1,.45.45Z"/><use width="104.5" height="105.9" transform="translate(5.95 32.77) scale(0.19)" xlink:href="#Heart-2"/><use width="104.5" height="105.9" transform="translate(174.05 219.23) rotate(180) scale(0.19)" xlink:href="#Heart-2"/></svg>