<svg id="Layer_1" data-name="Layer 1" xmlns="http://www.w3.org/2000/svg" xmlns:xlink="http://www.w3.org/1999/xlink" viewBox="0 0 180 252"><defs><style>.cls-1{fill:#e42128;}.cls-2{fill:#ec2327;}</style><symbol id="Heart" data-name="Heart" viewBox="0 0 104.5 105.9"><path class="cls-1" d="M52.25,10.08h0C64.28-3.29,83.58-3.4,95.61,10s11.75,34.88-.28,48.25c0,0,0,0,0,0L52.25,105.9Z"/><path class="cls-2" d="M52.25,10.08h0C40.21-3.29,20.92-3.4,8.89,10s-11.76,34.88.28,48.25c0,0,0,0,0,0L52.25,105.9Z"/></symbol><symbol id="Heart_medium" data-name="Heart medium" viewBox="0 0 36.84 37.34"><use width="104.5" height="105.9" transform="scale(0.35)" xlink:href="#Heart"/></symbol></defs><use width="104.5" height="105.9" transform="translate(5.8 30.52) scale(0.24)" xlink:href="#Heart"/><use width="104.5" height="105.9" transform="translate(178.12 221.26) rotate(180) scale(0.24)" xlink:href="#Heart"/><use width="36.84" height="37.34" transform="translate(74.08 47.33)" xlink:href="#Heart_medium"/><use width="36.84" height="37.34" transform="translate(74.08 108.33)" xlink:href="#Heart_medium"/><use width="36.84" height="37.34" transform="translate(111.92 206.67) rotate(180)" xlink:href="#Heart_medium"/><path class="cls-2" d="M12.74,23.77l1.49-1.49a.43.43,0,0,1,.59,0,5.69,5.69,0,0,0,2.61,1.09,2.07,2.07,0,0,0,2.05-1.9c0-1-1.06-1.91-2.81-1.91H15.34a.47.47,0,0,1-.44-.45v-2a.44.44,0,0,1,.44-.44h1.33c1.65,0,2.53-.81,2.53-1.83a1.83,1.83,0,0,0-1.89-1.77,2.66,2.66,0,0,0-2.06.95.45.45,0,0,1-.64,0l-1.44-1.42a.41.41,0,0,1,0-.61,7,7,0,0,1,4.52-2.08c2.74,0,5.1,1.67,5.1,4.32a4.28,4.28,0,0,1-2.43,3.67V18a4.71,4.71,0,0,1,2.86,4c0,2.58-2.25,4.52-5.51,4.52a6.16,6.16,0,0,1-5-2.1A.48.48,0,0,1,12.74,23.77Z"/><path class="cls-2" d="M173.17,228l-1.49,1.49a.45.45,0,0,1-.59,0,5.69,5.69,0,0,0-2.6-1.09,2.06,2.06,0,0,0-2.06,1.89c0,1,1.06,1.92,2.81,1.92h1.33a.47.47,0,0,1,.45.45v2a.45.45,0,0,1-.45.45h-1.33c-1.65,0-2.53.8-2.53,1.82a1.83,1.83,0,0,0,1.89,1.77,2.69,2.69,0,0,0,2.06-.94.46.46,0,0,1,.64,0l1.44,1.42a.42.42,0,0,1,0,.62,7,7,0,0,1-4.51,2.08c-2.75,0-5.11-1.68-5.11-4.33a4.28,4.28,0,0,1,2.43-3.67v-.07a4.71,4.71,0,0,1-2.86-4c0-2.58,2.25-4.52,5.51-4.52a6.11,6.11,0,0,1,5,2.11A.47.47,0,0,1,173.17,228Z"/></svg>