<svg id="Layer_1" data-name="Layer 1" xmlns="http://www.w3.org/2000/svg" xmlns:xlink="http://www.w3.org/1999/xlink" viewBox="0 0 180 252"><defs><style>.cls-1{fill:#e42128;}.cls-2{fill:#ec2327;}</style><symbol id="Heart" data-name="Heart" viewBox="0 0 104.5 105.9"><path class="cls-1" d="M52.25,10.08h0C64.28-3.29,83.58-3.4,95.61,10s11.75,34.88-.28,48.25c0,0,0,0,0,0L52.25,105.9Z"/><path class="cls-2" d="M52.25,10.08h0C40.21-3.29,20.92-3.4,8.89,10s-11.76,34.88.28,48.25c0,0,0,0,0,0L52.25,105.9Z"/></symbol><symbol id="Heart_medium" data-name="Heart medium" viewBox="0 0 36.84 37.34"><use width="104.5" height="105.9" transform="scale(0.35)" xlink:href="#Heart"/></symbol></defs><use width="104.5" height="105.9" transform="translate(5.8 30.52) scale(0.24)" xlink:href="#Heart"/><use width="104.5" height="105.9" transform="translate(178.12 221.26) rotate(180) scale(0.24)" xlink:href="#Heart"/><use width="36.84" height="37.34" transform="translate(38.52 46.94)" xlink:href="#Heart_medium"/><use width="36.84" height="37.34" transform="translate(110.74 46.94)" xlink:href="#Heart_medium"/><use width="36.84" height="37.34" transform="translate(147.59 206.28) rotate(180)" xlink:href="#Heart_medium"/><use width="36.84" height="37.34" transform="translate(75.59 206.28) rotate(180)" xlink:href="#Heart_medium"/><use width="36.84" height="37.34" transform="translate(38.74 107.83)" xlink:href="#Heart_medium"/><use width="36.84" height="37.34" transform="translate(110.97 107.83)" xlink:href="#Heart_medium"/><use width="36.84" height="37.34" transform="translate(74.94 77.72)" xlink:href="#Heart_medium"/><use width="36.84" height="37.34" transform="translate(111.42 176.67) rotate(180)" xlink:href="#Heart_medium"/><path class="cls-2" d="M15.84,18v-.07a4.51,4.51,0,0,1-2.43-3.67c0-2.65,2.36-4.32,5.25-4.32S24,11.59,24,14.24c0,1.8-1.51,3-2.43,3.65V18c1.06.59,2.88,1.94,2.88,4,0,2.58-2.27,4.52-5.81,4.52S13,24.53,13,22C13,19.87,15.39,18.24,15.84,18Zm2.89,5.58a1.9,1.9,0,0,0,1.91-1.77,2.46,2.46,0,0,0-1.94-2.18,2.49,2.49,0,0,0-1.91,2.18A1.88,1.88,0,0,0,18.73,23.56Zm1.65-9.18a1.67,1.67,0,0,0-3.33,0c0,.86.54,1.54,1.65,2A2.2,2.2,0,0,0,20.38,14.38Z"/><path class="cls-2" d="M170.07,233.79v.08a4.49,4.49,0,0,1,2.44,3.66c0,2.65-2.37,4.33-5.26,4.33s-5.36-1.68-5.36-4.33c0-1.8,1.51-3.05,2.43-3.64v-.1c-1.06-.59-2.88-1.94-2.88-4,0-2.58,2.27-4.52,5.81-4.52s5.71,1.94,5.71,4.52C173,231.9,170.52,233.53,170.07,233.79Zm-2.89-5.58a1.9,1.9,0,0,0-1.91,1.78,2.45,2.45,0,0,0,1.94,2.17,2.48,2.48,0,0,0,1.91-2.17A1.89,1.89,0,0,0,167.18,228.21Zm-1.65,9.18a1.67,1.67,0,0,0,3.33,0c0-.85-.54-1.54-1.65-2A2.19,2.19,0,0,0,165.53,237.39Z"/></svg>