<svg id="Layer_1" data-name="Layer 1" xmlns="http://www.w3.org/2000/svg" xmlns:xlink="http://www.w3.org/1999/xlink" viewBox="0 0 180 252"><defs><style>.cls-1{fill:#ea2629;}.cls-2{fill:#d61f37;}.cls-3{fill:#ec2327;}</style><symbol id="Heart-2" data-name="Heart-2" viewBox="0 0 104.5 105.9"><path class="cls-1" d="M95.61,10c-12-13.37-31.33-13.26-43.36.11h0s0,0,0,0h0C40.21-3.29,20.92-3.4,8.89,10s-11.76,34.88.28,48.25L52.25,105.9,95.33,58.22C107.36,44.85,107.65,23.35,95.61,10Z"/><path class="cls-2" d="M52.25,10.08h0C64.28-3.29,83.58-3.4,95.61,10s11.75,34.88-.28,48.25c0,0,0,0,0,0L52.25,105.9Z"/></symbol></defs><use width="104.5" height="105.9" transform="translate(37.39 33.87) scale(0.34)" xlink:href="#Heart-2"/><use width="104.5" height="105.9" transform="translate(109.62 33.87) scale(0.34)" xlink:href="#Heart-2"/><use width="104.5" height="105.9" transform="translate(145.61 219.35) rotate(180) scale(0.34)" xlink:href="#Heart-2"/><use width="104.5" height="105.9" transform="translate(73.61 219.35) rotate(180) scale(0.34)" xlink:href="#Heart-2"/><use width="104.5" height="105.9" transform="translate(37.62 83.76) scale(0.34)" xlink:href="#Heart-2"/><use width="104.5" height="105.9" transform="translate(109.84 83.76) scale(0.34)" xlink:href="#Heart-2"/><use width="104.5" height="105.9" transform="translate(37.45 133.26) scale(0.34)" xlink:href="#Heart-2"/><use width="104.5" height="105.9" transform="translate(109.45 133.26) scale(0.34)" xlink:href="#Heart-2"/><use width="104.5" height="105.9" transform="translate(73.45 59.26) scale(0.34)" xlink:href="#Heart-2"/><use width="104.5" height="105.9" transform="translate(109.42 194.24) rotate(180) scale(0.34)" xlink:href="#Heart-2"/><path class="cls-3" d="M8.84,15.25H6.57a.43.43,0,0,1-.42-.44V13.32A.67.67,0,0,1,6.29,13l3.45-2.7h2.18a.45.45,0,0,1,.42.45V25.9a.45.45,0,0,1-.42.45H9.29a.45.45,0,0,1-.45-.45Z"/><path class="cls-3" d="M13.83,18.31c0-5.18,2.2-8.28,6.06-8.28s6.05,3.1,6.05,8.28-2.2,8.27-6.05,8.27S13.83,23.49,13.83,18.31Zm8.31,0c0-3.1-.81-4.85-2.25-4.85s-2.25,1.75-2.25,4.85.81,4.84,2.25,4.84S22.14,21.43,22.14,18.31Z"/><path class="cls-3" d="M171.16,236.75h2.27a.43.43,0,0,1,.42.44v1.49a.67.67,0,0,1-.14.36l-3.45,2.7h-2.18a.45.45,0,0,1-.42-.45V226.1a.45.45,0,0,1,.42-.45h2.63a.45.45,0,0,1,.45.45Z"/><path class="cls-3" d="M166.64,233.69c0,5.18-2.2,8.28-6.06,8.28s-6.05-3.1-6.05-8.28,2.2-8.27,6.05-8.27S166.64,228.51,166.64,233.69Zm-8.3,0c0,3.1.8,4.85,2.24,4.85s2.25-1.75,2.25-4.85-.8-4.84-2.25-4.84S158.34,230.57,158.34,233.69Z"/><use width="104.5" height="105.9" transform="translate(5.95 32.77) scale(0.19)" xlink:href="#Heart-2"/><use width="104.5" height="105.9" transform="translate(174.05 219.23) rotate(180) scale(0.19)" xlink:href="#Heart-2"/></svg>