<svg id="Layer_1" data-name="Layer 1" xmlns="http://www.w3.org/2000/svg" xmlns:xlink="http://www.w3.org/1999/xlink" viewBox="0 0 180 252"><defs><style>.cls-1{fill:#e42128;}.cls-2{fill:#ec2327;}.cls-3{fill:#e8e751;}.cls-4{fill:#e2dd24;}.cls-5{fill:#fff;}.cls-6{fill:#eee;}.cls-7{fill:none;}</style><symbol id="Heart" data-name="Heart" viewBox="0 0 104.5 105.9"><path class="cls-1" d="M52.25,10.08h0C64.28-3.29,83.58-3.4,95.61,10s11.75,34.88-.28,48.25c0,0,0,0,0,0L52.25,105.9Z"/><path class="cls-2" d="M52.25,10.08h0C40.21-3.29,20.92-3.4,8.89,10s-11.76,34.88.28,48.25c0,0,0,0,0,0L52.25,105.9Z"/></symbol><symbol id="King" data-name="King" viewBox="0 0 108 104.17"><polygon class="cls-3" points="53.75 0 32.5 42.17 0 22.67 20.5 104.17 53.75 104.17 53.75 0"/><polygon class="cls-4" points="53.75 0 75 42.17 108 22.67 87 104.17 53.75 104.17 53.75 0"/><path class="cls-4" d="M3,100.67"/><path class="cls-5" d="M54,94.67a6,6,0,0,1,0-12Z"/><path class="cls-6" d="M54,94.67a6,6,0,1,0,0-12Z"/><path class="cls-5" d="M73,98.67a6,6,0,0,1,0-12Z"/><path class="cls-6" d="M73,98.67a6,6,0,0,0,0-12Z"/><path class="cls-5" d="M35,98.67a6,6,0,0,1,0-12Z"/><path class="cls-6" d="M35,98.67a6,6,0,0,0,0-12Z"/><path class="cls-7" d="M13,41.67"/></symbol></defs><use width="104.5" height="105.9" transform="translate(5.96 30.68) scale(0.24)" xlink:href="#Heart"/><use width="104.5" height="105.9" transform="translate(178.28 221.42) rotate(180) scale(0.24)" xlink:href="#Heart"/><path class="cls-2" d="M12.21,10.41a.56.56,0,0,1,.57-.56h2.76a.57.57,0,0,1,.57.56v6.22l5.25-6.55a.7.7,0,0,1,.45-.23h3a.55.55,0,0,1,.43.87l-5.54,6.93,6,7.85a.55.55,0,0,1-.44.88H22a.63.63,0,0,1-.42-.17l-5.47-7.42v7a.58.58,0,0,1-.57.57H12.78a.56.56,0,0,1-.57-.57Z"/><path class="cls-2" d="M172,241.7a.55.55,0,0,1-.56.56H168.7a.57.57,0,0,1-.57-.56v-6.23L162.88,242a.73.73,0,0,1-.45.23h-3a.54.54,0,0,1-.42-.87l5.53-6.93-6-7.85a.56.56,0,0,1,.45-.88h3.26a.61.61,0,0,1,.43.17l5.46,7.42v-7a.57.57,0,0,1,.57-.56h2.77a.55.55,0,0,1,.56.56Z"/><use width="108" height="104.17" transform="translate(39 74.92)" xlink:href="#King"/></svg>