<svg id="Layer_1" data-name="Layer 1" xmlns="http://www.w3.org/2000/svg" xmlns:xlink="http://www.w3.org/1999/xlink" viewBox="0 0 180 252"><defs><style>.cls-1{fill:#e42128;}.cls-2{fill:#ec2327;}</style><symbol id="Heart" data-name="Heart" viewBox="0 0 104.5 105.9"><path class="cls-1" d="M52.25,10.08h0C64.28-3.29,83.58-3.4,95.61,10s11.75,34.88-.28,48.25c0,0,0,0,0,0L52.25,105.9Z"/><path class="cls-2" d="M52.25,10.08h0C40.21-3.29,20.92-3.4,8.89,10s-11.76,34.88.28,48.25c0,0,0,0,0,0L52.25,105.9Z"/></symbol><symbol id="Heart_medium" data-name="Heart medium" viewBox="0 0 36.84 37.34"><use width="104.5" height="105.9" transform="scale(0.35)" xlink:href="#Heart"/></symbol></defs><use width="104.5" height="105.9" transform="translate(5.41 31.13) scale(0.24)" xlink:href="#Heart"/><use width="104.5" height="105.9" transform="translate(177.73 221.87) rotate(180) scale(0.24)" xlink:href="#Heart"/><use width="36.84" height="37.34" transform="translate(38.13 34.43)" xlink:href="#Heart_medium"/><use width="36.84" height="37.34" transform="translate(110.13 34.43)" xlink:href="#Heart_medium"/><use width="36.84" height="37.34" transform="translate(147.03 220.78) rotate(180)" xlink:href="#Heart_medium"/><use width="36.84" height="37.34" transform="translate(75.03 220.78) rotate(180)" xlink:href="#Heart_medium"/><use width="36.84" height="37.34" transform="translate(38.36 84.17)" xlink:href="#Heart_medium"/><use width="36.84" height="37.34" transform="translate(110.36 84.17)" xlink:href="#Heart_medium"/><use width="36.84" height="37.34" transform="translate(38.02 133.83)" xlink:href="#Heart_medium"/><use width="36.84" height="37.34" transform="translate(109.97 133.51)" xlink:href="#Heart_medium"/><use width="36.84" height="37.34" transform="translate(74.08 59.74)" xlink:href="#Heart_medium"/><use width="36.84" height="37.34" transform="translate(110.85 195.67) rotate(180)" xlink:href="#Heart_medium"/><path class="cls-2" d="M10.91,15.75H8.64a.44.44,0,0,1-.43-.45V13.81a.67.67,0,0,1,.14-.35l3.46-2.7H14a.45.45,0,0,1,.43.45V26.4a.45.45,0,0,1-.43.45H11.36a.45.45,0,0,1-.45-.45Z"/><path class="cls-2" d="M15.9,18.8c0-5.18,2.2-8.27,6.06-8.27S28,13.62,28,18.8s-2.2,8.28-6.05,8.28S15.9,24,15.9,18.8Zm8.3,0C24.2,15.71,23.4,14,22,14s-2.25,1.75-2.25,4.84.8,4.85,2.25,4.85S24.2,21.93,24.2,18.8Z"/><path class="cls-2" d="M173.22,237.24h2.28a.45.45,0,0,1,.42.45v1.49a.67.67,0,0,1-.14.36l-3.45,2.69h-2.18a.44.44,0,0,1-.43-.45V226.6a.44.44,0,0,1,.43-.45h2.63a.44.44,0,0,1,.44.45Z"/><path class="cls-2" d="M168.71,234.19c0,5.18-2.2,8.28-6.06,8.28s-6.05-3.1-6.05-8.28,2.2-8.28,6.05-8.28S168.71,229,168.71,234.19Zm-8.31,0c0,3.1.81,4.85,2.25,4.85s2.25-1.75,2.25-4.85-.81-4.85-2.25-4.85S160.4,231.07,160.4,234.19Z"/></svg>