<svg id="Layer_1" data-name="Layer 1" xmlns="http://www.w3.org/2000/svg" xmlns:xlink="http://www.w3.org/1999/xlink" viewBox="0 0 180 252"><defs><style>.cls-1{fill:#e42128;}.cls-2{fill:#ec2327;}</style><symbol id="Heart" data-name="Heart" viewBox="0 0 104.5 105.9"><path class="cls-1" d="M52.25,10.08h0C64.28-3.29,83.58-3.4,95.61,10s11.75,34.88-.28,48.25c0,0,0,0,0,0L52.25,105.9Z"/><path class="cls-2" d="M52.25,10.08h0C40.21-3.29,20.92-3.4,8.89,10s-11.76,34.88.28,48.25c0,0,0,0,0,0L52.25,105.9Z"/></symbol><symbol id="Heart_medium" data-name="Heart medium" viewBox="0 0 36.84 37.34"><use width="104.5" height="105.9" transform="scale(0.35)" xlink:href="#Heart"/></symbol></defs><use width="104.5" height="105.9" transform="translate(5.74 30.79) scale(0.24)" xlink:href="#Heart"/><use width="104.5" height="105.9" transform="translate(178.06 221.53) rotate(180) scale(0.24)" xlink:href="#Heart"/><use width="36.84" height="37.34" transform="translate(38.47 47.33)" xlink:href="#Heart_medium"/><use width="36.84" height="37.34" transform="translate(110.69 47.33)" xlink:href="#Heart_medium"/><use width="36.84" height="37.34" transform="translate(147.53 206.67) rotate(180)" xlink:href="#Heart_medium"/><use width="36.84" height="37.34" transform="translate(75.53 206.67) rotate(180)" xlink:href="#Heart_medium"/><use width="36.84" height="37.34" transform="translate(74.13 110.39)" xlink:href="#Heart_medium"/><path class="cls-2" d="M13.14,24l1.49-1.47a.47.47,0,0,1,.56-.07A6.82,6.82,0,0,0,18,23.58a2.19,2.19,0,0,0,2.25-2.25A2.25,2.25,0,0,0,17.82,19H14.18a.79.79,0,0,1-.74-.83V10.88a.45.45,0,0,1,.45-.45h7.62a.45.45,0,0,1,.45.45V13a.45.45,0,0,1-.45.45H16.64v2.53h1.68a5.15,5.15,0,0,1,5.39,5.39,5.61,5.61,0,0,1-5.84,5.42,6.27,6.27,0,0,1-4.69-2C12.88,24.43,12.85,24.26,13.14,24Z"/><path class="cls-2" d="M172.66,228.35l-1.49,1.46a.44.44,0,0,1-.56.07,6.85,6.85,0,0,0-2.82-1.13,2.19,2.19,0,0,0-2.25,2.25,2.25,2.25,0,0,0,2.44,2.29h3.64a.79.79,0,0,1,.74.83v7.33a.45.45,0,0,1-.45.45h-7.62a.45.45,0,0,1-.45-.45v-2.08a.45.45,0,0,1,.45-.45h4.87v-2.53h-1.68a5.15,5.15,0,0,1-5.39-5.39,5.61,5.61,0,0,1,5.84-5.42,6.27,6.27,0,0,1,4.69,2C172.92,227.9,173,228.06,172.66,228.35Z"/></svg>