<svg id="Layer_1" data-name="Layer 1" xmlns="http://www.w3.org/2000/svg" xmlns:xlink="http://www.w3.org/1999/xlink" viewBox="0 0 180 252"><defs><style>.cls-1{fill:#ea2629;}.cls-2{fill:#d61f37;}.cls-3{fill:#ec2327;}</style><symbol id="Heart-2" data-name="Heart-2" viewBox="0 0 104.5 105.9"><path class="cls-1" d="M95.61,10c-12-13.37-31.33-13.26-43.36.11h0s0,0,0,0h0C40.21-3.29,20.92-3.4,8.89,10s-11.76,34.88.28,48.25L52.25,105.9,95.33,58.22C107.36,44.85,107.65,23.35,95.61,10Z"/><path class="cls-2" d="M52.25,10.08h0C64.28-3.29,83.58-3.4,95.61,10s11.75,34.88-.28,48.25c0,0,0,0,0,0L52.25,105.9Z"/></symbol></defs><use width="104.5" height="105.9" transform="translate(37.89 72.26) scale(0.34)" xlink:href="#Heart-2"/><use width="104.5" height="105.9" transform="translate(110.12 72.26) scale(0.34)" xlink:href="#Heart-2"/><use width="104.5" height="105.9" transform="translate(146.11 179.74) rotate(180) scale(0.34)" xlink:href="#Heart-2"/><use width="104.5" height="105.9" transform="translate(74.11 179.74) rotate(180) scale(0.34)" xlink:href="#Heart-2"/><path class="cls-3" d="M9.39,22.56v-2.5l8.25-9.91A.41.41,0,0,1,18,10H19.7a.45.45,0,0,1,.45.45l0,9.7H22a.43.43,0,0,1,.45.43v2A.45.45,0,0,1,22,23H20.17l0,2.91a.47.47,0,0,1-.45.45H17.21a.48.48,0,0,1-.45-.45V23H9.83A.44.44,0,0,1,9.39,22.56Zm7.47-2.48v-4.4l-3.76,4.4Z"/><path class="cls-3" d="M170.61,229.44v2.5l-8.25,9.91a.41.41,0,0,1-.35.15H160.3a.45.45,0,0,1-.45-.45l0-9.7H158a.43.43,0,0,1-.45-.43v-2A.45.45,0,0,1,158,229h1.87l0-2.91a.47.47,0,0,1,.45-.45h2.53a.48.48,0,0,1,.45.45V229h6.93A.44.44,0,0,1,170.61,229.44Zm-7.47,2.48v4.4l3.76-4.4Z"/><use width="104.5" height="105.9" transform="translate(5.95 32.77) scale(0.19)" xlink:href="#Heart-2"/><use width="104.5" height="105.9" transform="translate(174.05 219.23) rotate(180) scale(0.19)" xlink:href="#Heart-2"/></svg>