<svg id="Layer_1" data-name="Layer 1" xmlns="http://www.w3.org/2000/svg" xmlns:xlink="http://www.w3.org/1999/xlink" viewBox="0 0 180 252"><defs><style>.cls-1{fill:#e42128;}.cls-2{fill:#ec2327;}</style><symbol id="Heart" data-name="Heart" viewBox="0 0 104.5 105.9"><path class="cls-1" d="M52.25,10.08h0C64.28-3.29,83.58-3.4,95.61,10s11.75,34.88-.28,48.25c0,0,0,0,0,0L52.25,105.9Z"/><path class="cls-2" d="M52.25,10.08h0C40.21-3.29,20.92-3.4,8.89,10s-11.76,34.88.28,48.25c0,0,0,0,0,0L52.25,105.9Z"/></symbol><symbol id="Heart_medium" data-name="Heart medium" viewBox="0 0 36.84 37.34"><use width="104.5" height="105.9" transform="scale(0.35)" xlink:href="#Heart"/></symbol></defs><use width="104.5" height="105.9" transform="translate(5.52 30.91) scale(0.24)" xlink:href="#Heart"/><use width="104.5" height="105.9" transform="translate(177.84 221.65) rotate(180) scale(0.24)" xlink:href="#Heart"/><use width="36.84" height="37.34" transform="translate(38.24 47.33)" xlink:href="#Heart_medium"/><use width="36.84" height="37.34" transform="translate(110.47 47.33)" xlink:href="#Heart_medium"/><use width="36.84" height="37.34" transform="translate(147.31 206.67) rotate(180)" xlink:href="#Heart_medium"/><use width="36.84" height="37.34" transform="translate(75.31 206.67) rotate(180)" xlink:href="#Heart_medium"/><use width="36.84" height="37.34" transform="translate(38.47 108.22)" xlink:href="#Heart_medium"/><use width="36.84" height="37.34" transform="translate(110.69 108.22)" xlink:href="#Heart_medium"/><path class="cls-2" d="M20.55,10a.55.55,0,0,1,.74.38L22,12.22c.1.28,0,.54-.45.69-1.11.35-4.25,1.44-4.75,3.87A6.81,6.81,0,0,1,19,16.31a4.75,4.75,0,0,1,4.7,5.13,5.45,5.45,0,0,1-5.41,5.42c-3.67,0-5.7-2.74-5.7-6.43C12.61,13.47,18.52,10.66,20.55,10ZM18.26,23.6A2.29,2.29,0,1,0,16,21.33,2.29,2.29,0,0,0,18.26,23.6Z"/><path class="cls-2" d="M164.8,242.53a.54.54,0,0,1-.73-.38l-.69-1.82c-.09-.28,0-.54.45-.68,1.11-.36,4.26-1.45,4.76-3.88a6.86,6.86,0,0,1-2.25.47,4.75,4.75,0,0,1-4.71-5.13,5.45,5.45,0,0,1,5.42-5.42c3.66,0,5.7,2.75,5.7,6.43C172.75,239.08,166.84,241.89,164.8,242.53ZM167.1,229a2.28,2.28,0,1,0,2.27,2.27A2.28,2.28,0,0,0,167.1,229Z"/></svg>