<svg id="Layer_1" data-name="Layer 1" xmlns="http://www.w3.org/2000/svg" xmlns:xlink="http://www.w3.org/1999/xlink" viewBox="0 0 180 252"><defs><style>.cls-1{fill:#ea2629;}.cls-2{fill:#d61f37;}.cls-3{fill:#ec2327;}</style><symbol id="Heart-2" data-name="Heart-2" viewBox="0 0 104.5 105.9"><path class="cls-1" d="M95.61,10c-12-13.37-31.33-13.26-43.36.11h0s0,0,0,0h0C40.21-3.29,20.92-3.4,8.89,10s-11.76,34.88.28,48.25L52.25,105.9,95.33,58.22C107.36,44.85,107.65,23.35,95.61,10Z"/><path class="cls-2" d="M52.25,10.08h0C64.28-3.29,83.58-3.4,95.61,10s11.75,34.88-.28,48.25c0,0,0,0,0,0L52.25,105.9Z"/></symbol></defs><use width="104.5" height="105.9" transform="translate(37.95 46.37) scale(0.34)" xlink:href="#Heart-2"/><use width="104.5" height="105.9" transform="translate(110.17 46.37) scale(0.34)" xlink:href="#Heart-2"/><use width="104.5" height="105.9" transform="translate(146.16 204.85) rotate(180) scale(0.34)" xlink:href="#Heart-2"/><use width="104.5" height="105.9" transform="translate(74.16 204.85) rotate(180) scale(0.34)" xlink:href="#Heart-2"/><use width="104.5" height="105.9" transform="translate(38.17 107.26) scale(0.34)" xlink:href="#Heart-2"/><use width="104.5" height="105.9" transform="translate(110.39 107.26) scale(0.34)" xlink:href="#Heart-2"/><use width="104.5" height="105.9" transform="translate(74.37 77.15) scale(0.34)" xlink:href="#Heart-2"/><use width="104.5" height="105.9" transform="translate(110 175.24) rotate(180) scale(0.34)" xlink:href="#Heart-2"/><path class="cls-3" d="M12.89,18.09V18a4.5,4.5,0,0,1-2.44-3.66c0-2.65,2.37-4.33,5.25-4.33s5.37,1.68,5.37,4.33c0,1.79-1.51,3.05-2.44,3.64v.09c1.07.59,2.89,1.94,2.89,4,0,2.57-2.27,4.51-5.82,4.51S10,24.64,10,22.07C10,20,12.44,18.35,12.89,18.09Zm2.88,5.59a1.9,1.9,0,0,0,1.92-1.78,2.47,2.47,0,0,0-1.94-2.18,2.52,2.52,0,0,0-1.92,2.18A1.89,1.89,0,0,0,15.77,23.68Zm1.66-9.18a1.68,1.68,0,0,0-3.34,0c0,.85.55,1.54,1.66,2A2.2,2.2,0,0,0,17.43,14.5Z"/><path class="cls-3" d="M167.11,233.91V234a4.5,4.5,0,0,1,2.44,3.66c0,2.65-2.36,4.33-5.25,4.33s-5.37-1.68-5.37-4.33c0-1.79,1.52-3,2.44-3.64v-.09c-1.07-.59-2.89-1.94-2.89-4,0-2.57,2.27-4.51,5.82-4.51s5.7,1.94,5.7,4.51C170,232,167.56,233.65,167.11,233.91Zm-2.88-5.59a1.9,1.9,0,0,0-1.92,1.78,2.49,2.49,0,0,0,1.94,2.18,2.52,2.52,0,0,0,1.92-2.18A1.89,1.89,0,0,0,164.23,228.32Zm-1.66,9.18a1.68,1.68,0,0,0,3.34,0c0-.85-.55-1.54-1.66-2A2.2,2.2,0,0,0,162.57,237.5Z"/><use width="104.5" height="105.9" transform="translate(5.95 32.77) scale(0.19)" xlink:href="#Heart-2"/><use width="104.5" height="105.9" transform="translate(174.05 219.23) rotate(180) scale(0.19)" xlink:href="#Heart-2"/></svg>