<svg id="Layer_1" data-name="Layer 1" xmlns="http://www.w3.org/2000/svg" xmlns:xlink="http://www.w3.org/1999/xlink" viewBox="0 0 180 252"><defs><style>.cls-1{fill:#e8e752;}.cls-2{fill:#e2dd24;}.cls-3{fill:#fff;}.cls-4{fill:#eee;}.cls-5{fill:#241f21;}.cls-6{fill:none;stroke:#231f20;stroke-miterlimit:10;}</style><symbol id="SPade" data-name="SPade" viewBox="0 0 101.42 106.5"><path class="cls-5" d="M50.71,83.63c0,13.23-8.81,22.87-22,22.87H72.75C59.52,106.5,50.71,96.86,50.71,83.63Z"/><path class="cls-5" d="M92.52,41.65,50.71,0,8.9,41.65a29.63,29.63,0,1,0,41.81,42h0s0,0,0,0h0a29.63,29.63,0,1,0,41.81-42Z"/><path class="cls-6" d="M63.21,70"/><path d="M50.71,83.63h0a29.63,29.63,0,1,0,41.81-42h0L50.71,0Z"/><path d="M50.71,83.63c0,13.23,8.81,22.87,22,22.87h-22Z"/></symbol><symbol id="Queen" data-name="Queen" viewBox="0 0 98 104.5"><polygon class="cls-1" points="49 50.79 33 0 28 50 0 9 15.25 104.5 49 104.5 49 50.79"/><polygon class="cls-2" points="49 50.79 65 0 70 50 98 9 82.75 104.5 49 104.5 49 50.79"/><path class="cls-3" d="M34,99a6,6,0,0,1,0-12Z"/><path class="cls-4" d="M34,99a6,6,0,0,0,0-12Z"/><path class="cls-3" d="M65,99a6,6,0,0,1,0-12Z"/><path class="cls-4" d="M65,99a6,6,0,0,0,0-12Z"/></symbol></defs><path class="cls-5" d="M16.37,9.05a8.51,8.51,0,0,1,8.52,8.54A8.86,8.86,0,0,1,20.51,25l3,4.78a.45.45,0,0,1-.38.71H20a.44.44,0,0,1-.38-.24l-2.5-4.23c-.29,0-.57,0-.74,0a8.52,8.52,0,0,1,0-17Zm0,13.25a4.73,4.73,0,1,0-4.7-4.71A4.74,4.74,0,0,0,16.37,22.3Z"/><path class="cls-5" d="M163.63,243a8.51,8.51,0,0,1-8.52-8.54,8.86,8.86,0,0,1,4.38-7.45l-3.05-4.78a.45.45,0,0,1,.38-.71H160a.44.44,0,0,1,.38.24l2.5,4.23c.29,0,.57,0,.74,0a8.52,8.52,0,0,1,0,17Zm0-13.25a4.73,4.73,0,1,0,4.7,4.71A4.74,4.74,0,0,0,163.63,229.7Z"/><use width="101.42" height="106.5" transform="translate(5.16 31.56) scale(0.22)" xlink:href="#SPade"/><use width="101.42" height="106.5" transform="translate(174.84 220.44) rotate(180) scale(0.22)" xlink:href="#SPade"/><use width="98" height="104.5" transform="translate(42 73.75)" xlink:href="#Queen"/></svg>