<svg id="Layer_1" data-name="Layer 1" xmlns="http://www.w3.org/2000/svg" xmlns:xlink="http://www.w3.org/1999/xlink" viewBox="0 0 180 252"><defs><style>.cls-1{fill:#241f21;}.cls-2{fill:none;stroke:#231f20;stroke-miterlimit:10;}</style><symbol id="SPade" data-name="SPade" viewBox="0 0 101.42 106.5"><path class="cls-1" d="M50.71,83.63c0,13.23-8.81,22.87-22,22.87H72.75C59.52,106.5,50.71,96.86,50.71,83.63Z"/><path class="cls-1" d="M92.52,41.65,50.71,0,8.9,41.65a29.63,29.63,0,1,0,41.81,42h0s0,0,0,0h0a29.63,29.63,0,1,0,41.81-42Z"/><path class="cls-2" d="M63.21,70"/><path d="M50.71,83.63h0a29.63,29.63,0,1,0,41.81-42h0L50.71,0Z"/><path d="M50.71,83.63c0,13.23,8.81,22.87,22,22.87h-22Z"/></symbol></defs><use width="101.42" height="106.5" transform="translate(37.67 45.42) scale(0.36)" xlink:href="#SPade"/><use width="101.42" height="106.5" transform="translate(109.89 45.42) scale(0.36)" xlink:href="#SPade"/><use width="101.42" height="106.5" transform="translate(146.44 205.81) rotate(180) scale(0.36)" xlink:href="#SPade"/><use width="101.42" height="106.5" transform="translate(74.44 205.81) rotate(180) scale(0.36)" xlink:href="#SPade"/><use width="101.42" height="106.5" transform="translate(37.89 106.31) scale(0.36)" xlink:href="#SPade"/><use width="101.42" height="106.5" transform="translate(110.11 106.31) scale(0.36)" xlink:href="#SPade"/><use width="101.42" height="106.5" transform="translate(74.09 76.19) scale(0.36)" xlink:href="#SPade"/><use width="101.42" height="106.5" transform="translate(110.28 176.19) rotate(180) scale(0.36)" xlink:href="#SPade"/><path class="cls-1" d="M12.89,18.09V18a4.5,4.5,0,0,1-2.44-3.66c0-2.65,2.37-4.33,5.25-4.33s5.37,1.68,5.37,4.33c0,1.79-1.51,3.05-2.44,3.64v.09c1.07.59,2.89,1.94,2.89,4,0,2.57-2.27,4.51-5.82,4.51S10,24.64,10,22.07C10,20,12.44,18.35,12.89,18.09Zm2.88,5.59a1.9,1.9,0,0,0,1.92-1.78,2.47,2.47,0,0,0-1.94-2.18,2.52,2.52,0,0,0-1.92,2.18A1.89,1.89,0,0,0,15.77,23.68Zm1.66-9.18a1.68,1.68,0,0,0-3.34,0c0,.85.55,1.54,1.66,2A2.2,2.2,0,0,0,17.43,14.5Z"/><path class="cls-1" d="M167.11,233.91V234a4.5,4.5,0,0,1,2.44,3.66c0,2.65-2.36,4.33-5.25,4.33s-5.37-1.68-5.37-4.33c0-1.79,1.52-3,2.44-3.64v-.09c-1.07-.59-2.89-1.94-2.89-4,0-2.57,2.27-4.51,5.82-4.51s5.7,1.94,5.7,4.51C170,232,167.56,233.65,167.11,233.91Zm-2.88-5.59a1.9,1.9,0,0,0-1.92,1.78,2.49,2.49,0,0,0,1.94,2.18,2.52,2.52,0,0,0,1.92-2.18A1.89,1.89,0,0,0,164.23,228.32Zm-1.66,9.18a1.68,1.68,0,0,0,3.34,0c0-.85-.55-1.54-1.66-2A2.2,2.2,0,0,0,162.57,237.5Z"/><use width="101.42" height="106.5" transform="translate(5.16 31.56) scale(0.22)" xlink:href="#SPade"/><use width="101.42" height="106.5" transform="translate(174.84 220.44) rotate(180) scale(0.22)" xlink:href="#SPade"/></svg>