<svg id="Layer_1" data-name="Layer 1" xmlns="http://www.w3.org/2000/svg" xmlns:xlink="http://www.w3.org/1999/xlink" viewBox="0 0 180 252"><defs><style>.cls-1{fill:#241f21;}.cls-2{fill:none;stroke:#231f20;stroke-miterlimit:10;}</style><symbol id="Spade" data-name="Spade" viewBox="0 0 101.42 106.5"><path class="cls-1" d="M50.71,83.63h0a29.63,29.63,0,1,1-41.81-42s0,0,0,0L50.71,0Z"/><path class="cls-1" d="M50.71,83.63c0,13.23-8.81,22.87-22,22.87h22Z"/><path class="cls-2" d="M63.21,70"/><path d="M50.71,83.63h0a29.63,29.63,0,1,0,41.81-42h0L50.71,0Z"/><path d="M50.71,83.63c0,13.23,8.81,22.87,22,22.87h-22Z"/></symbol><symbol id="Spade_medium" data-name="Spade medium" viewBox="0 0 35.76 37.55"><use width="101.42" height="106.5" transform="scale(0.35)" xlink:href="#Spade"/></symbol></defs><use width="35.76" height="37.55" transform="translate(76.12 62.1)" xlink:href="#Spade_medium"/><use width="35.76" height="37.55" transform="translate(111.65 189.89) rotate(180) scale(0.99 1)" xlink:href="#Spade_medium"/><use width="101.42" height="106.5" transform="translate(7.49 29.45) scale(0.24)" xlink:href="#Spade"/><use width="101.42" height="106.5" transform="translate(179.09 220.33) rotate(180) scale(0.24)" xlink:href="#Spade"/><path class="cls-1" d="M12.89,24.31c1.37-1.8,4.87-6.55,6.26-8.68a3.44,3.44,0,0,0,.62-1.8,1.85,1.85,0,0,0-2.08-1.7,3.42,3.42,0,0,0-2.3,1.18.45.45,0,0,1-.66,0l-1.44-1.46a.44.44,0,0,1,0-.62A6.79,6.79,0,0,1,18,8.92c3.38,0,5.36,2.15,5.36,4.77a6,6,0,0,1-.92,3.08c-.75,1.35-2.69,3.88-3.81,5.44H22.8a.47.47,0,0,1,.45.45v2.13a.47.47,0,0,1-.45.44H13.34a.45.45,0,0,1-.45-.44Z"/><path class="cls-1" d="M173.69,225.46c-1.37,1.8-4.87,6.55-6.27,8.68a3.55,3.55,0,0,0-.61,1.8c0,.9.76,1.7,2.08,1.7a3.35,3.35,0,0,0,2.29-1.18.47.47,0,0,1,.67,0l1.44,1.47a.44.44,0,0,1,0,.61,6.78,6.78,0,0,1-4.73,2.32c-3.38,0-5.37-2.15-5.37-4.78a6,6,0,0,1,.93-3.07c.75-1.35,2.69-3.88,3.8-5.44h-4.16a.47.47,0,0,1-.45-.45V225a.46.46,0,0,1,.45-.45h9.46a.45.45,0,0,1,.45.45Z"/></svg>