<svg id="Layer_1" data-name="Layer 1" xmlns="http://www.w3.org/2000/svg" xmlns:xlink="http://www.w3.org/1999/xlink" viewBox="0 0 180 252"><defs><style>.cls-1{fill:#241f21;}.cls-2{fill:none;stroke:#231f20;stroke-miterlimit:10;}</style><symbol id="SPade" data-name="SPade" viewBox="0 0 101.42 106.5"><path class="cls-1" d="M50.71,83.63c0,13.23-8.81,22.87-22,22.87H72.75C59.52,106.5,50.71,96.86,50.71,83.63Z"/><path class="cls-1" d="M92.52,41.65,50.71,0,8.9,41.65a29.63,29.63,0,1,0,41.81,42h0s0,0,0,0h0a29.63,29.63,0,1,0,41.81-42Z"/><path class="cls-2" d="M63.21,70"/><path d="M50.71,83.63h0a29.63,29.63,0,1,0,41.81-42h0L50.71,0Z"/><path d="M50.71,83.63c0,13.23,8.81,22.87,22,22.87h-22Z"/></symbol></defs><use width="101.42" height="106.5" transform="translate(37.61 45.81) scale(0.36)" xlink:href="#SPade"/><use width="101.42" height="106.5" transform="translate(109.83 45.81) scale(0.36)" xlink:href="#SPade"/><use width="101.42" height="106.5" transform="translate(146.39 206.19) rotate(180) scale(0.36)" xlink:href="#SPade"/><use width="101.42" height="106.5" transform="translate(74.39 206.19) rotate(180) scale(0.36)" xlink:href="#SPade"/><use width="101.42" height="106.5" transform="translate(73.28 108.86) scale(0.36)" xlink:href="#SPade"/><path class="cls-1" d="M10.74,23.82l1.49-1.47a.45.45,0,0,1,.56-.07,6.82,6.82,0,0,0,2.82,1.14,2.19,2.19,0,0,0,2.25-2.25,2.25,2.25,0,0,0-2.44-2.3H11.78a.79.79,0,0,1-.74-.82V10.71a.45.45,0,0,1,.45-.44h7.62a.45.45,0,0,1,.45.44V12.8a.45.45,0,0,1-.45.45H14.24v2.53h1.68a5.15,5.15,0,0,1,5.39,5.39,5.61,5.61,0,0,1-5.84,5.41,6.27,6.27,0,0,1-4.69-2C10.48,24.27,10.45,24.1,10.74,23.82Z"/><path class="cls-1" d="M169.26,228.18l-1.49,1.47a.45.45,0,0,1-.56.07,6.82,6.82,0,0,0-2.82-1.14,2.19,2.19,0,0,0-2.25,2.25,2.25,2.25,0,0,0,2.44,2.3h3.64a.79.79,0,0,1,.74.82v7.34a.45.45,0,0,1-.45.44h-7.62a.45.45,0,0,1-.45-.44V239.2a.45.45,0,0,1,.45-.45h4.87v-2.53h-1.68a5.15,5.15,0,0,1-5.39-5.39,5.61,5.61,0,0,1,5.84-5.41,6.27,6.27,0,0,1,4.69,2C169.52,227.73,169.55,227.9,169.26,228.18Z"/><use width="101.42" height="106.5" transform="translate(5.16 31.56) scale(0.22)" xlink:href="#SPade"/><use width="101.42" height="106.5" transform="translate(174.84 220.44) rotate(180) scale(0.22)" xlink:href="#SPade"/></svg>