<svg id="Layer_1" data-name="Layer 1" xmlns="http://www.w3.org/2000/svg" xmlns:xlink="http://www.w3.org/1999/xlink" viewBox="0 0 180 252"><defs><style>.cls-1{fill:#241f21;}.cls-2{fill:none;stroke:#231f20;stroke-miterlimit:10;}</style><symbol id="SPade" data-name="SPade" viewBox="0 0 101.42 106.5"><path class="cls-1" d="M50.71,83.63c0,13.23-8.81,22.87-22,22.87H72.75C59.52,106.5,50.71,96.86,50.71,83.63Z"/><path class="cls-1" d="M92.52,41.65,50.71,0,8.9,41.65a29.63,29.63,0,1,0,41.81,42h0s0,0,0,0h0a29.63,29.63,0,1,0,41.81-42Z"/><path class="cls-2" d="M63.21,70"/><path d="M50.71,83.63h0a29.63,29.63,0,1,0,41.81-42h0L50.71,0Z"/><path d="M50.71,83.63c0,13.23,8.81,22.87,22,22.87h-22Z"/></symbol></defs><use width="101.42" height="106.5" transform="translate(38.28 46.03) scale(0.36)" xlink:href="#SPade"/><use width="101.42" height="106.5" transform="translate(110.5 46.03) scale(0.36)" xlink:href="#SPade"/><use width="101.42" height="106.5" transform="translate(147.06 206.42) rotate(180) scale(0.36)" xlink:href="#SPade"/><use width="101.42" height="106.5" transform="translate(75.06 206.42) rotate(180) scale(0.36)" xlink:href="#SPade"/><use width="101.42" height="106.5" transform="translate(38.5 106.92) scale(0.36)" xlink:href="#SPade"/><use width="101.42" height="106.5" transform="translate(110.72 106.92) scale(0.36)" xlink:href="#SPade"/><use width="101.42" height="106.5" transform="translate(74.7 76.81) scale(0.36)" xlink:href="#SPade"/><path class="cls-1" d="M10.43,25.64l5.91-12.35H10.86a.46.46,0,0,1-.45-.45V10.71a.47.47,0,0,1,.45-.45h10a.48.48,0,0,1,.45.45v.17L14.21,25.66a1,1,0,0,1-1,.69H10.9a.45.45,0,0,1-.47-.45Z"/><path class="cls-1" d="M169.57,226.36l-5.91,12.35h5.48a.46.46,0,0,1,.45.45v2.13a.47.47,0,0,1-.45.45h-10a.48.48,0,0,1-.45-.45v-.17l7.08-14.78a1,1,0,0,1,1-.69h2.34a.45.45,0,0,1,.47.45Z"/><use width="101.42" height="106.5" transform="translate(5.16 31.56) scale(0.22)" xlink:href="#SPade"/><use width="101.42" height="106.5" transform="translate(174.84 220.44) rotate(180) scale(0.22)" xlink:href="#SPade"/></svg>