<svg id="Layer_1" data-name="Layer 1" xmlns="http://www.w3.org/2000/svg" xmlns:xlink="http://www.w3.org/1999/xlink" viewBox="0 0 180 252"><defs><style>.cls-1{fill:#241f21;}.cls-2{fill:none;stroke:#231f20;stroke-miterlimit:10;}</style><symbol id="SPade" data-name="SPade" viewBox="0 0 101.42 106.5"><path class="cls-1" d="M50.71,83.63c0,13.23-8.81,22.87-22,22.87H72.75C59.52,106.5,50.71,96.86,50.71,83.63Z"/><path class="cls-1" d="M92.52,41.65,50.71,0,8.9,41.65a29.63,29.63,0,1,0,41.81,42h0s0,0,0,0h0a29.63,29.63,0,1,0,41.81-42Z"/><path class="cls-2" d="M63.21,70"/><path d="M50.71,83.63h0a29.63,29.63,0,1,0,41.81-42h0L50.71,0Z"/><path d="M50.71,83.63c0,13.23,8.81,22.87,22,22.87h-22Z"/></symbol></defs><use width="101.42" height="106.5" transform="translate(37.61 71.31) scale(0.36)" xlink:href="#SPade"/><use width="101.42" height="106.5" transform="translate(109.83 71.31) scale(0.36)" xlink:href="#SPade"/><use width="101.42" height="106.5" transform="translate(146.39 180.69) rotate(180) scale(0.36)" xlink:href="#SPade"/><use width="101.42" height="106.5" transform="translate(74.39 180.69) rotate(180) scale(0.36)" xlink:href="#SPade"/><path class="cls-1" d="M9.39,22.56v-2.5l8.25-9.91A.41.41,0,0,1,18,10H19.7a.45.45,0,0,1,.45.45l0,9.7H22a.43.43,0,0,1,.45.43v2A.45.45,0,0,1,22,23H20.17l0,2.91a.47.47,0,0,1-.45.45H17.21a.48.48,0,0,1-.45-.45V23H9.83A.44.44,0,0,1,9.39,22.56Zm7.47-2.48v-4.4l-3.76,4.4Z"/><path class="cls-1" d="M170.61,229.44v2.5l-8.25,9.91a.41.41,0,0,1-.35.15H160.3a.45.45,0,0,1-.45-.45l0-9.7H158a.43.43,0,0,1-.45-.43v-2A.45.45,0,0,1,158,229h1.87l0-2.91a.47.47,0,0,1,.45-.45h2.53a.48.48,0,0,1,.45.45V229h6.93A.44.44,0,0,1,170.61,229.44Zm-7.47,2.48v4.4l3.76-4.4Z"/><use width="101.42" height="106.5" transform="translate(5.16 31.56) scale(0.22)" xlink:href="#SPade"/><use width="101.42" height="106.5" transform="translate(174.84 220.44) rotate(180) scale(0.22)" xlink:href="#SPade"/></svg>