<svg id="Layer_1" data-name="Layer 1" xmlns="http://www.w3.org/2000/svg" xmlns:xlink="http://www.w3.org/1999/xlink" viewBox="0 0 180 252"><defs><style>.cls-1{fill:#241f21;}.cls-2{fill:none;stroke:#231f20;stroke-miterlimit:10;}</style><symbol id="SPade" data-name="SPade" viewBox="0 0 101.42 106.5"><path class="cls-1" d="M50.71,83.63c0,13.23-8.81,22.87-22,22.87H72.75C59.52,106.5,50.71,96.86,50.71,83.63Z"/><path class="cls-1" d="M92.52,41.65,50.71,0,8.9,41.65a29.63,29.63,0,1,0,41.81,42h0s0,0,0,0h0a29.63,29.63,0,1,0,41.81-42Z"/><path class="cls-2" d="M63.21,70"/><path d="M50.71,83.63h0a29.63,29.63,0,1,0,41.81-42h0L50.71,0Z"/><path d="M50.71,83.63c0,13.23,8.81,22.87,22,22.87h-22Z"/></symbol></defs><use width="101.42" height="106.5" transform="translate(73.72 61.68) scale(0.36)" xlink:href="#SPade"/><use width="101.42" height="106.5" transform="translate(110.04 190.31) rotate(180) scale(0.36 0.36)" xlink:href="#SPade"/><path class="cls-1" d="M10.6,25.43c1.37-1.8,4.87-6.56,6.27-8.68a3.58,3.58,0,0,0,.61-1.8c0-.9-.76-1.7-2.08-1.7a3.38,3.38,0,0,0-2.3,1.18.45.45,0,0,1-.66,0L11,13a.43.43,0,0,1,0-.61A6.78,6.78,0,0,1,15.71,10c3.38,0,5.37,2.15,5.37,4.78a6,6,0,0,1-.93,3.07c-.75,1.35-2.69,3.88-3.81,5.44h4.17a.47.47,0,0,1,.45.45V25.9a.47.47,0,0,1-.45.45H11.05a.45.45,0,0,1-.45-.45Z"/><path class="cls-1" d="M169.4,226.57c-1.37,1.8-4.87,6.56-6.27,8.68a3.58,3.58,0,0,0-.61,1.8c0,.9.76,1.7,2.08,1.7a3.38,3.38,0,0,0,2.3-1.18.45.45,0,0,1,.66,0L169,239a.43.43,0,0,1,0,.61,6.78,6.78,0,0,1-4.73,2.32c-3.38,0-5.37-2.15-5.37-4.78a6,6,0,0,1,.93-3.07c.75-1.35,2.69-3.88,3.81-5.44h-4.17a.47.47,0,0,1-.45-.45V226.1a.47.47,0,0,1,.45-.45H169a.45.45,0,0,1,.45.45Z"/><use width="101.42" height="106.5" transform="translate(5.16 31.56) scale(0.22)" xlink:href="#SPade"/><use width="101.42" height="106.5" transform="translate(174.84 220.44) rotate(180) scale(0.22)" xlink:href="#SPade"/></svg>