<svg id="Layer_1" data-name="Layer 1" xmlns="http://www.w3.org/2000/svg" xmlns:xlink="http://www.w3.org/1999/xlink" viewBox="0 0 180 252"><defs><style>.cls-1{fill:#241f21;}.cls-2{fill:none;stroke:#231f20;stroke-miterlimit:10;}</style><symbol id="Spade" data-name="Spade" viewBox="0 0 101.42 106.5"><path class="cls-1" d="M50.71,83.63h0a29.63,29.63,0,1,1-41.81-42s0,0,0,0L50.71,0Z"/><path class="cls-1" d="M50.71,83.63c0,13.23-8.81,22.87-22,22.87h22Z"/><path class="cls-2" d="M63.21,70"/><path d="M50.71,83.63h0a29.63,29.63,0,1,0,41.81-42h0L50.71,0Z"/><path d="M50.71,83.63c0,13.23,8.81,22.87,22,22.87h-22Z"/></symbol><symbol id="Spade_medium" data-name="Spade medium" viewBox="0 0 35.76 37.55"><use width="101.42" height="106.5" transform="scale(0.35)" xlink:href="#Spade"/></symbol></defs><use width="35.76" height="37.55" transform="translate(39.79 46.22)" xlink:href="#Spade_medium"/><use width="35.76" height="37.55" transform="translate(112.01 46.22)" xlink:href="#Spade_medium"/><use width="35.76" height="37.55" transform="translate(147.77 205.78) rotate(180)" xlink:href="#Spade_medium"/><use width="35.76" height="37.55" transform="translate(75.77 205.78) rotate(180)" xlink:href="#Spade_medium"/><use width="35.76" height="37.55" transform="translate(40.01 107.11)" xlink:href="#Spade_medium"/><use width="35.76" height="37.55" transform="translate(112.23 107.11)" xlink:href="#Spade_medium"/><use width="101.42" height="106.5" transform="translate(6.88 29.84) scale(0.24)" xlink:href="#Spade"/><use width="101.42" height="106.5" transform="translate(178.48 220.72) rotate(180) scale(0.24)" xlink:href="#Spade"/><path class="cls-1" d="M21.55,9a.55.55,0,0,1,.74.38L23,11.22c.1.28,0,.54-.45.69-1.11.35-4.25,1.44-4.75,3.87A6.81,6.81,0,0,1,20,15.31a4.75,4.75,0,0,1,4.7,5.13,5.45,5.45,0,0,1-5.41,5.42c-3.67,0-5.7-2.74-5.7-6.43C13.61,12.47,19.52,9.66,21.55,9ZM19.26,22.6A2.29,2.29,0,1,0,17,20.33,2.29,2.29,0,0,0,19.26,22.6Z"/><path class="cls-1" d="M165.8,241.53a.54.54,0,0,1-.73-.38l-.69-1.82c-.09-.28,0-.54.45-.68,1.11-.36,4.26-1.45,4.76-3.88a6.86,6.86,0,0,1-2.25.47,4.75,4.75,0,0,1-4.71-5.13,5.45,5.45,0,0,1,5.42-5.42c3.66,0,5.7,2.75,5.7,6.43C173.75,238.08,167.84,240.89,165.8,241.53ZM168.1,228a2.28,2.28,0,1,0,2.27,2.27A2.28,2.28,0,0,0,168.1,228Z"/></svg>