<svg id="Layer_1" data-name="Layer 1" xmlns="http://www.w3.org/2000/svg" xmlns:xlink="http://www.w3.org/1999/xlink" viewBox="0 0 180 252"><defs><style>.cls-1{fill:#241f21;}.cls-2{fill:none;stroke:#231f20;stroke-miterlimit:10;}</style><symbol id="Spade" data-name="Spade" viewBox="0 0 101.42 106.5"><path class="cls-1" d="M50.71,83.63h0a29.63,29.63,0,1,1-41.81-42s0,0,0,0L50.71,0Z"/><path class="cls-1" d="M50.71,83.63c0,13.23-8.81,22.87-22,22.87h22Z"/><path class="cls-2" d="M63.21,70"/><path d="M50.71,83.63h0a29.63,29.63,0,1,0,41.81-42h0L50.71,0Z"/><path d="M50.71,83.63c0,13.23,8.81,22.87,22,22.87h-22Z"/></symbol><symbol id="Spade_medium" data-name="Spade medium" viewBox="0 0 35.76 37.55"><use width="101.42" height="106.5" transform="scale(0.35)" xlink:href="#Spade"/></symbol></defs><use width="35.76" height="37.55" transform="translate(40.68 46.45)" xlink:href="#Spade_medium"/><use width="35.76" height="37.55" transform="translate(112.9 46.45)" xlink:href="#Spade_medium"/><use width="35.76" height="37.55" transform="translate(148.66 206) rotate(180)" xlink:href="#Spade_medium"/><use width="35.76" height="37.55" transform="translate(76.66 206) rotate(180)" xlink:href="#Spade_medium"/><use width="35.76" height="37.55" transform="translate(40.9 107.34)" xlink:href="#Spade_medium"/><use width="35.76" height="37.55" transform="translate(113.12 107.34)" xlink:href="#Spade_medium"/><use width="35.76" height="37.55" transform="translate(77.1 77.22)" xlink:href="#Spade_medium"/><use width="101.42" height="106.5" transform="translate(7.77 30.06) scale(0.24)" xlink:href="#Spade"/><use width="101.42" height="106.5" transform="translate(179.36 220.94) rotate(180) scale(0.24)" xlink:href="#Spade"/><path class="cls-1" d="M14.5,25.14l5.91-12.35H14.92a.47.47,0,0,1-.45-.45V10.21a.48.48,0,0,1,.45-.45h10a.47.47,0,0,1,.45.45v.17L18.28,25.16a1,1,0,0,1-1,.69H15a.45.45,0,0,1-.47-.45Z"/><path class="cls-1" d="M174.64,225.86l-5.92,12.35h5.49a.46.46,0,0,1,.45.45v2.12a.46.46,0,0,1-.45.45h-10a.46.46,0,0,1-.45-.45v-.16l7.07-14.78c.29-.59.62-.69,1-.69h2.34a.46.46,0,0,1,.48.45Z"/></svg>