<svg id="Layer_1" data-name="Layer 1" xmlns="http://www.w3.org/2000/svg" xmlns:xlink="http://www.w3.org/1999/xlink" viewBox="0 0 180 252"><defs><style>.cls-1{fill:#e8e753;}.cls-2{fill:#e2dd24;}.cls-3{fill:#fff;}.cls-4{fill:#eee;}.cls-5{fill:#241f21;}.cls-6{fill:none;stroke:#231f20;stroke-miterlimit:10;}</style><symbol id="SPade" data-name="SPade" viewBox="0 0 101.42 106.5"><path class="cls-5" d="M50.71,83.63c0,13.23-8.81,22.87-22,22.87H72.75C59.52,106.5,50.71,96.86,50.71,83.63Z"/><path class="cls-5" d="M92.52,41.65,50.71,0,8.9,41.65a29.63,29.63,0,1,0,41.81,42h0s0,0,0,0h0a29.63,29.63,0,1,0,41.81-42Z"/><path class="cls-6" d="M63.21,70"/><path d="M50.71,83.63h0a29.63,29.63,0,1,0,41.81-42h0L50.71,0Z"/><path d="M50.71,83.63c0,13.23,8.81,22.87,22,22.87h-22Z"/></symbol><symbol id="Jack" data-name="Jack" viewBox="0 0 91.62 55.5"><path class="cls-1" d="M45.81,0C25.06,0,7.15,9.59,0,23.13L11.62,55.5H45.81Z"/><path class="cls-2" d="M45.81,0C66.55,0,84.47,9.59,91.62,23.13L80,55.5H45.81Z"/><path class="cls-3" d="M46.12,45.67a6,6,0,1,1,0-12Z"/><path class="cls-4" d="M46.12,45.67a6,6,0,0,0,0-12Z"/></symbol></defs><path class="cls-5" d="M11.27,24.27l1.61-1.59a.46.46,0,0,1,.64,0,1.49,1.49,0,0,0,1.2.5c.67,0,1.4-.62,1.4-1.8V10.24a.45.45,0,0,1,.45-.45h2.88a.45.45,0,0,1,.45.45V21.4a4.9,4.9,0,0,1-5.08,5.18,4.58,4.58,0,0,1-3.6-1.72A.51.51,0,0,1,11.27,24.27Z"/><path class="cls-5" d="M168.73,227.73l-1.61,1.59a.46.46,0,0,1-.64,0,1.49,1.49,0,0,0-1.2-.5c-.67,0-1.4.62-1.4,1.8v11.14a.45.45,0,0,1-.45.45h-2.88a.45.45,0,0,1-.45-.45V230.6a4.9,4.9,0,0,1,5.08-5.18,4.58,4.58,0,0,1,3.6,1.72A.51.51,0,0,1,168.73,227.73Z"/><use width="101.42" height="106.5" transform="translate(5.16 31.56) scale(0.22)" xlink:href="#SPade"/><use width="101.42" height="106.5" transform="translate(174.84 220.44) rotate(180) scale(0.22)" xlink:href="#SPade"/><use width="91.62" height="55.5" transform="translate(45.19 98.25)" xlink:href="#Jack"/></svg>