<svg id="Layer_1" data-name="Layer 1" xmlns="http://www.w3.org/2000/svg" xmlns:xlink="http://www.w3.org/1999/xlink" viewBox="0 0 180 252"><defs><style>.cls-1{fill:#241f21;}.cls-2{fill:none;stroke:#231f20;stroke-miterlimit:10;}</style><symbol id="SPade" data-name="SPade" viewBox="0 0 101.42 106.5"><path class="cls-1" d="M50.71,83.63c0,13.23-8.81,22.87-22,22.87H72.75C59.52,106.5,50.71,96.86,50.71,83.63Z"/><path class="cls-1" d="M92.52,41.65,50.71,0,8.9,41.65a29.63,29.63,0,1,0,41.81,42h0s0,0,0,0h0a29.63,29.63,0,1,0,41.81-42Z"/><path class="cls-2" d="M63.21,70"/><path d="M50.71,83.63h0a29.63,29.63,0,1,0,41.81-42h0L50.71,0Z"/><path d="M50.71,83.63c0,13.23,8.81,22.87,22,22.87h-22Z"/></symbol></defs><use width="101.42" height="106.5" transform="translate(73.22 45.81) scale(0.36)" xlink:href="#SPade"/><use width="101.42" height="106.5" transform="translate(73.22 106.81) scale(0.36)" xlink:href="#SPade"/><use width="101.42" height="106.5" transform="translate(110.78 206.19) rotate(180) scale(0.36)" xlink:href="#SPade"/><path class="cls-1" d="M10.79,23.89l1.49-1.49a.43.43,0,0,1,.59,0,5.64,5.64,0,0,0,2.6,1.09,2.06,2.06,0,0,0,2.06-1.89c0-1-1.07-1.92-2.82-1.92H13.39a.46.46,0,0,1-.45-.45v-2a.45.45,0,0,1,.45-.45h1.32c1.66,0,2.53-.8,2.53-1.82a1.83,1.83,0,0,0-1.89-1.78,2.72,2.72,0,0,0-2.06.95.43.43,0,0,1-.63,0l-1.45-1.42a.42.42,0,0,1,0-.61A7,7,0,0,1,15.73,10c2.74,0,5.11,1.68,5.11,4.33A4.24,4.24,0,0,1,18.4,18v.07a4.73,4.73,0,0,1,2.86,4c0,2.58-2.24,4.51-5.51,4.51a6.13,6.13,0,0,1-5-2.1A.47.47,0,0,1,10.79,23.89Z"/><path class="cls-1" d="M169.21,228.11l-1.49,1.49a.43.43,0,0,1-.59.05,5.64,5.64,0,0,0-2.6-1.09,2.06,2.06,0,0,0-2.06,1.89c0,1,1.07,1.92,2.82,1.92h1.32a.46.46,0,0,1,.45.45v2a.45.45,0,0,1-.45.45h-1.32c-1.66,0-2.53.8-2.53,1.82a1.83,1.83,0,0,0,1.89,1.78,2.72,2.72,0,0,0,2.06-1,.43.43,0,0,1,.63,0l1.45,1.42a.42.42,0,0,1,0,.61,7,7,0,0,1-4.52,2.08c-2.74,0-5.11-1.68-5.11-4.33A4.24,4.24,0,0,1,161.6,234v-.07a4.73,4.73,0,0,1-2.86-4c0-2.58,2.24-4.51,5.51-4.51a6.13,6.13,0,0,1,5,2.1A.47.47,0,0,1,169.21,228.11Z"/><use width="101.42" height="106.5" transform="translate(5.16 31.56) scale(0.22)" xlink:href="#SPade"/><use width="101.42" height="106.5" transform="translate(174.84 220.44) rotate(180) scale(0.22)" xlink:href="#SPade"/></svg>