<svg id="Layer_1" data-name="Layer 1" xmlns="http://www.w3.org/2000/svg" xmlns:xlink="http://www.w3.org/1999/xlink" viewBox="0 0 180 252"><defs><style>.cls-1{fill:#241f21;}.cls-2{fill:none;stroke:#231f20;stroke-miterlimit:10;}</style><symbol id="Spade" data-name="Spade" viewBox="0 0 101.42 106.5"><path class="cls-1" d="M50.71,83.63h0a29.63,29.63,0,1,1-41.81-42s0,0,0,0L50.71,0Z"/><path class="cls-1" d="M50.71,83.63c0,13.23-8.81,22.87-22,22.87h22Z"/><path class="cls-2" d="M63.21,70"/><path d="M50.71,83.63h0a29.63,29.63,0,1,0,41.81-42h0L50.71,0Z"/><path d="M50.71,83.63c0,13.23,8.81,22.87,22,22.87h-22Z"/></symbol><symbol id="Spade_medium" data-name="Spade medium" viewBox="0 0 35.76 37.55"><use width="101.42" height="106.5" transform="scale(0.35)" xlink:href="#Spade"/></symbol></defs><use width="35.76" height="37.55" transform="translate(39.9 32.72)" xlink:href="#Spade_medium"/><use width="35.76" height="37.55" transform="translate(112.12 32.72)" xlink:href="#Spade_medium"/><use width="35.76" height="37.55" transform="translate(147.88 219.28) rotate(180)" xlink:href="#Spade_medium"/><use width="35.76" height="37.55" transform="translate(75.88 219.28) rotate(180)" xlink:href="#Spade_medium"/><use width="35.76" height="37.55" transform="translate(40.12 82.61)" xlink:href="#Spade_medium"/><use width="35.76" height="37.55" transform="translate(112.34 82.61)" xlink:href="#Spade_medium"/><use width="35.76" height="37.55" transform="translate(39.95 132.11)" xlink:href="#Spade_medium"/><use width="35.76" height="37.55" transform="translate(111.95 132.11)" xlink:href="#Spade_medium"/><use width="35.76" height="37.55" transform="translate(75.95 107.11)" xlink:href="#Spade_medium"/><use width="101.42" height="106.5" transform="translate(7.16 29.45) scale(0.24)" xlink:href="#Spade"/><use width="101.42" height="106.5" transform="translate(178.75 220.33) rotate(180) scale(0.24)" xlink:href="#Spade"/><path class="cls-1" d="M15.92,22.73c1.11-.36,4.26-1.45,4.75-3.88a6.8,6.8,0,0,1-2.24.47,4.75,4.75,0,0,1-4.71-5.13,5.45,5.45,0,0,1,5.41-5.42c3.67,0,5.71,2.75,5.71,6.44,0,7-5.78,9.76-7.95,10.4a.54.54,0,0,1-.73-.38l-.69-1.82C15.38,23.13,15.45,22.87,15.92,22.73Zm5.53-8.42a2.27,2.27,0,1,0-2.27,2.29A2.28,2.28,0,0,0,21.45,14.31Z"/><path class="cls-1" d="M172,227.05c-1.11.35-4.26,1.44-4.75,3.88a6.82,6.82,0,0,1,2.24-.48,4.75,4.75,0,0,1,4.71,5.13,5.45,5.45,0,0,1-5.41,5.42c-3.67,0-5.7-2.74-5.7-6.43,0-7,5.77-9.77,7.94-10.41a.57.57,0,0,1,.74.38l.68,1.82C172.54,226.64,172.46,226.9,172,227.05Zm-5.53,8.42a2.27,2.27,0,1,0,2.27-2.3A2.28,2.28,0,0,0,166.46,235.47Z"/></svg>