<svg id="Layer_1" data-name="Layer 1" xmlns="http://www.w3.org/2000/svg" xmlns:xlink="http://www.w3.org/1999/xlink" viewBox="0 0 180 252"><defs><style>.cls-1{fill:#241f21;}.cls-2{fill:none;stroke:#231f20;stroke-miterlimit:10;}</style><symbol id="Spade" data-name="Spade" viewBox="0 0 101.42 106.5"><path class="cls-1" d="M50.71,83.63h0a29.63,29.63,0,1,1-41.81-42s0,0,0,0L50.71,0Z"/><path class="cls-1" d="M50.71,83.63c0,13.23-8.81,22.87-22,22.87h22Z"/><path class="cls-2" d="M63.21,70"/><path d="M50.71,83.63h0a29.63,29.63,0,1,0,41.81-42h0L50.71,0Z"/><path d="M50.71,83.63c0,13.23,8.81,22.87,22,22.87h-22Z"/></symbol><symbol id="Spade_medium" data-name="Spade medium" viewBox="0 0 35.76 37.55"><use width="101.42" height="106.5" transform="scale(0.35)" xlink:href="#Spade"/></symbol></defs><use width="35.76" height="37.55" transform="translate(39.51 33.34)" xlink:href="#Spade_medium"/><use width="35.76" height="37.55" transform="translate(111.73 33.34)" xlink:href="#Spade_medium"/><use width="35.76" height="37.55" transform="translate(147.49 219.89) rotate(180)" xlink:href="#Spade_medium"/><use width="35.76" height="37.55" transform="translate(75.49 219.89) rotate(180)" xlink:href="#Spade_medium"/><use width="35.76" height="37.55" transform="translate(39.73 83.22)" xlink:href="#Spade_medium"/><use width="35.76" height="37.55" transform="translate(111.95 83.22)" xlink:href="#Spade_medium"/><use width="35.76" height="37.55" transform="translate(39.57 132.72)" xlink:href="#Spade_medium"/><use width="35.76" height="37.55" transform="translate(111.57 132.72)" xlink:href="#Spade_medium"/><use width="35.76" height="37.55" transform="translate(75.57 58.72)" xlink:href="#Spade_medium"/><use width="35.76" height="37.55" transform="translate(111.3 194.78) rotate(180)" xlink:href="#Spade_medium"/><use width="101.42" height="106.5" transform="translate(6.77 30.06) scale(0.24)" xlink:href="#Spade"/><use width="101.42" height="106.5" transform="translate(178.36 220.94) rotate(180) scale(0.24)" xlink:href="#Spade"/><path class="cls-1" d="M10.91,14.75H8.64a.44.44,0,0,1-.43-.45V12.81a.67.67,0,0,1,.14-.35l3.46-2.7H14a.45.45,0,0,1,.43.45V25.4a.45.45,0,0,1-.43.45H11.36a.45.45,0,0,1-.45-.45Z"/><path class="cls-1" d="M15.9,17.8c0-5.18,2.2-8.27,6.06-8.27S28,12.62,28,17.8s-2.2,8.28-6.05,8.28S15.9,23,15.9,17.8Zm8.3,0C24.2,14.71,23.4,13,22,13s-2.25,1.75-2.25,4.84.8,4.85,2.25,4.85S24.2,20.93,24.2,17.8Z"/><path class="cls-1" d="M174.22,236.24h2.28a.45.45,0,0,1,.42.45v1.49a.67.67,0,0,1-.14.36l-3.45,2.69h-2.18a.44.44,0,0,1-.43-.45V225.6a.44.44,0,0,1,.43-.45h2.63a.44.44,0,0,1,.44.45Z"/><path class="cls-1" d="M169.23,233.19c0,5.18-2.2,8.28-6,8.28s-6.06-3.1-6.06-8.28,2.2-8.28,6.06-8.28S169.23,228,169.23,233.19Zm-8.3,0c0,3.1.81,4.85,2.25,4.85s2.24-1.75,2.24-4.85-.8-4.85-2.24-4.85S160.93,230.07,160.93,233.19Z"/></svg>