<svg id="Layer_1" data-name="Layer 1" xmlns="http://www.w3.org/2000/svg" xmlns:xlink="http://www.w3.org/1999/xlink" viewBox="0 0 180 252"><defs><style>.cls-1{fill:#241f21;}.cls-2{fill:none;stroke:#231f20;stroke-miterlimit:10;}</style><symbol id="SPade" data-name="SPade" viewBox="0 0 101.42 106.5"><path class="cls-1" d="M50.71,83.63c0,13.23-8.81,22.87-22,22.87H72.75C59.52,106.5,50.71,96.86,50.71,83.63Z"/><path class="cls-1" d="M92.52,41.65,50.71,0,8.9,41.65a29.63,29.63,0,1,0,41.81,42h0s0,0,0,0h0a29.63,29.63,0,1,0,41.81-42Z"/><path class="cls-2" d="M63.21,70"/><path d="M50.71,83.63h0a29.63,29.63,0,1,0,41.81-42h0L50.71,0Z"/><path d="M50.71,83.63c0,13.23,8.81,22.87,22,22.87h-22Z"/></symbol></defs><use width="101.42" height="106.5" transform="translate(37.39 45.81) scale(0.36)" xlink:href="#SPade"/><use width="101.42" height="106.5" transform="translate(109.61 45.81) scale(0.36)" xlink:href="#SPade"/><use width="101.42" height="106.5" transform="translate(146.17 206.19) rotate(180) scale(0.36)" xlink:href="#SPade"/><use width="101.42" height="106.5" transform="translate(74.17 206.19) rotate(180) scale(0.36)" xlink:href="#SPade"/><use width="101.42" height="106.5" transform="translate(37.61 106.69) scale(0.36)" xlink:href="#SPade"/><use width="101.42" height="106.5" transform="translate(109.83 106.69) scale(0.36)" xlink:href="#SPade"/><path class="cls-1" d="M18.38,9.74a.55.55,0,0,1,.73.38l.68,1.82c.1.29,0,.55-.44.69-1.12.35-4.26,1.44-4.76,3.88A6.86,6.86,0,0,1,16.84,16a4.75,4.75,0,0,1,4.71,5.13,5.44,5.44,0,0,1-5.42,5.41c-3.67,0-5.7-2.74-5.7-6.43C10.43,13.2,16.34,10.38,18.38,9.74Zm-2.3,13.58a2.28,2.28,0,1,0-2.27-2.27A2.28,2.28,0,0,0,16.08,23.32Z"/><path class="cls-1" d="M161.62,242.26a.55.55,0,0,1-.73-.38l-.68-1.82c-.1-.29,0-.55.44-.69,1.12-.35,4.26-1.44,4.76-3.88a6.86,6.86,0,0,1-2.25.47,4.75,4.75,0,0,1-4.71-5.13,5.44,5.44,0,0,1,5.42-5.41c3.67,0,5.7,2.74,5.7,6.43C169.57,238.8,163.66,241.62,161.62,242.26Zm2.3-13.58a2.28,2.28,0,1,0,2.27,2.27A2.28,2.28,0,0,0,163.92,228.68Z"/><use width="101.42" height="106.5" transform="translate(5.16 31.56) scale(0.22)" xlink:href="#SPade"/><use width="101.42" height="106.5" transform="translate(174.84 220.44) rotate(180) scale(0.22)" xlink:href="#SPade"/></svg>