<svg id="Layer_1" data-name="Layer 1" xmlns="http://www.w3.org/2000/svg" xmlns:xlink="http://www.w3.org/1999/xlink" viewBox="0 0 180 252"><defs><style>.cls-1{fill:#241f21;}.cls-2{fill:none;stroke:#231f20;stroke-miterlimit:10;}</style><symbol id="Spade" data-name="Spade" viewBox="0 0 101.42 106.5"><path class="cls-1" d="M50.71,83.63h0a29.63,29.63,0,1,1-41.81-42s0,0,0,0L50.71,0Z"/><path class="cls-1" d="M50.71,83.63c0,13.23-8.81,22.87-22,22.87h22Z"/><path class="cls-2" d="M63.21,70"/><path d="M50.71,83.63h0a29.63,29.63,0,1,0,41.81-42h0L50.71,0Z"/><path d="M50.71,83.63c0,13.23,8.81,22.87,22,22.87h-22Z"/></symbol><symbol id="Spade_medium" data-name="Spade medium" viewBox="0 0 35.76 37.55"><use width="101.42" height="106.5" transform="scale(0.35)" xlink:href="#Spade"/></symbol></defs><use width="35.76" height="37.55" transform="translate(40.01 46.22)" xlink:href="#Spade_medium"/><use width="35.76" height="37.55" transform="translate(112.23 46.22)" xlink:href="#Spade_medium"/><use width="35.76" height="37.55" transform="translate(147.99 205.78) rotate(180)" xlink:href="#Spade_medium"/><use width="35.76" height="37.55" transform="translate(75.99 205.78) rotate(180)" xlink:href="#Spade_medium"/><use width="35.76" height="37.55" transform="translate(75.68 109.28)" xlink:href="#Spade_medium"/><use width="101.42" height="106.5" transform="translate(7.1 29.72) scale(0.24)" xlink:href="#Spade"/><use width="101.42" height="106.5" transform="translate(178.7 220.6) rotate(180) scale(0.24)" xlink:href="#Spade"/><path class="cls-1" d="M14.14,23l1.49-1.47a.47.47,0,0,1,.56-.07A6.82,6.82,0,0,0,19,22.58a2.19,2.19,0,0,0,2.25-2.25A2.25,2.25,0,0,0,18.82,18H15.18a.79.79,0,0,1-.74-.83V9.88a.45.45,0,0,1,.45-.45h7.62a.45.45,0,0,1,.45.45V12a.45.45,0,0,1-.45.45H17.64v2.53h1.68a5.15,5.15,0,0,1,5.39,5.39,5.61,5.61,0,0,1-5.84,5.42,6.27,6.27,0,0,1-4.69-2C13.88,23.43,13.85,23.26,14.14,23Z"/><path class="cls-1" d="M173.66,227.35l-1.49,1.46a.44.44,0,0,1-.56.07,6.85,6.85,0,0,0-2.82-1.13,2.19,2.19,0,0,0-2.25,2.25,2.25,2.25,0,0,0,2.44,2.29h3.64a.79.79,0,0,1,.74.83v7.33a.45.45,0,0,1-.45.45h-7.62a.45.45,0,0,1-.45-.45v-2.08a.45.45,0,0,1,.45-.45h4.87v-2.53h-1.68a5.15,5.15,0,0,1-5.39-5.39,5.61,5.61,0,0,1,5.84-5.42,6.27,6.27,0,0,1,4.69,2C173.92,226.9,174,227.06,173.66,227.35Z"/></svg>