<svg id="Layer_1" data-name="Layer 1" xmlns="http://www.w3.org/2000/svg" xmlns:xlink="http://www.w3.org/1999/xlink" viewBox="0 0 180 252"><defs><style>.cls-1{fill:#241f21;}.cls-2{fill:none;stroke:#231f20;stroke-miterlimit:10;}</style><symbol id="Spade" data-name="Spade" viewBox="0 0 101.42 106.5"><path class="cls-1" d="M50.71,83.63h0a29.63,29.63,0,1,1-41.81-42s0,0,0,0L50.71,0Z"/><path class="cls-1" d="M50.71,83.63c0,13.23-8.81,22.87-22,22.87h22Z"/><path class="cls-2" d="M63.21,70"/><path d="M50.71,83.63h0a29.63,29.63,0,1,0,41.81-42h0L50.71,0Z"/><path d="M50.71,83.63c0,13.23,8.81,22.87,22,22.87h-22Z"/></symbol></defs><use width="101.42" height="106.5" transform="translate(7.32 29.61) scale(0.24)" xlink:href="#Spade"/><use width="101.42" height="106.5" transform="translate(178.92 220.49) rotate(180) scale(0.24)" xlink:href="#Spade"/><use width="101.42" height="106.5" transform="translate(40.36 69.67) scale(1.06)" xlink:href="#Spade"/><path class="cls-1" d="M10.08,24.79l7.4-15.92a.5.5,0,0,1,.41-.26h.23a.47.47,0,0,1,.4.26l7.41,15.92a.42.42,0,0,1-.4.61H22.9c-.43,0-.61-.14-.83-.59l-.85-1.87H14.79l-.85,1.89a.88.88,0,0,1-.85.57H10.48A.42.42,0,0,1,10.08,24.79Zm9.72-5.07L18,15.82h0l-1.77,3.9Z"/><path class="cls-1" d="M176.16,225.32l-7.4,15.92a.49.49,0,0,1-.4.26h-.24a.49.49,0,0,1-.4-.26l-7.4-15.92a.41.41,0,0,1,.4-.61h2.62c.43,0,.62.14.83.59l.85,1.87h6.44l.85-1.9a.88.88,0,0,1,.85-.56h2.6A.41.41,0,0,1,176.16,225.32Zm-9.72,5.06,1.8,3.9h0l1.78-3.9Z"/></svg>