<svg id="Layer_1" data-name="Layer 1" xmlns="http://www.w3.org/2000/svg" xmlns:xlink="http://www.w3.org/1999/xlink" viewBox="0 0 180 252"><defs><style>.cls-1{fill:#241f21;}.cls-2{fill:none;stroke:#231f20;stroke-miterlimit:10;}</style><symbol id="Spade" data-name="Spade" viewBox="0 0 101.42 106.5"><path class="cls-1" d="M50.71,83.63h0a29.63,29.63,0,1,1-41.81-42s0,0,0,0L50.71,0Z"/><path class="cls-1" d="M50.71,83.63c0,13.23-8.81,22.87-22,22.87h22Z"/><path class="cls-2" d="M63.21,70"/><path d="M50.71,83.63h0a29.63,29.63,0,1,0,41.81-42h0L50.71,0Z"/><path d="M50.71,83.63c0,13.23,8.81,22.87,22,22.87h-22Z"/></symbol><symbol id="Spade_medium" data-name="Spade medium" viewBox="0 0 35.76 37.55"><use width="101.42" height="106.5" transform="scale(0.35)" xlink:href="#Spade"/></symbol></defs><use width="35.76" height="37.55" transform="translate(38.75 45.91) scale(1.02)" xlink:href="#Spade_medium"/><use width="35.76" height="37.55" transform="translate(112.73 45.91) scale(1.02)" xlink:href="#Spade_medium"/><use width="35.76" height="37.55" transform="translate(148.05 205.39) rotate(180)" xlink:href="#Spade_medium"/><use width="35.76" height="37.55" transform="translate(76.05 205.39) rotate(180)" xlink:href="#Spade_medium"/><use width="35.76" height="37.55" transform="translate(38.97 108.29) scale(1.02)" xlink:href="#Spade_medium"/><use width="35.76" height="37.55" transform="translate(112.51 106.72)" xlink:href="#Spade_medium"/><use width="35.76" height="37.55" transform="translate(76.06 77.44) scale(1.02)" xlink:href="#Spade_medium"/><use width="35.76" height="37.55" transform="translate(111.88 175.78) rotate(180)" xlink:href="#Spade_medium"/><use width="101.42" height="106.5" transform="translate(7.16 29.45) scale(0.24)" xlink:href="#Spade"/><use width="101.42" height="106.5" transform="translate(178.75 220.33) rotate(180) scale(0.24)" xlink:href="#Spade"/><path class="cls-1" d="M15.84,17v-.07a4.51,4.51,0,0,1-2.43-3.67c0-2.65,2.36-4.32,5.25-4.32S24,10.59,24,13.24c0,1.8-1.51,3-2.43,3.65V17c1.06.59,2.88,1.94,2.88,4,0,2.58-2.27,4.52-5.81,4.52S13,23.53,13,21C13,18.87,15.39,17.24,15.84,17Zm2.89,5.58a1.9,1.9,0,0,0,1.91-1.77,2.46,2.46,0,0,0-1.94-2.18,2.49,2.49,0,0,0-1.91,2.18A1.88,1.88,0,0,0,18.73,22.56Zm1.65-9.18a1.67,1.67,0,0,0-3.33,0c0,.86.54,1.54,1.65,2A2.2,2.2,0,0,0,20.38,13.38Z"/><path class="cls-1" d="M171.07,232.79v.08a4.49,4.49,0,0,1,2.44,3.66c0,2.65-2.37,4.33-5.26,4.33s-5.36-1.68-5.36-4.33c0-1.8,1.51-3.05,2.43-3.64v-.1c-1.06-.59-2.88-1.94-2.88-4,0-2.58,2.27-4.52,5.81-4.52s5.71,1.94,5.71,4.52C174,230.9,171.52,232.53,171.07,232.79Zm-2.89-5.58a1.9,1.9,0,0,0-1.91,1.78,2.45,2.45,0,0,0,1.94,2.17,2.48,2.48,0,0,0,1.91-2.17A1.89,1.89,0,0,0,168.18,227.21Zm-1.65,9.18a1.67,1.67,0,0,0,3.33,0c0-.85-.54-1.54-1.65-2A2.19,2.19,0,0,0,166.53,236.39Z"/></svg>