<svg id="Layer_1" data-name="Layer 1" xmlns="http://www.w3.org/2000/svg" xmlns:xlink="http://www.w3.org/1999/xlink" viewBox="0 0 180 252"><defs><style>.cls-1{fill:#e8e753;}.cls-2{fill:#e2dd24;}.cls-3{fill:#fff;}.cls-4{fill:#eee;}.cls-5{fill:#241f21;}.cls-6{fill:none;stroke:#231f20;stroke-miterlimit:10;}</style><symbol id="Jack" data-name="Jack" viewBox="0 0 91.62 55.5"><path class="cls-1" d="M45.81,0C25.06,0,7.15,9.59,0,23.13L11.62,55.5H45.81Z"/><path class="cls-2" d="M45.81,0C66.55,0,84.47,9.59,91.62,23.13L80,55.5H45.81Z"/><path class="cls-3" d="M46.12,45.67a6,6,0,1,1,0-12Z"/><path class="cls-4" d="M46.12,45.67a6,6,0,0,0,0-12Z"/></symbol><symbol id="Spade" data-name="Spade" viewBox="0 0 101.42 106.5"><path class="cls-5" d="M50.71,83.63h0a29.63,29.63,0,1,1-41.81-42s0,0,0,0L50.71,0Z"/><path class="cls-5" d="M50.71,83.63c0,13.23-8.81,22.87-22,22.87h22Z"/><path class="cls-6" d="M63.21,70"/><path d="M50.71,83.63h0a29.63,29.63,0,1,0,41.81-42h0L50.71,0Z"/><path d="M50.71,83.63c0,13.23,8.81,22.87,22,22.87h-22Z"/></symbol></defs><use width="91.62" height="55.5" transform="translate(48.19 98.25)" xlink:href="#Jack"/><use width="101.42" height="106.5" transform="translate(7.55 30.06) scale(0.24)" xlink:href="#Spade"/><use width="101.42" height="106.5" transform="translate(179.14 220.94) rotate(180) scale(0.24)" xlink:href="#Spade"/><path class="cls-5" d="M13.12,23.76l1.6-1.58a.45.45,0,0,1,.64,0,1.51,1.51,0,0,0,1.21.5c.66,0,1.39-.62,1.39-1.8V9.74a.45.45,0,0,1,.45-.45H21.3a.45.45,0,0,1,.45.45V20.9a4.9,4.9,0,0,1-5.09,5.18,4.53,4.53,0,0,1-3.59-1.72A.5.5,0,0,1,13.12,23.76Z"/><path class="cls-5" d="M175.57,227.23,174,228.82a.44.44,0,0,1-.63,0,1.48,1.48,0,0,0-1.21-.5c-.66,0-1.4.62-1.4,1.8v11.14a.45.45,0,0,1-.44.45h-2.89a.45.45,0,0,1-.45-.45V230.09a4.91,4.91,0,0,1,5.09-5.18,4.52,4.52,0,0,1,3.59,1.73A.5.5,0,0,1,175.57,227.23Z"/></svg>