<svg id="Layer_1" data-name="Layer 1" xmlns="http://www.w3.org/2000/svg" xmlns:xlink="http://www.w3.org/1999/xlink" viewBox="0 0 180 252"><defs><style>.cls-1{fill:#241f21;}.cls-2{fill:none;stroke:#231f20;stroke-miterlimit:10;}</style><symbol id="Spade" data-name="Spade" viewBox="0 0 101.42 106.5"><path class="cls-1" d="M50.71,83.63h0a29.63,29.63,0,1,1-41.81-42s0,0,0,0L50.71,0Z"/><path class="cls-1" d="M50.71,83.63c0,13.23-8.81,22.87-22,22.87h22Z"/><path class="cls-2" d="M63.21,70"/><path d="M50.71,83.63h0a29.63,29.63,0,1,0,41.81-42h0L50.71,0Z"/><path d="M50.71,83.63c0,13.23,8.81,22.87,22,22.87h-22Z"/></symbol><symbol id="Spade_medium" data-name="Spade medium" viewBox="0 0 35.76 37.55"><use width="101.42" height="106.5" transform="scale(0.35)" xlink:href="#Spade"/></symbol></defs><use width="35.76" height="37.55" transform="translate(40.01 71.72)" xlink:href="#Spade_medium"/><use width="35.76" height="37.55" transform="translate(112.23 71.72)" xlink:href="#Spade_medium"/><use width="35.76" height="37.55" transform="translate(147.99 180.28) rotate(180)" xlink:href="#Spade_medium"/><use width="35.76" height="37.55" transform="translate(75.99 180.28) rotate(180)" xlink:href="#Spade_medium"/><use width="101.42" height="106.5" transform="translate(7.1 29.06) scale(0.24)" xlink:href="#Spade"/><use width="101.42" height="106.5" transform="translate(178.7 219.94) rotate(180) scale(0.24)" xlink:href="#Spade"/><path class="cls-1" d="M11.29,21.06V18.55l8.25-9.91a.41.41,0,0,1,.35-.14H21.6a.45.45,0,0,1,.45.45l0,9.7h1.87a.43.43,0,0,1,.45.42v2a.45.45,0,0,1-.45.45H22.07l0,2.91a.47.47,0,0,1-.45.45H19.11a.48.48,0,0,1-.45-.45V21.51H11.73A.44.44,0,0,1,11.29,21.06Zm7.47-2.48v-4.4L15,18.58Z"/><path class="cls-1" d="M174.52,227.93v2.51l-8.26,9.91a.41.41,0,0,1-.35.14H164.2a.45.45,0,0,1-.45-.45l0-9.69h-1.87a.43.43,0,0,1-.45-.43v-2a.45.45,0,0,1,.45-.45h1.87l0-2.91a.46.46,0,0,1,.45-.45h2.53a.47.47,0,0,1,.45.45v2.88h6.93A.45.45,0,0,1,174.52,227.93ZM167,230.42v4.4l3.76-4.4Z"/></svg>