<svg id="Layer_1" data-name="Layer 1" xmlns="http://www.w3.org/2000/svg" xmlns:xlink="http://www.w3.org/1999/xlink" viewBox="0 0 180 252"><defs><style>.cls-1{fill:#e8e751;}.cls-2{fill:#e2dd24;}.cls-3{fill:#fff;}.cls-4{fill:#eee;}.cls-5,.cls-7{fill:none;}.cls-6{fill:#241f21;}.cls-7{stroke:#231f20;stroke-miterlimit:10;}</style><symbol id="Spade" data-name="Spade" viewBox="0 0 101.42 106.5"><path class="cls-6" d="M50.71,83.63h0a29.63,29.63,0,1,1-41.81-42s0,0,0,0L50.71,0Z"/><path class="cls-6" d="M50.71,83.63c0,13.23-8.81,22.87-22,22.87h22Z"/><path class="cls-7" d="M63.21,70"/><path d="M50.71,83.63h0a29.63,29.63,0,1,0,41.81-42h0L50.71,0Z"/><path d="M50.71,83.63c0,13.23,8.81,22.87,22,22.87h-22Z"/></symbol><symbol id="King" data-name="King" viewBox="0 0 108 104.17"><polygon class="cls-1" points="53.75 0 32.5 42.17 0 22.67 20.5 104.17 53.75 104.17 53.75 0"/><polygon class="cls-2" points="53.75 0 75 42.17 108 22.67 87 104.17 53.75 104.17 53.75 0"/><path class="cls-2" d="M3,100.67"/><path class="cls-3" d="M54,94.67a6,6,0,0,1,0-12Z"/><path class="cls-4" d="M54,94.67a6,6,0,1,0,0-12Z"/><path class="cls-3" d="M73,98.67a6,6,0,0,1,0-12Z"/><path class="cls-4" d="M73,98.67a6,6,0,0,0,0-12Z"/><path class="cls-3" d="M35,98.67a6,6,0,0,1,0-12Z"/><path class="cls-4" d="M35,98.67a6,6,0,0,0,0-12Z"/><path class="cls-5" d="M13,41.67"/></symbol></defs><use width="101.42" height="106.5" transform="translate(7.32 29.61) scale(0.24)" xlink:href="#Spade"/><use width="101.42" height="106.5" transform="translate(178.92 220.49) rotate(180) scale(0.24)" xlink:href="#Spade"/><path class="cls-6" d="M13.21,9.41a.56.56,0,0,1,.57-.56h2.76a.57.57,0,0,1,.57.56v6.22l5.25-6.55a.7.7,0,0,1,.45-.23h3a.55.55,0,0,1,.43.87l-5.54,6.93,6,7.85a.55.55,0,0,1-.44.88H23a.63.63,0,0,1-.42-.17l-5.47-7.42v7a.58.58,0,0,1-.57.57H13.78a.56.56,0,0,1-.57-.57Z"/><path class="cls-6" d="M173,240.7a.55.55,0,0,1-.56.56H169.7a.57.57,0,0,1-.57-.56v-6.23L163.88,241a.73.73,0,0,1-.45.23h-3a.54.54,0,0,1-.42-.87l5.53-6.93-6-7.85a.56.56,0,0,1,.45-.88h3.26a.61.61,0,0,1,.43.17l5.46,7.42v-7a.57.57,0,0,1,.57-.56h2.77a.55.55,0,0,1,.56.56Z"/><use width="108" height="104.17" transform="translate(40 73.92)" xlink:href="#King"/></svg>