<svg id="Layer_1" data-name="Layer 1" xmlns="http://www.w3.org/2000/svg" xmlns:xlink="http://www.w3.org/1999/xlink" viewBox="0 0 180 252"><defs><style>.cls-1{fill:#241f21;}.cls-2{fill:none;stroke:#231f20;stroke-miterlimit:10;}</style><symbol id="SPade" data-name="SPade" viewBox="0 0 101.42 106.5"><path class="cls-1" d="M50.71,83.63c0,13.23-8.81,22.87-22,22.87H72.75C59.52,106.5,50.71,96.86,50.71,83.63Z"/><path class="cls-1" d="M92.52,41.65,50.71,0,8.9,41.65a29.63,29.63,0,1,0,41.81,42h0s0,0,0,0h0a29.63,29.63,0,1,0,41.81-42Z"/><path class="cls-2" d="M63.21,70"/><path d="M50.71,83.63h0a29.63,29.63,0,1,0,41.81-42h0L50.71,0Z"/><path d="M50.71,83.63c0,13.23,8.81,22.87,22,22.87h-22Z"/></symbol></defs><use width="101.42" height="106.5" transform="translate(38.36 69.67) scale(1.06)" xlink:href="#SPade"/><path class="cls-1" d="M8,25.73l7.4-15.91a.47.47,0,0,1,.4-.26H16a.45.45,0,0,1,.4.26l7.41,15.91a.42.42,0,0,1-.41.62H20.78c-.43,0-.62-.14-.83-.59l-.85-1.87H12.67l-.86,1.89a.87.87,0,0,1-.85.57H8.36A.42.42,0,0,1,8,25.73Zm9.72-5.06-1.8-3.9h0l-1.77,3.9Z"/><path class="cls-1" d="M172,226.27l-7.4,15.91a.47.47,0,0,1-.4.26H164a.45.45,0,0,1-.4-.26l-7.41-15.91a.42.42,0,0,1,.41-.62h2.62c.43,0,.62.14.83.59l.85,1.87h6.43l.86-1.89a.87.87,0,0,1,.85-.57h2.6A.42.42,0,0,1,172,226.27Zm-9.72,5.06,1.8,3.9h0l1.77-3.9Z"/><use width="101.42" height="106.5" transform="translate(5.16 31.56) scale(0.22)" xlink:href="#SPade"/><use width="101.42" height="106.5" transform="translate(174.84 220.44) rotate(180) scale(0.22)" xlink:href="#SPade"/></svg>