<svg id="Layer_1" data-name="Layer 1" xmlns="http://www.w3.org/2000/svg" xmlns:xlink="http://www.w3.org/1999/xlink" viewBox="0 0 180 252"><defs><style>.cls-1{fill:#241f21;}.cls-2{fill:none;stroke:#231f20;stroke-miterlimit:10;}</style><symbol id="SPade" data-name="SPade" viewBox="0 0 101.42 106.5"><path class="cls-1" d="M50.71,83.63c0,13.23-8.81,22.87-22,22.87H72.75C59.52,106.5,50.71,96.86,50.71,83.63Z"/><path class="cls-1" d="M92.52,41.65,50.71,0,8.9,41.65a29.63,29.63,0,1,0,41.81,42h0s0,0,0,0h0a29.63,29.63,0,1,0,41.81-42Z"/><path class="cls-2" d="M63.21,70"/><path d="M50.71,83.63h0a29.63,29.63,0,1,0,41.81-42h0L50.71,0Z"/><path d="M50.71,83.63c0,13.23,8.81,22.87,22,22.87h-22Z"/></symbol></defs><use width="101.42" height="106.5" transform="translate(37.11 32.92) scale(0.36)" xlink:href="#SPade"/><use width="101.42" height="106.5" transform="translate(109.33 32.92) scale(0.36)" xlink:href="#SPade"/><use width="101.42" height="106.5" transform="translate(145.89 220.31) rotate(180) scale(0.36)" xlink:href="#SPade"/><use width="101.42" height="106.5" transform="translate(73.89 220.31) rotate(180) scale(0.36)" xlink:href="#SPade"/><use width="101.42" height="106.5" transform="translate(37.33 82.81) scale(0.36)" xlink:href="#SPade"/><use width="101.42" height="106.5" transform="translate(109.56 82.81) scale(0.36)" xlink:href="#SPade"/><use width="101.42" height="106.5" transform="translate(37.17 132.31) scale(0.36)" xlink:href="#SPade"/><use width="101.42" height="106.5" transform="translate(109.17 132.31) scale(0.36)" xlink:href="#SPade"/><use width="101.42" height="106.5" transform="translate(73.17 58.31) scale(0.36)" xlink:href="#SPade"/><use width="101.42" height="106.5" transform="translate(109.7 195.19) rotate(180) scale(0.36)" xlink:href="#SPade"/><path class="cls-1" d="M8.84,15.25H6.57a.43.43,0,0,1-.42-.44V13.32A.67.67,0,0,1,6.29,13l3.45-2.7h2.18a.45.45,0,0,1,.42.45V25.9a.45.45,0,0,1-.42.45H9.29a.45.45,0,0,1-.45-.45Z"/><path class="cls-1" d="M13.83,18.31c0-5.18,2.2-8.28,6.06-8.28s6.05,3.1,6.05,8.28-2.2,8.27-6.05,8.27S13.83,23.49,13.83,18.31Zm8.31,0c0-3.1-.81-4.85-2.25-4.85s-2.25,1.75-2.25,4.85.81,4.84,2.25,4.84S22.14,21.43,22.14,18.31Z"/><path class="cls-1" d="M171.16,236.75h2.27a.43.43,0,0,1,.42.44v1.49a.67.67,0,0,1-.14.36l-3.45,2.7h-2.18a.45.45,0,0,1-.42-.45V226.1a.45.45,0,0,1,.42-.45h2.63a.45.45,0,0,1,.45.45Z"/><path class="cls-1" d="M166.64,233.69c0,5.18-2.2,8.28-6.06,8.28s-6.05-3.1-6.05-8.28,2.2-8.27,6.05-8.27S166.64,228.51,166.64,233.69Zm-8.3,0c0,3.1.8,4.85,2.24,4.85s2.25-1.75,2.25-4.85-.8-4.84-2.25-4.84S158.34,230.57,158.34,233.69Z"/><use width="101.42" height="106.5" transform="translate(5.16 31.56) scale(0.22)" xlink:href="#SPade"/><use width="101.42" height="106.5" transform="translate(174.84 220.44) rotate(180) scale(0.22)" xlink:href="#SPade"/></svg>